<?xml version="1.0" encoding="UTF-8" standalone="no"?>
<!-- Created with Inkscape (http://www.inkscape.org/) -->

<svg
   xmlns:dc="http://purl.org/dc/elements/1.1/"
   xmlns:cc="http://creativecommons.org/ns#"
   xmlns:rdf="http://www.w3.org/1999/02/22-rdf-syntax-ns#"
   xmlns:svg="http://www.w3.org/2000/svg"
   xmlns="http://www.w3.org/2000/svg"
   xmlns:sodipodi="http://sodipodi.sourceforge.net/DTD/sodipodi-0.dtd"
   xmlns:inkscape="http://www.inkscape.org/namespaces/inkscape"
   id="svg3355"
   version="1.1"
   inkscape:version="0.91 r13725"
   xml:space="preserve"
   width="1554.0387"
   height="385.00961"
   viewBox="0 0 1554.0387 385.00961"
   sodipodi:docname="bigsimplex.svg"><metadata
     id="metadata3361"><rdf:RDF><cc:Work
         rdf:about=""><dc:format>image/svg+xml</dc:format><dc:type
           rdf:resource="http://purl.org/dc/dcmitype/StillImage" /><dc:title></dc:title></cc:Work></rdf:RDF></metadata><defs
     id="defs3359" /><sodipodi:namedview
     pagecolor="#ffffff"
     bordercolor="#666666"
     borderopacity="1"
     objecttolerance="10"
     gridtolerance="10"
     guidetolerance="10"
     inkscape:pageopacity="0"
     inkscape:pageshadow="2"
     inkscape:window-width="1855"
     inkscape:window-height="1056"
     id="namedview3357"
     showgrid="false"
     inkscape:zoom="0.45076098"
     inkscape:cx="696.04517"
     inkscape:cy="175.86628"
     inkscape:window-x="65"
     inkscape:window-y="24"
     inkscape:window-maximized="1"
     inkscape:current-layer="g3363" /><g
     id="g3363"
     inkscape:groupmode="layer"
     inkscape:label="bigsimplex"
     transform="matrix(1.25,0,0,-1.25,0,385.00961)"><g
       id="g3365"><g
         id="g3367"
         transform="matrix(1,0,0,-1,0,308.00769)"><path
           d="m 650.414,0.973 -543.082,0 C 48.59,0.973 0.973,48.59 0.973,107.332 l 0,93.344 c 0,58.742 47.617,106.359 106.359,106.359 l 543.082,0 c 58.742,0 106.359,-47.617 106.359,-106.359 L 756.68,108 C 756.773,48.59 709.156,0.973 650.414,0.973 Z"
           style="fill:#6699ff;fill-opacity:1;fill-rule:nonzero;stroke:#000000;stroke-width:1.94400001;stroke-linecap:butt;stroke-linejoin:round;stroke-miterlimit:4;stroke-dasharray:none;stroke-opacity:1"
           id="path3369"
           inkscape:connector-curvature="0" /></g><g
         id="g3371"
         transform="matrix(1,0,0,-1,0,308.00769)"><path
           d="m 108.586,19.004 450.602,0 c 50.304,0 90.597,40.293 90.597,90 l 0,90 c 0,49.707 -40.293,90 -90.597,90 l -450.602,0 c -49.707,0 -90,-40.293 -90,-89.399 l 0,-90.601 c 0,-49.707 40.293,-90 90,-90 z"
           style="fill:#99cc33;fill-opacity:1;fill-rule:nonzero;stroke:#000000;stroke-width:1.94400001;stroke-linecap:butt;stroke-linejoin:round;stroke-miterlimit:4;stroke-dasharray:none;stroke-opacity:1"
           id="path3373"
           inkscape:connector-curvature="0" /></g><g
         id="g3375"
         transform="matrix(1,0,0,-1,0,308.00769)"><path
           d="m 468.586,37.203 -360,0 c -39.766,0 -72,32.235 -72,72 l 0,89.602 c 0,39.761 32.234,72 72,72 l 360,0 c 39.766,0 72,-32.239 72,-72 l 0,-89.602 c 0,-39.765 -32.234,-72 -72,-72 z"
           style="fill:#ffcc00;fill-opacity:1;fill-rule:nonzero;stroke:#000000;stroke-width:1.94400001;stroke-linecap:butt;stroke-linejoin:round;stroke-miterlimit:4;stroke-dasharray:none;stroke-opacity:1"
           id="path3377"
           inkscape:connector-curvature="0" /></g><g
         id="g3379"
         transform="matrix(1,0,0,-1,0,308.00769)"><path
           d="m 432.758,197.805 -0.086,-88.09 c 0.086,-29.336 -24.09,-53.512 -53.914,-53.512 l -269.199,0 c -29.825,0 -54,24.176 -54,54 l 0,87.602 c 0,29.824 24.175,54 54,54 l 269.199,0 c 29.824,0 54,-24.176 54,-54 z"
           style="fill:#ff9900;fill-opacity:1;fill-rule:nonzero;stroke:#000000;stroke-width:1.94400001;stroke-linecap:butt;stroke-linejoin:round;stroke-miterlimit:4;stroke-dasharray:none;stroke-opacity:1"
           id="path3381"
           inkscape:connector-curvature="0" /></g><g
         id="g3383"
         transform="matrix(0.999714,0,0,-1,0,308.00769)"><path
           d="m 143.486,109.195 c 0,7.875 -15.43,14.262 -34.471,14.262 -19.04,0 -35.31,-6.387 -35.31,-14.262 m 69.832,0.024 c 0,19.281 -15.629,34.918 -34.904,34.918 -19.283,0 -34.921,-15.637 -34.921,-34.918 0,-19.278 15.638,-34.907 34.921,-34.907 19.275,0 34.904,15.629 34.904,34.907 z"
           style="fill:#ffffff;fill-opacity:1;fill-rule:nonzero;stroke:#000000;stroke-width:2.18866396;stroke-linecap:butt;stroke-linejoin:round;stroke-miterlimit:4;stroke-dasharray:none;stroke-opacity:1"
           id="path3385"
           inkscape:connector-curvature="0" /></g><path
         d="m 109.504,204.293 12.051,0 c 0.609,0 1.437,0 1.437,0.867 0,0.871 -0.828,0.871 -1.437,0.871 l -12.051,0 0,12.137 c 0,0.609 0,1.437 -0.871,1.437 -0.867,0 -0.867,-0.828 -0.867,-1.437 l 0,-12.137 -12.141,0 c -0.605,0 -1.434,0 -1.434,-0.871 0,-0.867 0.829,-0.867 1.434,-0.867 l 12.141,0 0,-12.141 c 0,-0.609 0,-1.39 0.867,-1.39 0.871,0 0.871,0.781 0.871,1.39 l 0,12.141 z"
         style="fill:#000000;fill-opacity:1;fill-rule:evenodd;stroke:none"
         id="path3387"
         inkscape:connector-curvature="0" /><g
         id="g3389"
         transform="matrix(0.999714,0,0,-1,0,308.00769)"><path
           d="m 143.279,199.238 c 0,7.875 -15.43,14.258 -34.471,14.258 -19.04,0 -35.31,-6.383 -35.31,-14.258 m 69.832,0.024 c 0,19.281 -15.629,34.918 -34.905,34.918 -19.282,0 -34.92,-15.637 -34.92,-34.918 0,-19.278 15.638,-34.907 34.92,-34.907 19.276,0 34.905,15.629 34.905,34.907 z"
           style="fill:#ffffff;fill-opacity:1;fill-rule:nonzero;stroke:#000000;stroke-width:2.18866396;stroke-linecap:butt;stroke-linejoin:round;stroke-miterlimit:4;stroke-dasharray:none;stroke-opacity:1"
           id="path3391"
           inkscape:connector-curvature="0" /></g><path
         d="m 121.125,114.191 0.332,0 0.145,0.051 0.425,0 0.047,0.047 0.141,0 0.047,0.047 0.097,0 0.094,0.094 0.047,0 0.141,0.14 0,0.051 0.05,0 0,0.047 0.047,0.047 0,0.093 0.047,0.047 0,0.286 c 0,0.949 -0.805,0.949 -1.66,0.949 l -25.484,0 c -0.805,0 -1.657,0 -1.657,-0.949 0,-0.95 0.852,-0.95 1.657,-0.95 l 25.484,0 z"
         style="fill:#000000;fill-opacity:1;fill-rule:evenodd;stroke:none"
         id="path3393"
         inkscape:connector-curvature="0" /><g
         id="g3395"
         transform="matrix(0.999714,0,0,-1,0,308.00769)"><path
           d="m 233.469,109.211 c 0,7.875 -15.43,14.262 -34.471,14.262 -19.04,0 -35.307,-6.387 -35.307,-14.262 m 69.833,0.027 c 0,19.282 -15.63,34.918 -34.909,34.918 -19.279,0 -34.916,-15.636 -34.916,-34.918 0,-19.277 15.637,-34.906 34.916,-34.906 19.279,0 34.909,15.629 34.909,34.906 z"
           style="fill:#ffffff;fill-opacity:1;fill-rule:nonzero;stroke:#000000;stroke-width:2.18866396;stroke-linecap:butt;stroke-linejoin:round;stroke-miterlimit:4;stroke-dasharray:none;stroke-opacity:1"
           id="path3397"
           inkscape:connector-curvature="0" /></g><path
         d="m 199.465,204.273 12.051,0 c 0.609,0 1.433,0 1.433,0.871 0,0.868 -0.824,0.868 -1.433,0.868 l -12.051,0 0,12.14 c 0,0.61 0,1.434 -0.871,1.434 -0.871,0 -0.871,-0.824 -0.871,-1.434 l 0,-12.14 -12.137,0 c -0.609,0 -1.438,0 -1.438,-0.868 0,-0.871 0.829,-0.871 1.438,-0.871 l 12.137,0 0,-12.136 c 0,-0.61 0,-1.395 0.871,-1.395 0.871,0 0.871,0.785 0.871,1.395 l 0,12.136 z"
         style="fill:#000000;fill-opacity:1;fill-rule:evenodd;stroke:none"
         id="path3399"
         inkscape:connector-curvature="0" /><g
         id="g3401"
         transform="matrix(0.999714,0,0,-1,0,308.00769)"><path
           d="m 233.61,199.281 c 0,7.875 -15.431,14.262 -34.471,14.262 -19.037,0 -35.307,-6.387 -35.307,-14.262 m 69.832,0.028 c 0,19.277 -15.629,34.914 -34.908,34.914 -19.279,0 -34.916,-15.637 -34.916,-34.914 0,-19.278 15.637,-34.911 34.916,-34.911 19.279,0 34.908,15.633 34.908,34.911 z"
           style="fill:#ffffff;fill-opacity:1;fill-rule:nonzero;stroke:#000000;stroke-width:2.18866396;stroke-linecap:butt;stroke-linejoin:round;stroke-miterlimit:4;stroke-dasharray:none;stroke-opacity:1"
           id="path3403"
           inkscape:connector-curvature="0" /></g><path
         d="m 211.434,114.148 0.332,0 0.14,0.047 0.426,0 0.047,0.047 0.144,0 0.047,0.047 0.094,0 0.047,0.051 0.047,0.047 0.051,0 0.14,0.14 0,0.047 0.047,0 0,0.047 0.047,0.047 0,0.098 0.047,0.046 0,0.286 c 0,0.945 -0.805,0.945 -1.656,0.945 l -25.485,0 c -0.804,0 -1.656,0 -1.656,-0.945 0,-0.95 0.852,-0.95 1.656,-0.95 l 25.485,0 z"
         style="fill:#000000;fill-opacity:1;fill-rule:evenodd;stroke:none"
         id="path3405"
         inkscape:connector-curvature="0" /><path
         d="m 256.176,198.094 0,0.578 -0.071,0.144 0,0.219 -0.074,0.145 -0.07,0.218 -0.074,0.145 -0.071,0.219 -0.074,0.144 -0.07,0.145 -0.149,0.144 -0.07,0.145 -0.289,0.289 -0.074,0.144 -0.145,0.145 -0.144,0.074 -0.289,0.289 -0.145,0.074 -0.144,0.071 -0.219,0.074 -0.145,0.07 -0.144,0.074 -0.219,0.071 -0.144,0.074 -0.219,0.07 -0.36,0 -0.218,0.074 -0.219,0 c -2.027,0 -3.766,-1.738 -3.766,-3.839 0,-2.102 1.739,-3.84 3.766,-3.84 2.102,0 3.84,1.738 3.84,3.84 z"
         style="fill:#000000;fill-opacity:1;fill-rule:evenodd;stroke:none"
         id="path3407"
         inkscape:connector-curvature="0" /><path
         d="m 292.344,198.094 -0.071,0.144 0,0.434 -0.074,0.144 0,0.219 -0.074,0.145 -0.07,0.218 -0.075,0.145 -0.07,0.219 -0.074,0.144 -0.07,0.145 -0.145,0.144 -0.074,0.145 -0.145,0.144 -0.074,0.145 -0.289,0.289 -0.144,0.074 -0.29,0.289 -0.144,0.074 -0.145,0.071 -0.218,0.074 -0.145,0.07 -0.144,0.074 -0.219,0.071 -0.145,0.074 -0.215,0.07 -0.363,0 -0.219,0.074 -0.144,0 c -2.102,0 -3.84,-1.738 -3.84,-3.839 0,-2.102 1.738,-3.84 3.84,-3.84 2.101,0 3.84,1.738 3.84,3.84 z"
         style="fill:#000000;fill-opacity:1;fill-rule:evenodd;stroke:none"
         id="path3409"
         inkscape:connector-curvature="0" /><path
         d="m 328.367,198.094 0,0.363 -0.074,0.215 0,0.144 -0.07,0.219 0,0.145 -0.075,0.218 -0.07,0.145 -0.074,0.219 -0.074,0.144 -0.145,0.145 -0.07,0.144 -0.145,0.145 -0.074,0.144 -0.289,0.289 -0.074,0.145 -0.145,0.074 -0.289,0.289 -0.219,0.074 -0.144,0.071 -0.145,0.074 -0.144,0.07 -0.215,0.074 -0.148,0.071 -0.215,0.074 -0.145,0.07 -0.363,0 -0.219,0.074 -0.215,0 c -2.101,0 -3.839,-1.738 -3.839,-3.839 0,-2.102 1.738,-3.84 3.839,-3.84 2.102,0 3.84,1.738 3.84,3.84 z"
         style="fill:#000000;fill-opacity:1;fill-rule:evenodd;stroke:none"
         id="path3411"
         inkscape:connector-curvature="0" /><path
         d="m 256.176,108.094 0,0.578 -0.071,0.144 0,0.219 -0.074,0.145 -0.07,0.218 -0.074,0.145 -0.071,0.219 -0.074,0.144 -0.07,0.145 -0.149,0.144 -0.07,0.145 -0.289,0.289 -0.074,0.144 -0.145,0.145 -0.144,0.074 -0.289,0.289 -0.145,0.074 -0.144,0.071 -0.219,0.074 -0.145,0.07 -0.144,0.074 -0.219,0.071 -0.144,0.074 -0.219,0.07 -0.36,0 -0.218,0.074 -0.219,0 c -2.027,0 -3.766,-1.738 -3.766,-3.839 0,-2.102 1.739,-3.84 3.766,-3.84 2.102,0 3.84,1.738 3.84,3.84 z"
         style="fill:#000000;fill-opacity:1;fill-rule:evenodd;stroke:none"
         id="path3413"
         inkscape:connector-curvature="0" /><path
         d="m 292.344,108.094 -0.071,0.144 0,0.434 -0.074,0.144 0,0.219 -0.074,0.145 -0.07,0.218 -0.075,0.145 -0.07,0.219 -0.074,0.144 -0.07,0.145 -0.145,0.144 -0.074,0.145 -0.145,0.144 -0.074,0.145 -0.289,0.289 -0.144,0.074 -0.29,0.289 -0.144,0.074 -0.145,0.071 -0.218,0.074 -0.145,0.07 -0.144,0.074 -0.219,0.071 -0.145,0.074 -0.215,0.07 -0.363,0 -0.219,0.074 -0.144,0 c -2.102,0 -3.84,-1.738 -3.84,-3.839 0,-2.102 1.738,-3.84 3.84,-3.84 2.101,0 3.84,1.738 3.84,3.84 z"
         style="fill:#000000;fill-opacity:1;fill-rule:evenodd;stroke:none"
         id="path3415"
         inkscape:connector-curvature="0" /><path
         d="m 328.367,108.094 0,0.363 -0.074,0.215 0,0.144 -0.07,0.219 0,0.145 -0.075,0.218 -0.07,0.145 -0.074,0.219 -0.074,0.144 -0.145,0.145 -0.07,0.144 -0.145,0.145 -0.074,0.144 -0.289,0.289 -0.074,0.145 -0.145,0.074 -0.289,0.289 -0.219,0.074 -0.144,0.071 -0.145,0.074 -0.144,0.07 -0.215,0.074 -0.148,0.071 -0.215,0.074 -0.145,0.07 -0.363,0 -0.219,0.074 -0.215,0 c -2.101,0 -3.839,-1.738 -3.839,-3.839 0,-2.102 1.738,-3.84 3.839,-3.84 2.102,0 3.84,1.738 3.84,3.84 z"
         style="fill:#000000;fill-opacity:1;fill-rule:evenodd;stroke:none"
         id="path3417"
         inkscape:connector-curvature="0" /><g
         id="g3419"
         transform="matrix(0.999714,0,0,-1,0,308.00769)"><path
           d="m 413.645,199.246 c 0,7.875 -15.43,14.262 -34.47,14.262 -19.041,0 -35.307,-6.387 -35.307,-14.262 m 69.828,0.027 c 0,19.282 -15.625,34.915 -34.904,34.915 -19.279,0 -34.92,-15.633 -34.92,-34.915 0,-19.277 15.641,-34.906 34.92,-34.906 19.279,0 34.904,15.629 34.904,34.906 z"
           style="fill:#ffffff;fill-opacity:1;fill-rule:nonzero;stroke:#000000;stroke-width:2.18866396;stroke-linecap:butt;stroke-linejoin:round;stroke-miterlimit:4;stroke-dasharray:none;stroke-opacity:1"
           id="path3421"
           inkscape:connector-curvature="0" /></g><path
         d="m 391.418,114.183 0.328,0 0.145,0.047 0.425,0 0.047,0.047 0.141,0 0.051,0.047 0.093,0 0.047,0.047 0.047,0.051 0.047,0 0.094,0.094 0.051,0.046 0,0.047 0.046,0 0,0.047 0.047,0.047 0,0.098 0.047,0.047 0,0.281 c 0,0.949 -0.804,0.949 -1.656,0.949 l -25.484,0 c -0.809,0 -1.661,0 -1.661,-0.949 0,-0.946 0.852,-0.946 1.661,-0.946 l 25.484,0 z"
         style="fill:#000000;fill-opacity:1;fill-rule:evenodd;stroke:none"
         id="path3423"
         inkscape:connector-curvature="0" /><g
         id="g3425"
         transform="matrix(0.999714,0,0,-1,0,308.00769)"><path
           d="m 413.599,109.25 c 0,7.875 -15.431,14.262 -34.471,14.262 -19.041,0 -35.307,-6.387 -35.307,-14.262 m 69.832,0.027 c 0,19.282 -15.629,34.918 -34.908,34.918 -19.279,0 -34.92,-15.636 -34.92,-34.918 0,-19.277 15.641,-34.906 34.92,-34.906 19.279,0 34.908,15.629 34.908,34.906 z"
           style="fill:#ffffff;fill-opacity:1;fill-rule:nonzero;stroke:#000000;stroke-width:2.18866396;stroke-linecap:butt;stroke-linejoin:round;stroke-miterlimit:4;stroke-dasharray:none;stroke-opacity:1"
           id="path3427"
           inkscape:connector-curvature="0" /></g><path
         d="m 379.543,204.234 12.051,0 c 0.605,0 1.433,0 1.433,0.871 0,0.868 -0.828,0.868 -1.433,0.868 l -12.051,0 0,12.14 c 0,0.61 0,1.434 -0.871,1.434 -0.871,0 -0.871,-0.824 -0.871,-1.434 l 0,-12.14 -12.137,0 c -0.609,0 -1.437,0 -1.437,-0.868 0,-0.871 0.828,-0.871 1.437,-0.871 l 12.137,0 0,-12.136 c 0,-0.61 0,-1.395 0.871,-1.395 0.871,0 0.871,0.785 0.871,1.395 l 0,12.136 z"
         style="fill:#000000;fill-opacity:1;fill-rule:evenodd;stroke:none"
         id="path3429"
         inkscape:connector-curvature="0" /><g
         id="g3431"
         transform="matrix(0.999714,0,0,-1,0,308.00769)"><path
           d="m 522.477,198.973 c 0,7.871 -15.43,14.257 -34.47,14.257 -19.041,0 -35.307,-6.386 -35.307,-14.257 m 69.828,0.023 c 0,19.281 -15.629,34.918 -34.904,34.918 -19.283,0 -34.921,-15.637 -34.921,-34.918 0,-19.277 15.638,-34.906 34.921,-34.906 19.275,0 34.904,15.629 34.904,34.906 z"
           style="fill:#ffffff;fill-opacity:1;fill-rule:nonzero;stroke:#000000;stroke-width:2.18866396;stroke-linecap:butt;stroke-linejoin:round;stroke-miterlimit:4;stroke-dasharray:none;stroke-opacity:1"
           id="path3433"
           inkscape:connector-curvature="0" /></g><path
         d="m 500.215,114.461 0.332,0 0.144,0.047 0.426,0 0.047,0.047 0.141,0 0.047,0.046 0.097,0 0.094,0.094 0.047,0 0.094,0.094 0.046,0.051 0,0.047 0.051,0 0,0.046 0.047,0.047 0,0.094 0.047,0.047 0,0.285 c 0,0.949 -0.805,0.949 -1.66,0.949 l -25.485,0 c -0.804,0 -1.656,0 -1.656,-0.949 0,-0.945 0.852,-0.945 1.656,-0.945 l 25.485,0 z"
         style="fill:#000000;fill-opacity:1;fill-rule:evenodd;stroke:none"
         id="path3435"
         inkscape:connector-curvature="0" /><g
         id="g3437"
         transform="matrix(0.999714,0,0,-1,0,308.00769)"><path
           d="m 522.43,108.977 c 0,7.875 -15.43,14.261 -34.47,14.261 -19.041,0 -35.307,-6.386 -35.307,-14.261 M 522.481,109 c 0,19.281 -15.629,34.918 -34.904,34.918 -19.283,0 -34.92,-15.637 -34.92,-34.918 0,-19.277 15.637,-34.906 34.92,-34.906 19.275,0 34.904,15.629 34.904,34.906 z"
           style="fill:#ffffff;fill-opacity:1;fill-rule:nonzero;stroke:#000000;stroke-width:2.18866396;stroke-linecap:butt;stroke-linejoin:round;stroke-miterlimit:4;stroke-dasharray:none;stroke-opacity:1"
           id="path3439"
           inkscape:connector-curvature="0" /></g><path
         d="m 488.34,204.508 12.051,0 c 0.609,0 1.437,0 1.437,0.871 0,0.871 -0.828,0.871 -1.437,0.871 l -12.051,0 0,12.137 c 0,0.609 0,1.437 -0.867,1.437 -0.871,0 -0.871,-0.828 -0.871,-1.437 l 0,-12.137 -12.137,0 c -0.61,0 -1.438,0 -1.438,-0.871 0,-0.871 0.828,-0.871 1.438,-0.871 l 12.137,0 0,-12.137 c 0,-0.609 0,-1.391 0.871,-1.391 0.867,0 0.867,0.782 0.867,1.391 l 0,12.137 z"
         style="fill:#000000;fill-opacity:1;fill-rule:evenodd;stroke:none"
         id="path3441"
         inkscape:connector-curvature="0" /><g
         id="g3443"
         transform="matrix(0.999714,0,0,-1,0,308.00769)"><path
           d="m 737.55,198.973 c 0,7.871 -15.43,14.257 -34.47,14.257 -19.041,0 -35.307,-6.386 -35.307,-14.257 m 69.828,0.023 c 0,19.281 -15.629,34.918 -34.904,34.918 -19.283,0 -34.92,-15.637 -34.92,-34.918 0,-19.277 15.637,-34.906 34.92,-34.906 19.275,0 34.904,15.629 34.904,34.906 z"
           style="fill:#ffffff;fill-opacity:1;fill-rule:nonzero;stroke:#000000;stroke-width:2.18866396;stroke-linecap:butt;stroke-linejoin:round;stroke-miterlimit:4;stroke-dasharray:none;stroke-opacity:1"
           id="path3445"
           inkscape:connector-curvature="0" /></g><path
         d="m 715.227,114.461 0.332,0 0.144,0.047 0.426,0 0.047,0.047 0.14,0 0.051,0.046 0.094,0 0.094,0.094 0.047,0 0.144,0.145 0,0.047 0.047,0 0,0.046 0.047,0.047 0,0.094 0.047,0.047 0,0.285 c 0,0.949 -0.805,0.949 -1.66,0.949 l -25.481,0 c -0.808,0 -1.66,0 -1.66,-0.949 0,-0.945 0.852,-0.945 1.66,-0.945 l 25.481,0 z"
         style="fill:#000000;fill-opacity:1;fill-rule:evenodd;stroke:none"
         id="path3447"
         inkscape:connector-curvature="0" /><g
         id="g3449"
         transform="matrix(0.999714,0,0,-1,0,308.00769)"><path
           d="m 737.504,108.977 c 0,7.875 -15.431,14.261 -34.471,14.261 -19.041,0 -35.307,-6.386 -35.307,-14.261 M 737.554,109 c 0,19.281 -15.625,34.918 -34.904,34.918 -19.279,0 -34.92,-15.637 -34.92,-34.918 0,-19.277 15.641,-34.906 34.92,-34.906 19.279,0 34.904,15.629 34.904,34.906 z"
           style="fill:#ffffff;fill-opacity:1;fill-rule:nonzero;stroke:#000000;stroke-width:2.18866396;stroke-linecap:butt;stroke-linejoin:round;stroke-miterlimit:4;stroke-dasharray:none;stroke-opacity:1"
           id="path3451"
           inkscape:connector-curvature="0" /></g><path
         d="m 703.352,204.508 12.05,0 c 0.61,0 1.438,0 1.438,0.871 0,0.871 -0.828,0.871 -1.438,0.871 l -12.05,0 0,12.137 c 0,0.609 0,1.437 -0.868,1.437 -0.871,0 -0.871,-0.828 -0.871,-1.437 l 0,-12.137 -12.136,0 c -0.61,0 -1.438,0 -1.438,-0.871 0,-0.871 0.828,-0.871 1.438,-0.871 l 12.136,0 0,-12.137 c 0,-0.609 0,-1.391 0.871,-1.391 0.868,0 0.868,0.782 0.868,1.391 l 0,12.137 z"
         style="fill:#000000;fill-opacity:1;fill-rule:evenodd;stroke:none"
         id="path3453"
         inkscape:connector-curvature="0" /><g
         id="g3455"
         transform="matrix(0.999714,0,0,-1,0,308.00769)"><path
           d="m 845.37,198.973 c 0,7.871 -15.43,14.257 -34.474,14.257 -19.037,0 -35.307,-6.386 -35.307,-14.257 m 69.832,0.023 c 0,19.281 -15.629,34.918 -34.908,34.918 -19.279,0 -34.917,-15.637 -34.917,-34.918 0,-19.277 15.638,-34.906 34.917,-34.906 19.279,0 34.908,15.629 34.908,34.906 z"
           style="fill:#ffffff;fill-opacity:1;fill-rule:nonzero;stroke:#000000;stroke-width:2.18866396;stroke-linecap:butt;stroke-linejoin:round;stroke-miterlimit:4;stroke-dasharray:none;stroke-opacity:1"
           id="path3457"
           inkscape:connector-curvature="0" /></g><path
         d="m 823.016,114.461 0.332,0 0.14,0.047 0.43,0 0.047,0.047 0.14,0 0.047,0.046 0.094,0 0.051,0.047 0.047,0.047 0.047,0 0.093,0.094 0.047,0.051 0,0.047 0.047,0 0,0.046 0.047,0.047 0,0.094 0.051,0.047 0,0.285 c 0,0.949 -0.809,0.949 -1.66,0.949 l -25.485,0 c -0.804,0 -1.656,0 -1.656,-0.949 0,-0.945 0.852,-0.945 1.656,-0.945 l 25.485,0 z"
         style="fill:#000000;fill-opacity:1;fill-rule:evenodd;stroke:none"
         id="path3459"
         inkscape:connector-curvature="0" /><g
         id="g3461"
         transform="matrix(0.999714,0,0,-1,0,308.00769)"><path
           d="m 845.323,108.977 c 0,7.875 -15.43,14.261 -34.47,14.261 -19.041,0 -35.311,-6.386 -35.311,-14.261 M 845.374,109 c 0,19.281 -15.629,34.918 -34.904,34.918 -19.283,0 -34.92,-15.637 -34.92,-34.918 0,-19.277 15.637,-34.906 34.92,-34.906 19.275,0 34.904,15.629 34.904,34.906 z"
           style="fill:#ffffff;fill-opacity:1;fill-rule:nonzero;stroke:#000000;stroke-width:2.18866396;stroke-linecap:butt;stroke-linejoin:round;stroke-miterlimit:4;stroke-dasharray:none;stroke-opacity:1"
           id="path3463"
           inkscape:connector-curvature="0" /></g><path
         d="m 811.141,204.508 12.05,0 c 0.61,0 1.438,0 1.438,0.871 0,0.871 -0.828,0.871 -1.438,0.871 l -12.05,0 0,12.137 c 0,0.609 0,1.437 -0.871,1.437 -0.868,0 -0.868,-0.828 -0.868,-1.437 l 0,-12.137 -12.14,0 c -0.61,0 -1.434,0 -1.434,-0.871 0,-0.871 0.824,-0.871 1.434,-0.871 l 12.14,0 0,-12.137 c 0,-0.609 0,-1.391 0.868,-1.391 0.871,0 0.871,0.782 0.871,1.391 l 0,12.137 z"
         style="fill:#000000;fill-opacity:1;fill-rule:evenodd;stroke:none"
         id="path3465"
         inkscape:connector-curvature="0" /><path
         d="m 563.379,199.004 0,0.578 -0.074,0.144 0,0.219 -0.075,0.145 -0.07,0.218 -0.074,0.145 -0.07,0.219 -0.075,0.144 -0.07,0.145 -0.144,0.144 -0.075,0.145 -0.289,0.289 -0.074,0.144 -0.144,0.145 -0.145,0.074 -0.289,0.289 -0.145,0.075 -0.144,0.07 -0.219,0.074 -0.144,0.07 -0.145,0.075 -0.219,0.07 -0.144,0.074 -0.215,0.07 -0.363,0 -0.219,0.075 -0.215,0 c -2.031,0 -3.769,-1.739 -3.769,-3.84 0,-2.102 1.738,-3.84 3.769,-3.84 2.098,0 3.84,1.738 3.84,3.84 z"
         style="fill:#000000;fill-opacity:1;fill-rule:evenodd;stroke:none"
         id="path3467"
         inkscape:connector-curvature="0" /><path
         d="m 599.543,199.004 -0.07,0.144 0,0.434 -0.075,0.144 0,0.219 -0.07,0.145 -0.074,0.218 -0.07,0.145 -0.075,0.219 -0.074,0.144 -0.07,0.145 -0.145,0.144 -0.074,0.145 -0.144,0.144 -0.071,0.145 -0.144,0.144 -0.149,0.145 -0.144,0.074 -0.289,0.289 -0.145,0.075 -0.144,0.07 -0.219,0.074 -0.145,0.07 -0.144,0.075 -0.215,0.07 -0.148,0.074 -0.215,0.07 -0.364,0 -0.218,0.075 -0.145,0 c -2.101,0 -3.84,-1.739 -3.84,-3.84 0,-2.102 1.739,-3.84 3.84,-3.84 2.102,0 3.84,1.738 3.84,3.84 z"
         style="fill:#000000;fill-opacity:1;fill-rule:evenodd;stroke:none"
         id="path3469"
         inkscape:connector-curvature="0" /><path
         d="m 635.566,199.004 0,0.363 -0.074,0.215 0,0.144 -0.07,0.219 0,0.145 -0.074,0.218 -0.071,0.145 -0.074,0.219 -0.07,0.144 -0.145,0.145 -0.074,0.144 -0.144,0.145 -0.075,0.144 -0.289,0.289 -0.07,0.145 -0.148,0.074 -0.29,0.289 -0.214,0.075 -0.145,0.07 -0.148,0.074 -0.145,0.07 -0.215,0.075 -0.144,0.07 -0.219,0.074 -0.145,0.07 -0.363,0 -0.215,0.075 -0.218,0 c -2.102,0 -3.84,-1.739 -3.84,-3.84 0,-2.102 1.738,-3.84 3.84,-3.84 2.101,0 3.839,1.738 3.839,3.84 z"
         style="fill:#000000;fill-opacity:1;fill-rule:evenodd;stroke:none"
         id="path3471"
         inkscape:connector-curvature="0" /><path
         d="m 563.379,109.004 0,0.578 -0.074,0.144 0,0.219 -0.075,0.145 -0.07,0.218 -0.074,0.145 -0.07,0.219 -0.075,0.144 -0.07,0.145 -0.144,0.144 -0.075,0.145 -0.289,0.289 -0.074,0.144 -0.144,0.145 -0.145,0.074 -0.289,0.289 -0.145,0.075 -0.144,0.07 -0.219,0.074 -0.144,0.07 -0.145,0.075 -0.219,0.07 -0.144,0.074 -0.215,0.07 -0.363,0 -0.219,0.075 -0.215,0 c -2.031,0 -3.769,-1.739 -3.769,-3.84 0,-2.102 1.738,-3.84 3.769,-3.84 2.098,0 3.84,1.738 3.84,3.84 z"
         style="fill:#000000;fill-opacity:1;fill-rule:evenodd;stroke:none"
         id="path3473"
         inkscape:connector-curvature="0" /><path
         d="m 599.543,109.004 -0.07,0.144 0,0.434 -0.075,0.144 0,0.219 -0.07,0.145 -0.074,0.218 -0.07,0.145 -0.075,0.219 -0.074,0.144 -0.07,0.145 -0.145,0.144 -0.074,0.145 -0.144,0.144 -0.071,0.145 -0.144,0.144 -0.149,0.145 -0.144,0.074 -0.289,0.289 -0.145,0.075 -0.144,0.07 -0.219,0.074 -0.145,0.07 -0.144,0.075 -0.215,0.07 -0.148,0.074 -0.215,0.07 -0.364,0 -0.218,0.075 -0.145,0 c -2.101,0 -3.84,-1.739 -3.84,-3.84 0,-2.102 1.739,-3.84 3.84,-3.84 2.102,0 3.84,1.738 3.84,3.84 z"
         style="fill:#000000;fill-opacity:1;fill-rule:evenodd;stroke:none"
         id="path3475"
         inkscape:connector-curvature="0" /><path
         d="m 635.566,109.004 0,0.363 -0.074,0.215 0,0.144 -0.07,0.219 0,0.145 -0.074,0.218 -0.071,0.145 -0.074,0.219 -0.07,0.144 -0.145,0.145 -0.074,0.144 -0.144,0.145 -0.075,0.144 -0.289,0.289 -0.07,0.145 -0.148,0.074 -0.29,0.289 -0.214,0.075 -0.145,0.07 -0.148,0.074 -0.145,0.07 -0.215,0.075 -0.144,0.07 -0.219,0.074 -0.145,0.07 -0.363,0 -0.215,0.075 -0.218,0 c -2.102,0 -3.84,-1.739 -3.84,-3.84 0,-2.102 1.738,-3.84 3.84,-3.84 2.101,0 3.839,1.738 3.839,3.84 z"
         style="fill:#000000;fill-opacity:1;fill-rule:evenodd;stroke:none"
         id="path3477"
         inkscape:connector-curvature="0" /><g
         id="g3479"
         transform="matrix(1,0,0,-1,0,308.00769)"><path
           d="m 1242.258,197.805 -0.086,-88.09 c 0.086,-29.336 -24.09,-53.512 -53.914,-53.512 l -269.199,0 c -29.825,0 -54,24.176 -54,54 l 0,87.602 c 0,29.824 24.175,54 54,54 l 269.199,0 c 29.824,0 54,-24.176 54,-54 z"
           style="fill:#ff9900;fill-opacity:1;fill-rule:nonzero;stroke:#000000;stroke-width:1.94400001;stroke-linecap:butt;stroke-linejoin:round;stroke-miterlimit:4;stroke-dasharray:none;stroke-opacity:1"
           id="path3481"
           inkscape:connector-curvature="0" /></g><g
         id="g3483"
         transform="matrix(0.999714,0,0,-1,0,308.00769)"><path
           d="m 953.217,109.195 c 0,7.875 -15.43,14.262 -34.47,14.262 -19.041,0 -35.311,-6.387 -35.311,-14.262 m 69.832,0.024 c 0,19.281 -15.629,34.918 -34.904,34.918 -19.283,0 -34.92,-15.637 -34.92,-34.918 0,-19.278 15.637,-34.907 34.92,-34.907 19.275,0 34.904,15.629 34.904,34.907 z"
           style="fill:#ffffff;fill-opacity:1;fill-rule:nonzero;stroke:#000000;stroke-width:2.18866396;stroke-linecap:butt;stroke-linejoin:round;stroke-miterlimit:4;stroke-dasharray:none;stroke-opacity:1"
           id="path3485"
           inkscape:connector-curvature="0" /></g><path
         d="m 919.004,204.293 12.051,0 c 0.609,0 1.437,0 1.437,0.867 0,0.871 -0.828,0.871 -1.437,0.871 l -12.051,0 0,12.137 c 0,0.609 0,1.437 -0.867,1.437 -0.871,0 -0.871,-0.828 -0.871,-1.437 l 0,-12.137 -12.137,0 c -0.609,0 -1.438,0 -1.438,-0.871 0,-0.867 0.829,-0.867 1.438,-0.867 l 12.137,0 0,-12.141 c 0,-0.609 0,-1.39 0.871,-1.39 0.867,0 0.867,0.781 0.867,1.39 l 0,12.141 z"
         style="fill:#000000;fill-opacity:1;fill-rule:evenodd;stroke:none"
         id="path3487"
         inkscape:connector-curvature="0" /><g
         id="g3489"
         transform="matrix(0.999714,0,0,-1,0,308.00769)"><path
           d="m 953.01,199.238 c 0,7.875 -15.43,14.258 -34.47,14.258 -19.041,0 -35.307,-6.383 -35.307,-14.258 m 69.828,0.024 c 0,19.281 -15.629,34.918 -34.904,34.918 -19.283,0 -34.92,-15.637 -34.92,-34.918 0,-19.278 15.637,-34.907 34.92,-34.907 19.275,0 34.904,15.629 34.904,34.907 z"
           style="fill:#ffffff;fill-opacity:1;fill-rule:nonzero;stroke:#000000;stroke-width:2.18866396;stroke-linecap:butt;stroke-linejoin:round;stroke-miterlimit:4;stroke-dasharray:none;stroke-opacity:1"
           id="path3491"
           inkscape:connector-curvature="0" /></g><path
         d="m 930.625,114.191 0.332,0 0.145,0.051 0.425,0 0.047,0.047 0.141,0 0.047,0.047 0.097,0 0.094,0.094 0.047,0 0.141,0.14 0,0.051 0.05,0 0,0.047 0.047,0.047 0,0.093 0.047,0.047 0,0.286 c 0,0.949 -0.805,0.949 -1.66,0.949 l -25.484,0 c -0.805,0 -1.657,0 -1.657,-0.949 0,-0.95 0.852,-0.95 1.657,-0.95 l 25.484,0 z"
         style="fill:#000000;fill-opacity:1;fill-rule:evenodd;stroke:none"
         id="path3493"
         inkscape:connector-curvature="0" /><g
         id="g3495"
         transform="matrix(0.999714,0,0,-1,0,308.00769)"><path
           d="m 1043.2,109.211 c 0,7.875 -15.43,14.262 -34.471,14.262 -19.04,0 -35.307,-6.387 -35.307,-14.262 m 69.833,0.027 c 0,19.282 -15.63,34.918 -34.909,34.918 -19.278,0 -34.916,-15.636 -34.916,-34.918 0,-19.277 15.638,-34.906 34.916,-34.906 19.279,0 34.909,15.629 34.909,34.906 z"
           style="fill:#ffffff;fill-opacity:1;fill-rule:nonzero;stroke:#000000;stroke-width:2.18866396;stroke-linecap:butt;stroke-linejoin:round;stroke-miterlimit:4;stroke-dasharray:none;stroke-opacity:1"
           id="path3497"
           inkscape:connector-curvature="0" /></g><path
         d="m 1008.965,204.273 12.051,0 c 0.609,0 1.433,0 1.433,0.871 0,0.868 -0.824,0.868 -1.433,0.868 l -12.051,0 0,12.14 c 0,0.61 0,1.434 -0.871,1.434 -0.871,0 -0.871,-0.824 -0.871,-1.434 l 0,-12.14 -12.137,0 c -0.609,0 -1.438,0 -1.438,-0.868 0,-0.871 0.829,-0.871 1.438,-0.871 l 12.137,0 0,-12.136 c 0,-0.61 0,-1.395 0.871,-1.395 0.871,0 0.871,0.785 0.871,1.395 l 0,12.136 z"
         style="fill:#000000;fill-opacity:1;fill-rule:evenodd;stroke:none"
         id="path3499"
         inkscape:connector-curvature="0" /><g
         id="g3501"
         transform="matrix(0.999714,0,0,-1,0,308.00769)"><path
           d="m 1043.341,199.281 c 0,7.875 -15.43,14.262 -34.471,14.262 -19.037,0 -35.307,-6.387 -35.307,-14.262 m 69.833,0.028 c 0,19.277 -15.63,34.914 -34.909,34.914 -19.279,0 -34.916,-15.637 -34.916,-34.914 0,-19.278 15.637,-34.911 34.916,-34.911 19.279,0 34.909,15.633 34.909,34.911 z"
           style="fill:#ffffff;fill-opacity:1;fill-rule:nonzero;stroke:#000000;stroke-width:2.18866396;stroke-linecap:butt;stroke-linejoin:round;stroke-miterlimit:4;stroke-dasharray:none;stroke-opacity:1"
           id="path3503"
           inkscape:connector-curvature="0" /></g><path
         d="m 1020.934,114.148 0.332,0 0.14,0.047 0.426,0 0.051,0.047 0.14,0 0.047,0.047 0.094,0 0.047,0.051 0.051,0.047 0.047,0 0.14,0.14 0,0.047 0.047,0 0,0.047 0.047,0.047 0,0.098 0.047,0.046 0,0.286 c 0,0.945 -0.805,0.945 -1.656,0.945 l -25.485,0 c -0.804,0 -1.656,0 -1.656,-0.945 0,-0.95 0.852,-0.95 1.656,-0.95 l 25.485,0 z"
         style="fill:#000000;fill-opacity:1;fill-rule:evenodd;stroke:none"
         id="path3505"
         inkscape:connector-curvature="0" /><path
         d="m 1065.676,198.094 0,0.578 -0.071,0.144 0,0.219 -0.074,0.145 -0.07,0.218 -0.074,0.145 -0.071,0.219 -0.074,0.144 -0.07,0.145 -0.149,0.144 -0.07,0.145 -0.289,0.289 -0.074,0.144 -0.145,0.145 -0.144,0.074 -0.289,0.289 -0.145,0.074 -0.144,0.071 -0.219,0.074 -0.145,0.07 -0.144,0.074 -0.219,0.071 -0.144,0.074 -0.219,0.07 -0.36,0 -0.218,0.074 -0.219,0 c -2.027,0 -3.766,-1.738 -3.766,-3.839 0,-2.102 1.739,-3.84 3.766,-3.84 2.102,0 3.84,1.738 3.84,3.84 z"
         style="fill:#000000;fill-opacity:1;fill-rule:evenodd;stroke:none"
         id="path3507"
         inkscape:connector-curvature="0" /><path
         d="m 1101.844,198.094 -0.071,0.144 0,0.434 -0.074,0.144 0,0.219 -0.074,0.145 -0.07,0.218 -0.075,0.145 -0.07,0.219 -0.074,0.144 -0.07,0.145 -0.145,0.144 -0.074,0.145 -0.145,0.144 -0.074,0.145 -0.289,0.289 -0.144,0.074 -0.29,0.289 -0.144,0.074 -0.145,0.071 -0.218,0.074 -0.145,0.07 -0.144,0.074 -0.219,0.071 -0.145,0.074 -0.215,0.07 -0.363,0 -0.219,0.074 -0.144,0 c -2.102,0 -3.84,-1.738 -3.84,-3.839 0,-2.102 1.738,-3.84 3.84,-3.84 2.101,0 3.84,1.738 3.84,3.84 z"
         style="fill:#000000;fill-opacity:1;fill-rule:evenodd;stroke:none"
         id="path3509"
         inkscape:connector-curvature="0" /><path
         d="m 1137.867,198.094 0,0.363 -0.074,0.215 0,0.144 -0.07,0.219 0,0.145 -0.075,0.218 -0.07,0.145 -0.074,0.219 -0.074,0.144 -0.145,0.145 -0.07,0.144 -0.145,0.145 -0.074,0.144 -0.289,0.289 -0.074,0.145 -0.145,0.074 -0.289,0.289 -0.219,0.074 -0.144,0.071 -0.145,0.074 -0.144,0.07 -0.215,0.074 -0.148,0.071 -0.215,0.074 -0.145,0.07 -0.363,0 -0.219,0.074 -0.215,0 c -2.101,0 -3.839,-1.738 -3.839,-3.839 0,-2.102 1.738,-3.84 3.839,-3.84 2.102,0 3.84,1.738 3.84,3.84 z"
         style="fill:#000000;fill-opacity:1;fill-rule:evenodd;stroke:none"
         id="path3511"
         inkscape:connector-curvature="0" /><path
         d="m 1065.676,108.094 0,0.578 -0.071,0.144 0,0.219 -0.074,0.145 -0.07,0.218 -0.074,0.145 -0.071,0.219 -0.074,0.144 -0.07,0.145 -0.149,0.144 -0.07,0.145 -0.289,0.289 -0.074,0.144 -0.145,0.145 -0.144,0.074 -0.289,0.289 -0.145,0.074 -0.144,0.071 -0.219,0.074 -0.145,0.07 -0.144,0.074 -0.219,0.071 -0.144,0.074 -0.219,0.07 -0.36,0 -0.218,0.074 -0.219,0 c -2.027,0 -3.766,-1.738 -3.766,-3.839 0,-2.102 1.739,-3.84 3.766,-3.84 2.102,0 3.84,1.738 3.84,3.84 z"
         style="fill:#000000;fill-opacity:1;fill-rule:evenodd;stroke:none"
         id="path3513"
         inkscape:connector-curvature="0" /><path
         d="m 1101.844,108.094 -0.071,0.144 0,0.434 -0.074,0.144 0,0.219 -0.074,0.145 -0.07,0.218 -0.075,0.145 -0.07,0.219 -0.074,0.144 -0.07,0.145 -0.145,0.144 -0.074,0.145 -0.145,0.144 -0.074,0.145 -0.289,0.289 -0.144,0.074 -0.29,0.289 -0.144,0.074 -0.145,0.071 -0.218,0.074 -0.145,0.07 -0.144,0.074 -0.219,0.071 -0.145,0.074 -0.215,0.07 -0.363,0 -0.219,0.074 -0.144,0 c -2.102,0 -3.84,-1.738 -3.84,-3.839 0,-2.102 1.738,-3.84 3.84,-3.84 2.101,0 3.84,1.738 3.84,3.84 z"
         style="fill:#000000;fill-opacity:1;fill-rule:evenodd;stroke:none"
         id="path3515"
         inkscape:connector-curvature="0" /><path
         d="m 1137.867,108.094 0,0.363 -0.074,0.215 0,0.144 -0.07,0.219 0,0.145 -0.075,0.218 -0.07,0.145 -0.074,0.219 -0.074,0.144 -0.145,0.145 -0.07,0.144 -0.145,0.145 -0.074,0.144 -0.289,0.289 -0.074,0.145 -0.145,0.074 -0.289,0.289 -0.219,0.074 -0.144,0.071 -0.145,0.074 -0.144,0.07 -0.215,0.074 -0.148,0.071 -0.215,0.074 -0.145,0.07 -0.363,0 -0.219,0.074 -0.215,0 c -2.101,0 -3.839,-1.738 -3.839,-3.839 0,-2.102 1.738,-3.84 3.839,-3.84 2.102,0 3.84,1.738 3.84,3.84 z"
         style="fill:#000000;fill-opacity:1;fill-rule:evenodd;stroke:none"
         id="path3517"
         inkscape:connector-curvature="0" /><g
         id="g3519"
         transform="matrix(0.999714,0,0,-1,0,308.00769)"><path
           d="m 1223.377,199.246 c 0,7.875 -15.431,14.262 -34.471,14.262 -19.041,0 -35.307,-6.387 -35.307,-14.262 m 69.832,0.027 c 0,19.282 -15.629,34.915 -34.908,34.915 -19.279,0 -34.92,-15.633 -34.92,-34.915 0,-19.277 15.641,-34.906 34.92,-34.906 19.279,0 34.908,15.629 34.908,34.906 z"
           style="fill:#ffffff;fill-opacity:1;fill-rule:nonzero;stroke:#000000;stroke-width:2.18866396;stroke-linecap:butt;stroke-linejoin:round;stroke-miterlimit:4;stroke-dasharray:none;stroke-opacity:1"
           id="path3521"
           inkscape:connector-curvature="0" /></g><path
         d="m 1200.918,114.183 0.328,0 0.145,0.047 0.425,0 0.047,0.047 0.141,0 0.051,0.047 0.093,0 0.047,0.047 0.047,0.051 0.047,0 0.047,0.047 0.051,0.047 0.047,0.046 0,0.047 0.046,0 0,0.047 0.047,0.047 0,0.098 0.047,0.047 0,0.281 c 0,0.949 -0.804,0.949 -1.656,0.949 l -25.484,0 c -0.805,0 -1.661,0 -1.661,-0.949 0,-0.946 0.856,-0.946 1.661,-0.946 l 25.484,0 z"
         style="fill:#000000;fill-opacity:1;fill-rule:evenodd;stroke:none"
         id="path3523"
         inkscape:connector-curvature="0" /><g
         id="g3525"
         transform="matrix(0.999714,0,0,-1,0,308.00769)"><path
           d="m 1223.33,109.25 c 0,7.875 -15.43,14.262 -34.471,14.262 -19.041,0 -35.307,-6.387 -35.307,-14.262 m 69.832,0.027 c 0,19.282 -15.629,34.918 -34.908,34.918 -19.279,0 -34.92,-15.636 -34.92,-34.918 0,-19.277 15.641,-34.906 34.92,-34.906 19.279,0 34.908,15.629 34.908,34.906 z"
           style="fill:#ffffff;fill-opacity:1;fill-rule:nonzero;stroke:#000000;stroke-width:2.18866396;stroke-linecap:butt;stroke-linejoin:round;stroke-miterlimit:4;stroke-dasharray:none;stroke-opacity:1"
           id="path3527"
           inkscape:connector-curvature="0" /></g><path
         d="m 1189.043,204.234 12.051,0 c 0.605,0 1.433,0 1.433,0.871 0,0.868 -0.828,0.868 -1.433,0.868 l -12.051,0 0,12.14 c 0,0.61 0,1.434 -0.871,1.434 -0.871,0 -0.871,-0.824 -0.871,-1.434 l 0,-12.14 -12.137,0 c -0.609,0 -1.437,0 -1.437,-0.868 0,-0.871 0.828,-0.871 1.437,-0.871 l 12.137,0 0,-12.136 c 0,-0.61 0,-1.395 0.871,-1.395 0.871,0 0.871,0.785 0.871,1.395 l 0,12.136 z"
         style="fill:#000000;fill-opacity:1;fill-rule:evenodd;stroke:none"
         id="path3529"
         inkscape:connector-curvature="0" /></g></g></svg>