<?xml version="1.0" encoding="UTF-8" standalone="no"?>
<!-- Created with Inkscape (http://www.inkscape.org/) -->

<svg
   xmlns:ns0="http://www.iki.fi/pav/software/textext/"
   xmlns:dc="http://purl.org/dc/elements/1.1/"
   xmlns:cc="http://creativecommons.org/ns#"
   xmlns:rdf="http://www.w3.org/1999/02/22-rdf-syntax-ns#"
   xmlns:svg="http://www.w3.org/2000/svg"
   xmlns="http://www.w3.org/2000/svg"
   xmlns:sodipodi="http://sodipodi.sourceforge.net/DTD/sodipodi-0.dtd"
   xmlns:inkscape="http://www.inkscape.org/namespaces/inkscape"
   inkscape:version="0.91 r13725"
   version="1.1"
   id="svg2"
   viewBox="0 0 879.22283 429.93005"
   height="4.7770004in"
   width="9.7691422in"
   sodipodi:docname="ksharepairgraph0.svg">
  <sodipodi:namedview
     inkscape:window-maximized="1"
     inkscape:window-y="24"
     inkscape:window-x="65"
     inkscape:window-height="1056"
     inkscape:window-width="1855"
     showguides="false"
     objecttolerance="10000"
     showgrid="true"
     inkscape:current-layer="layer1"
     inkscape:document-units="in"
     inkscape:cy="593.77173"
     inkscape:cx="424.4291"
     inkscape:zoom="1"
     inkscape:pageshadow="2"
     inkscape:pageopacity="0.0"
     borderopacity="1.0"
     bordercolor="#666666"
     pagecolor="#ffffff"
     id="base"
     units="in"
     fit-margin-top="0"
     fit-margin-left="0"
     fit-margin-right="0"
     fit-margin-bottom="0">
    <inkscape:grid
       spacingy="22.500001"
       spacingx="22.500002"
       originy="316.08758"
       originx="-942.99214"
       type="xygrid"
       id="grid4666"
       snapvisiblegridlinesonly="true" />
  </sodipodi:namedview>
  <defs
     id="defs4" />
  <metadata
     id="metadata7">
    <rdf:RDF>
      <cc:Work
         rdf:about="">
        <dc:format>image/svg+xml</dc:format>
        <dc:type
           rdf:resource="http://purl.org/dc/dcmitype/StillImage" />
        <dc:title></dc:title>
      </cc:Work>
    </rdf:RDF>
  </metadata>
  <g
     transform="translate(-942.99212,-938.51935)"
     inkscape:label="Layer 1"
     inkscape:groupmode="layer"
     id="layer1">
    <path
       id="path5545-8-0"
       style="opacity:1;fill:#99cc33;fill-opacity:1;stroke:#000000;stroke-width:2.43000007;stroke-linecap:butt;stroke-linejoin:round;stroke-miterlimit:4;stroke-dasharray:none;stroke-dashoffset:0;stroke-opacity:1"
       d="m 1079.2071,1367.2344 c -74.5584,0 -134.99997,-60.4415 -134.99998,-135 l 0,-157.5 c 0,-74.5585 60.44158,-135.00005 134.99998,-135.00005 l 317.0002,0 c 74.5584,1e-5 135,60.44165 135,135.00005 l 0,157.5 c 0,74.5585 -60.4416,135 -135,135 z"
       inkscape:connector-curvature="0"
       sodipodi:nodetypes="cssccsscc" />
    <path
       id="path5498-9-3"
       style="opacity:1;fill:#ff9900;fill-opacity:1;stroke:#000000;stroke-width:2.43000007;stroke-linecap:butt;stroke-linejoin:round;stroke-miterlimit:4;stroke-dasharray:none;stroke-dashoffset:0;stroke-opacity:1"
       d="m 1193.2071,1344.7344 c -62.132,0 -112.5,-50.368 -112.5,-112.5 l 0,-157.5 c 0,-62.132 50.368,-112.50002 112.5,-112.50003 l 359.0002,-10e-6 c 62.132,10e-6 112.5,50.36804 112.5,112.50004 l 0,157.5 c 0,62.132 -50.368,112.5 -112.5,112.5 z"
       inkscape:connector-curvature="0"
       sodipodi:nodetypes="cssccsscc" />
    <path
       id="path5891-2-9"
       style="opacity:1;fill:#ffcc00;fill-opacity:1;stroke:#000000;stroke-width:2.43000007;stroke-linecap:butt;stroke-linejoin:round;stroke-miterlimit:4;stroke-dasharray:none;stroke-dashoffset:0;stroke-opacity:1"
       d="m 1575,1164.8618 c -37.2792,0 -67.5,30.2208 -67.5,67.5 0,49.7056 -40.2944,90 -90,90 l -225,0 c -49.7056,0 -90,-40.2944 -90,-90 l 0,-157.5 c 0,-49.7056 40.2944,-89.99998 90,-89.99998 l 225,-10e-6 c 49.7056,0 90,40.29439 90,89.99999 0,37.2792 30.2208,67.5 67.5,67.5 l 43.5001,0 c 37.2792,0 67.5,-30.2208 67.4999,-67.5 0,-37.2792 30.2208,-67.5 67.5,-67.5 37.2792,0 67.5,30.2208 67.5,67.5 l 0,157.5 c 0,37.2792 -30.2208,67.5 -67.5,67.5 -37.2792,0 -67.5,-30.2208 -67.5,-67.5 10e-5,-37.2792 -30.2207,-67.5 -67.4999,-67.5 z"
       inkscape:connector-curvature="0"
       sodipodi:nodetypes="cssssssssccsssssscc" />
    <path
       id="path4375-2-0"
       style="fill:#6699ff;fill-opacity:1;stroke:#000000;stroke-width:2.43000031;stroke-linecap:butt;stroke-linejoin:round;stroke-miterlimit:4;stroke-dasharray:none;stroke-dashoffset:0;stroke-opacity:1"
       d="m 1484.9209,1075.4344 c 0.108,-36.6657 -30.1127,-66.8865 -67.392,-66.8865 l -222.75,0 c -37.2793,0 -67.5001,30.2208 -67.5001,67.5001 l 0,155.4999 c 0,37.2793 30.2208,67.5 67.5001,67.5 l 222.75,0 c 37.2793,0 67.5,-30.2207 67.5,-67.5 z"
       inkscape:connector-curvature="0"
       sodipodi:nodetypes="cssccsscc" />
    <g
       id="g7284-7-3"
       transform="translate(1170.7824,741.01582)">
      <g
         id="g4160-3-5-0-9"
         transform="matrix(2.7350495,0,0,2.7358306,-256.44154,234.28796)"
         style="fill:#ffffff">
        <path
           d="m 118.277,36.316 c 0,3.598 -7.05,6.516 -15.75,6.516 -8.699,0 -16.132,-2.918 -16.132,-6.516 m 31.906,0.012 c 0,8.809 -7.141,15.953 -15.949,15.953 -8.809,0 -15.954,-7.144 -15.954,-15.953 0,-8.808 7.145,-15.949 15.954,-15.949 8.808,0 15.949,7.141 15.949,15.949 z"
           style="fill:#ffffff;stroke:#000000;stroke-width:1;stroke-linecap:butt;stroke-linejoin:round;stroke-miterlimit:4;stroke-dasharray:none;stroke-opacity:1"
           id="path4162-6-5-93-1"
           inkscape:connector-curvature="0" />
      </g>
      <g
         id="content-90-6-9"
         transform="matrix(5.4380586,0,0,-5.4380586,-806.25367,3913.3039)"
         xml:space="preserve"
         stroke-miterlimit="10.433"
         font-style="normal"
         font-variant="normal"
         font-weight="normal"
         font-stretch="normal"
         font-size-adjust="none"
         letter-spacing="normal"
         word-spacing="normal"
         ns0:text="$+$"
         ns0:preamble="/home/scott/.config/inkscape/extensions/default_packages.tex"
         style="font-style:normal;font-variant:normal;font-weight:normal;font-stretch:normal;letter-spacing:normal;word-spacing:normal;text-anchor:start;fill:#000000;fill-opacity:1;fill-rule:evenodd;stroke:#000000;stroke-linecap:butt;stroke-linejoin:miter;stroke-miterlimit:10.43299961;stroke-dasharray:none;stroke-dashoffset:0;stroke-opacity:1"><path
           inkscape:connector-curvature="0"
           d="m 152.79,659.52 2.77,0 c 0.14,0 0.33,0 0.33,0.2 0,0.2 -0.19,0.2 -0.33,0.2 l -2.77,0 0,2.79 c 0,0.14 0,0.33 -0.2,0.33 -0.2,0 -0.2,-0.19 -0.2,-0.33 l 0,-2.79 -2.79,0 c -0.14,0 -0.33,0 -0.33,-0.2 0,-0.2 0.19,-0.2 0.33,-0.2 l 2.79,0 0,-2.79 c 0,-0.14 0,-0.32 0.2,-0.32 0.2,0 0.2,0.18 0.2,0.32 z"
           font-size-adjust="none"
           font-stretch="normal"
           font-style="normal"
           font-variant="normal"
           font-weight="normal"
           letter-spacing="normal"
           stroke-miterlimit="10.433"
           word-spacing="normal"
           style="font-style:normal;font-variant:normal;font-weight:normal;font-stretch:normal;letter-spacing:normal;word-spacing:normal;text-anchor:start;fill:#000000;fill-opacity:1;fill-rule:evenodd;stroke:#000000;stroke-width:0;stroke-linecap:butt;stroke-linejoin:miter;stroke-miterlimit:10.43299961;stroke-dasharray:none;stroke-dashoffset:0;stroke-opacity:1"
           id="path5765-9-06-6" /></g>    </g>
    <g
       id="g7296-2-9"
       transform="translate(1170.9591,719.60161)">
      <g
         id="g4160-3-5-6-6-3"
         transform="matrix(2.7350495,0,0,2.7358306,-256.44154,414.28798)"
         style="fill:#ffffff">
        <path
           d="m 118.277,36.316 c 0,3.598 -7.05,6.516 -15.75,6.516 -8.699,0 -16.132,-2.918 -16.132,-6.516 m 31.906,0.012 c 0,8.809 -7.141,15.953 -15.949,15.953 -8.809,0 -15.954,-7.144 -15.954,-15.953 0,-8.808 7.145,-15.949 15.954,-15.949 8.808,0 15.949,7.141 15.949,15.949 z"
           style="fill:#ffffff;stroke:#000000;stroke-width:1;stroke-linecap:butt;stroke-linejoin:round;stroke-miterlimit:4;stroke-dasharray:none;stroke-opacity:1"
           id="path4162-6-5-9-1-3"
           inkscape:connector-curvature="0" />
      </g>
      <g
         style="font-style:normal;font-variant:normal;font-weight:normal;font-stretch:normal;letter-spacing:normal;word-spacing:normal;text-anchor:start;fill:#000000;fill-opacity:1;fill-rule:evenodd;stroke:#000000;stroke-linecap:butt;stroke-linejoin:miter;stroke-miterlimit:10.43299961;stroke-dasharray:none;stroke-dashoffset:0;stroke-opacity:1"
         ns0:preamble="/home/scott/.config/inkscape/extensions/default_packages.tex"
         ns0:text="$-$"
         word-spacing="normal"
         letter-spacing="normal"
         font-size-adjust="none"
         font-stretch="normal"
         font-weight="normal"
         font-variant="normal"
         font-style="normal"
         stroke-miterlimit="10.433"
         xml:space="preserve"
         transform="matrix(5.9210364,0,0,-5.9210364,-879.94645,4411.9068)"
         id="g6239-1-8-8"><path
           id="path6241-7-79-0"
           style="font-style:normal;font-variant:normal;font-weight:normal;font-stretch:normal;letter-spacing:normal;word-spacing:normal;text-anchor:start;fill:#000000;fill-opacity:1;fill-rule:evenodd;stroke:#000000;stroke-width:0;stroke-linecap:butt;stroke-linejoin:miter;stroke-miterlimit:10.43299961;stroke-dasharray:none;stroke-dashoffset:0;stroke-opacity:1"
           word-spacing="normal"
           stroke-miterlimit="10.433"
           letter-spacing="normal"
           font-weight="normal"
           font-variant="normal"
           font-style="normal"
           font-stretch="normal"
           font-size-adjust="none"
           d="m 155.27,659.52 0.04,0 0.03,0 0.03,0.01 0.02,0 0.01,0 0.02,0 0.01,0 0.02,0 0.01,0 0.01,0.01 0.02,0 0.01,0 0.01,0.01 0.02,0 0.01,0.01 0.01,0.01 0.01,0 0.01,0.01 0.01,0.01 0.01,0.01 0,0.01 0.01,0 0,0.01 0,0 0.01,0.01 0,0.01 0,0 0,0.01 0.01,0.01 0,0 0,0.01 0,0.01 0,0.01 0,0.01 0,0 0,0.01 0,0.01 c 0,0.2 -0.17,0.2 -0.35,0.2 l -5.38,0 c -0.17,0 -0.35,0 -0.35,-0.2 0,-0.2 0.18,-0.2 0.35,-0.2 z"
           inkscape:connector-curvature="0" /></g>    </g>
    <path
       id="path9622-6-0-5"
       d="m 1266.3019,1074.697 0,-0.1812 0,-0.2716 0,-0.2717 -0.091,-0.1811 0,-0.2717 -0.091,-0.1811 -0.091,-0.2717 -0.091,-0.1811 -0.091,-0.2717 -0.091,-0.1811 -0.091,-0.1812 -0.1811,-0.1811 -0.091,-0.1811 -0.1812,-0.1811 -0.1811,-0.1811 -0.091,-0.1812 -0.1812,-0.1811 -0.1811,-0.091 -0.1811,-0.1811 -0.1811,-0.1811 -0.1811,-0.091 -0.1812,-0.091 -0.2716,-0.091 -0.1812,-0.091 -0.1811,-0.091 -0.2717,-0.091 -0.1811,-0.091 -0.2717,-0.091 -0.2716,0 -0.1812,0 -0.2716,-0.091 -0.2717,0 c -2.5357,0 -4.7092,2.1734 -4.7092,4.7997 0,2.6262 2.1735,4.7997 4.7092,4.7997 2.6262,0 4.7997,-2.1735 4.7997,-4.7997 z"
       inkscape:connector-curvature="0"
       style="font-style:normal;font-variant:normal;font-weight:normal;font-stretch:normal;letter-spacing:normal;word-spacing:normal;text-anchor:start;fill:#000000;fill-opacity:1;fill-rule:evenodd;stroke:#000000;stroke-width:0;stroke-linecap:butt;stroke-linejoin:miter;stroke-miterlimit:10.43299961;stroke-dasharray:none;stroke-dashoffset:0;stroke-opacity:1" />
    <path
       id="path9624-75-2-6"
       d="m 1311.5106,1074.697 -0.091,-0.1812 0,-0.2716 0,-0.2717 -0.091,-0.1811 0,-0.2717 -0.091,-0.1811 -0.091,-0.2717 -0.091,-0.1811 -0.091,-0.2717 -0.091,-0.1811 -0.091,-0.1812 -0.1811,-0.1811 -0.091,-0.1811 -0.1811,-0.1811 -0.091,-0.1811 -0.1811,-0.1812 -0.1811,-0.1811 -0.1811,-0.091 -0.1812,-0.1811 -0.1811,-0.1811 -0.1811,-0.091 -0.1811,-0.091 -0.2717,-0.091 -0.1811,-0.091 -0.1812,-0.091 -0.2716,-0.091 -0.1812,-0.091 -0.2716,-0.091 -0.1812,0 -0.2716,0 -0.2717,-0.091 -0.1811,0 c -2.6263,0 -4.7997,2.1734 -4.7997,4.7997 0,2.6262 2.1734,4.7997 4.7997,4.7997 2.6262,0 4.7997,-2.1735 4.7997,-4.7997 z"
       inkscape:connector-curvature="0"
       style="font-style:normal;font-variant:normal;font-weight:normal;font-stretch:normal;letter-spacing:normal;word-spacing:normal;text-anchor:start;fill:#000000;fill-opacity:1;fill-rule:evenodd;stroke:#000000;stroke-width:0;stroke-linecap:butt;stroke-linejoin:miter;stroke-miterlimit:10.43299961;stroke-dasharray:none;stroke-dashoffset:0;stroke-opacity:1" />
    <path
       id="path9626-3-37-6"
       d="m 1356.5381,1074.697 0,-0.1812 0,-0.2716 -0.091,-0.2717 0,-0.1811 -0.091,-0.2717 0,-0.1811 -0.091,-0.2717 -0.091,-0.1811 -0.091,-0.2717 -0.091,-0.1811 -0.1811,-0.1812 -0.091,-0.1811 -0.1811,-0.1811 -0.091,-0.1811 -0.1811,-0.1811 -0.1812,-0.1812 -0.091,-0.1811 -0.1811,-0.091 -0.1811,-0.1811 -0.1811,-0.1811 -0.2717,-0.091 -0.1811,-0.091 -0.1811,-0.091 -0.1812,-0.091 -0.2716,-0.091 -0.1812,-0.091 -0.2716,-0.091 -0.1812,-0.091 -0.2716,0 -0.1812,0 -0.2716,-0.091 -0.2717,0 c -2.6263,0 -4.7997,2.1734 -4.7997,4.7997 0,2.6262 2.1734,4.7997 4.7997,4.7997 2.6262,0 4.7997,-2.1735 4.7997,-4.7997 z"
       inkscape:connector-curvature="0"
       style="font-style:normal;font-variant:normal;font-weight:normal;font-stretch:normal;letter-spacing:normal;word-spacing:normal;text-anchor:start;fill:#000000;fill-opacity:1;fill-rule:evenodd;stroke:#000000;stroke-width:0;stroke-linecap:butt;stroke-linejoin:miter;stroke-miterlimit:10.43299961;stroke-dasharray:none;stroke-dashoffset:0;stroke-opacity:1" />
    <path
       id="path9622-6-4-5-4"
       d="m 1266.3019,1233.2828 0,-0.1812 0,-0.2716 0,-0.2717 -0.091,-0.1811 0,-0.2717 -0.091,-0.1811 -0.091,-0.2717 -0.091,-0.1811 -0.091,-0.2717 -0.091,-0.1811 -0.091,-0.1812 -0.1811,-0.1811 -0.091,-0.1811 -0.1812,-0.1811 -0.1811,-0.1811 -0.091,-0.1812 -0.1812,-0.1811 -0.1811,-0.091 -0.1811,-0.1811 -0.1811,-0.1811 -0.1811,-0.091 -0.1812,-0.091 -0.2716,-0.091 -0.1812,-0.091 -0.1811,-0.091 -0.2717,-0.091 -0.1811,-0.091 -0.2717,-0.091 -0.2716,0 -0.1812,0 -0.2716,-0.091 -0.2717,0 c -2.5357,0 -4.7092,2.1734 -4.7092,4.7997 0,2.6262 2.1735,4.7997 4.7092,4.7997 2.6262,0 4.7997,-2.1735 4.7997,-4.7997 z"
       inkscape:connector-curvature="0"
       style="font-style:normal;font-variant:normal;font-weight:normal;font-stretch:normal;letter-spacing:normal;word-spacing:normal;text-anchor:start;fill:#000000;fill-opacity:1;fill-rule:evenodd;stroke:#000000;stroke-width:0;stroke-linecap:butt;stroke-linejoin:miter;stroke-miterlimit:10.43299961;stroke-dasharray:none;stroke-dashoffset:0;stroke-opacity:1" />
    <path
       id="path9624-75-3-9-0"
       d="m 1311.5106,1233.2828 -0.091,-0.1812 0,-0.2716 0,-0.2717 -0.091,-0.1811 0,-0.2717 -0.091,-0.1811 -0.091,-0.2717 -0.091,-0.1811 -0.091,-0.2717 -0.091,-0.1811 -0.091,-0.1812 -0.1811,-0.1811 -0.091,-0.1811 -0.1811,-0.1811 -0.091,-0.1811 -0.1811,-0.1812 -0.1811,-0.1811 -0.1811,-0.091 -0.1812,-0.1811 -0.1811,-0.1811 -0.1811,-0.091 -0.1811,-0.091 -0.2717,-0.091 -0.1811,-0.091 -0.1812,-0.091 -0.2716,-0.091 -0.1812,-0.091 -0.2716,-0.091 -0.1812,0 -0.2716,0 -0.2717,-0.091 -0.1811,0 c -2.6263,0 -4.7997,2.1734 -4.7997,4.7997 0,2.6262 2.1734,4.7997 4.7997,4.7997 2.6262,0 4.7997,-2.1735 4.7997,-4.7997 z"
       inkscape:connector-curvature="0"
       style="font-style:normal;font-variant:normal;font-weight:normal;font-stretch:normal;letter-spacing:normal;word-spacing:normal;text-anchor:start;fill:#000000;fill-opacity:1;fill-rule:evenodd;stroke:#000000;stroke-width:0;stroke-linecap:butt;stroke-linejoin:miter;stroke-miterlimit:10.43299961;stroke-dasharray:none;stroke-dashoffset:0;stroke-opacity:1" />
    <path
       id="path9626-3-3-2-0"
       d="m 1356.5381,1233.2828 0,-0.1812 0,-0.2716 -0.091,-0.2717 0,-0.1811 -0.091,-0.2717 0,-0.1811 -0.091,-0.2717 -0.091,-0.1811 -0.091,-0.2717 -0.091,-0.1811 -0.1811,-0.1812 -0.091,-0.1811 -0.1811,-0.1811 -0.091,-0.1811 -0.1811,-0.1811 -0.1812,-0.1812 -0.091,-0.1811 -0.1811,-0.091 -0.1811,-0.1811 -0.1811,-0.1811 -0.2717,-0.091 -0.1811,-0.091 -0.1811,-0.091 -0.1812,-0.091 -0.2716,-0.091 -0.1812,-0.091 -0.2716,-0.091 -0.1812,-0.091 -0.2716,0 -0.1812,0 -0.2716,-0.091 -0.2717,0 c -2.6263,0 -4.7997,2.1734 -4.7997,4.7997 0,2.6262 2.1734,4.7997 4.7997,4.7997 2.6262,0 4.7997,-2.1735 4.7997,-4.7997 z"
       inkscape:connector-curvature="0"
       style="font-style:normal;font-variant:normal;font-weight:normal;font-stretch:normal;letter-spacing:normal;word-spacing:normal;text-anchor:start;fill:#000000;fill-opacity:1;fill-rule:evenodd;stroke:#000000;stroke-width:0;stroke-linecap:butt;stroke-linejoin:miter;stroke-miterlimit:10.43299961;stroke-dasharray:none;stroke-dashoffset:0;stroke-opacity:1" />
    <g
       id="g7308-8-4"
       transform="translate(1125.9377,719.60161)">
      <g
         id="g4160-3-5-3-8-9-6"
         transform="matrix(2.7350495,0,0,2.7358306,13.55847,414.28798)"
         style="fill:#ffffff">
        <path
           d="m 118.277,36.316 c 0,3.598 -7.05,6.516 -15.75,6.516 -8.699,0 -16.132,-2.918 -16.132,-6.516 m 31.906,0.012 c 0,8.809 -7.141,15.953 -15.949,15.953 -8.809,0 -15.954,-7.144 -15.954,-15.953 0,-8.808 7.145,-15.949 15.954,-15.949 8.808,0 15.949,7.141 15.949,15.949 z"
           style="fill:#ffffff;stroke:#000000;stroke-width:1;stroke-linecap:butt;stroke-linejoin:round;stroke-miterlimit:4;stroke-dasharray:none;stroke-opacity:1"
           id="path4162-6-5-0-4-73-2"
           inkscape:connector-curvature="0" />
      </g>
      <g
         style="font-style:normal;font-variant:normal;font-weight:normal;font-stretch:normal;letter-spacing:normal;word-spacing:normal;text-anchor:start;fill:#000000;fill-opacity:1;fill-rule:evenodd;stroke:#000000;stroke-linecap:butt;stroke-linejoin:miter;stroke-miterlimit:10.43299961;stroke-dasharray:none;stroke-dashoffset:0;stroke-opacity:1"
         ns0:preamble="/home/scott/.config/inkscape/extensions/default_packages.tex"
         ns0:text="$-$"
         word-spacing="normal"
         letter-spacing="normal"
         font-size-adjust="none"
         font-stretch="normal"
         font-weight="normal"
         font-variant="normal"
         font-style="normal"
         stroke-miterlimit="10.433"
         xml:space="preserve"
         transform="matrix(5.9210364,0,0,-5.9210364,-609.94644,4411.9068)"
         id="g6239-1-1-61-6"><path
           id="path6241-7-5-2-7"
           style="font-style:normal;font-variant:normal;font-weight:normal;font-stretch:normal;letter-spacing:normal;word-spacing:normal;text-anchor:start;fill:#000000;fill-opacity:1;fill-rule:evenodd;stroke:#000000;stroke-width:0;stroke-linecap:butt;stroke-linejoin:miter;stroke-miterlimit:10.43299961;stroke-dasharray:none;stroke-dashoffset:0;stroke-opacity:1"
           word-spacing="normal"
           stroke-miterlimit="10.433"
           letter-spacing="normal"
           font-weight="normal"
           font-variant="normal"
           font-style="normal"
           font-stretch="normal"
           font-size-adjust="none"
           d="m 155.27,659.52 0.04,0 0.03,0 0.03,0.01 0.02,0 0.01,0 0.02,0 0.01,0 0.02,0 0.01,0 0.01,0.01 0.02,0 0.01,0 0.01,0.01 0.02,0 0.01,0.01 0.01,0.01 0.01,0 0.01,0.01 0.01,0.01 0.01,0.01 0,0.01 0.01,0 0,0.01 0,0 0.01,0.01 0,0.01 0,0 0,0.01 0.01,0.01 0,0 0,0.01 0,0.01 0,0.01 0,0.01 0,0 0,0.01 0,0.01 c 0,0.2 -0.17,0.2 -0.35,0.2 l -5.38,0 c -0.17,0 -0.35,0 -0.35,-0.2 0,-0.2 0.18,-0.2 0.35,-0.2 z"
           inkscape:connector-curvature="0" /></g>    </g>
    <g
       transform="translate(1125.8794,741.01582)"
       id="g7302-93-5">
      <g
         id="g4160-3-5-3-1-6"
         transform="matrix(2.7350495,0,0,2.7358306,13.55847,234.28796)"
         style="fill:#ffffff">
        <path
           d="m 118.277,36.316 c 0,3.598 -7.05,6.516 -15.75,6.516 -8.699,0 -16.132,-2.918 -16.132,-6.516 m 31.906,0.012 c 0,8.809 -7.141,15.953 -15.949,15.953 -8.809,0 -15.954,-7.144 -15.954,-15.953 0,-8.808 7.145,-15.949 15.954,-15.949 8.808,0 15.949,7.141 15.949,15.949 z"
           style="fill:#ffffff;stroke:#000000;stroke-width:1;stroke-linecap:butt;stroke-linejoin:round;stroke-miterlimit:4;stroke-dasharray:none;stroke-opacity:1"
           id="path4162-6-5-0-947-9"
           inkscape:connector-curvature="0" />
      </g>
      <g
         id="content-90-7-84-8"
         transform="matrix(5.4380586,0,0,-5.4380586,-536.25366,3913.3039)"
         xml:space="preserve"
         stroke-miterlimit="10.433"
         font-style="normal"
         font-variant="normal"
         font-weight="normal"
         font-stretch="normal"
         font-size-adjust="none"
         letter-spacing="normal"
         word-spacing="normal"
         ns0:text="$+$"
         ns0:preamble="/home/scott/.config/inkscape/extensions/default_packages.tex"
         style="font-style:normal;font-variant:normal;font-weight:normal;font-stretch:normal;letter-spacing:normal;word-spacing:normal;text-anchor:start;fill:#000000;fill-opacity:1;fill-rule:evenodd;stroke:#000000;stroke-linecap:butt;stroke-linejoin:miter;stroke-miterlimit:10.43299961;stroke-dasharray:none;stroke-dashoffset:0;stroke-opacity:1"><path
           inkscape:connector-curvature="0"
           d="m 152.79,659.52 2.77,0 c 0.14,0 0.33,0 0.33,0.2 0,0.2 -0.19,0.2 -0.33,0.2 l -2.77,0 0,2.79 c 0,0.14 0,0.33 -0.2,0.33 -0.2,0 -0.2,-0.19 -0.2,-0.33 l 0,-2.79 -2.79,0 c -0.14,0 -0.33,0 -0.33,-0.2 0,-0.2 0.19,-0.2 0.33,-0.2 l 2.79,0 0,-2.79 c 0,-0.14 0,-0.32 0.2,-0.32 0.2,0 0.2,0.18 0.2,0.32 z"
           font-size-adjust="none"
           font-stretch="normal"
           font-style="normal"
           font-variant="normal"
           font-weight="normal"
           letter-spacing="normal"
           stroke-miterlimit="10.433"
           word-spacing="normal"
           style="font-style:normal;font-variant:normal;font-weight:normal;font-stretch:normal;letter-spacing:normal;word-spacing:normal;text-anchor:start;fill:#000000;fill-opacity:1;fill-rule:evenodd;stroke:#000000;stroke-width:0;stroke-linecap:butt;stroke-linejoin:miter;stroke-miterlimit:10.43299961;stroke-dasharray:none;stroke-dashoffset:0;stroke-opacity:1"
           id="path5765-9-1-5-7" /></g>    </g>
    <g
       transform="translate(1754.0713,741.01582)"
       id="g7278-3-2-3-7-3-7-2">
      <g
         style="fill:#ffffff"
         transform="matrix(2.7350495,0,0,2.7358306,-436.44154,234.28796)"
         id="g4160-3-8-2-4-5-1-7-8">
        <path
           inkscape:connector-curvature="0"
           id="path4162-6-09-9-4-3-9-6-2"
           style="fill:#ffffff;stroke:#000000;stroke-width:1;stroke-linecap:butt;stroke-linejoin:round;stroke-miterlimit:4;stroke-dasharray:none;stroke-opacity:1"
           d="m 118.277,36.316 c 0,3.598 -7.05,6.516 -15.75,6.516 -8.699,0 -16.132,-2.918 -16.132,-6.516 m 31.906,0.012 c 0,8.809 -7.141,15.953 -15.949,15.953 -8.809,0 -15.954,-7.144 -15.954,-15.953 0,-8.808 7.145,-15.949 15.954,-15.949 8.808,0 15.949,7.141 15.949,15.949 z" />
      </g>
      <g
         style="font-style:normal;font-variant:normal;font-weight:normal;font-stretch:normal;letter-spacing:normal;word-spacing:normal;text-anchor:start;fill:#000000;fill-opacity:1;fill-rule:evenodd;stroke:#000000;stroke-linecap:butt;stroke-linejoin:miter;stroke-miterlimit:10.43299961;stroke-dasharray:none;stroke-dashoffset:0;stroke-opacity:1"
         ns0:preamble="/home/scott/.config/inkscape/extensions/default_packages.tex"
         ns0:text="$+$"
         word-spacing="normal"
         letter-spacing="normal"
         font-size-adjust="none"
         font-stretch="normal"
         font-weight="normal"
         font-variant="normal"
         font-style="normal"
         stroke-miterlimit="10.433"
         xml:space="preserve"
         transform="matrix(5.4380586,0,0,-5.4380586,-986.25367,3913.3039)"
         id="content-79-7-3-5-4-4-9"><path
           id="path5765-93-5-9-6-7-3-9"
           style="font-style:normal;font-variant:normal;font-weight:normal;font-stretch:normal;letter-spacing:normal;word-spacing:normal;text-anchor:start;fill:#000000;fill-opacity:1;fill-rule:evenodd;stroke:#000000;stroke-width:0;stroke-linecap:butt;stroke-linejoin:miter;stroke-miterlimit:10.43299961;stroke-dasharray:none;stroke-dashoffset:0;stroke-opacity:1"
           word-spacing="normal"
           stroke-miterlimit="10.433"
           letter-spacing="normal"
           font-weight="normal"
           font-variant="normal"
           font-style="normal"
           font-stretch="normal"
           font-size-adjust="none"
           d="m 152.79,659.52 2.77,0 c 0.14,0 0.33,0 0.33,0.2 0,0.2 -0.19,0.2 -0.33,0.2 l -2.77,0 0,2.79 c 0,0.14 0,0.33 -0.2,0.33 -0.2,0 -0.2,-0.19 -0.2,-0.33 l 0,-2.79 -2.79,0 c -0.14,0 -0.33,0 -0.33,-0.2 0,-0.2 0.19,-0.2 0.33,-0.2 l 2.79,0 0,-2.79 c 0,-0.14 0,-0.32 0.2,-0.32 0.2,0 0.2,0.18 0.2,0.32 z"
           inkscape:connector-curvature="0" /></g>    </g>
    <g
       transform="translate(1753.8126,719.60163)"
       id="g7290-2-6-7-2-8-0-6">
      <g
         style="fill:#ffffff"
         transform="matrix(2.7350495,0,0,2.7358306,-436.44154,414.28796)"
         id="g4160-3-1-4-4-2-9-4-3-0">
        <path
           inkscape:connector-curvature="0"
           id="path4162-6-0-3-6-5-1-5-0-2"
           style="fill:#ffffff;stroke:#000000;stroke-width:1;stroke-linecap:butt;stroke-linejoin:round;stroke-miterlimit:4;stroke-dasharray:none;stroke-opacity:1"
           d="m 118.277,36.316 c 0,3.598 -7.05,6.516 -15.75,6.516 -8.699,0 -16.132,-2.918 -16.132,-6.516 m 31.906,0.012 c 0,8.809 -7.141,15.953 -15.949,15.953 -8.809,0 -15.954,-7.144 -15.954,-15.953 0,-8.808 7.145,-15.949 15.954,-15.949 8.808,0 15.949,7.141 15.949,15.949 z" />
      </g>
      <g
         id="g6239-7-3-8-2-0-9-7"
         transform="matrix(5.9210364,0,0,-5.9210364,-1059.9464,4411.9068)"
         xml:space="preserve"
         stroke-miterlimit="10.433"
         font-style="normal"
         font-variant="normal"
         font-weight="normal"
         font-stretch="normal"
         font-size-adjust="none"
         letter-spacing="normal"
         word-spacing="normal"
         ns0:text="$-$"
         ns0:preamble="/home/scott/.config/inkscape/extensions/default_packages.tex"
         style="font-style:normal;font-variant:normal;font-weight:normal;font-stretch:normal;letter-spacing:normal;word-spacing:normal;text-anchor:start;fill:#000000;fill-opacity:1;fill-rule:evenodd;stroke:#000000;stroke-linecap:butt;stroke-linejoin:miter;stroke-miterlimit:10.43299961;stroke-dasharray:none;stroke-dashoffset:0;stroke-opacity:1"><path
           inkscape:connector-curvature="0"
           d="m 155.27,659.52 0.04,0 0.03,0 0.03,0.01 0.02,0 0.01,0 0.02,0 0.01,0 0.02,0 0.01,0 0.01,0.01 0.02,0 0.01,0 0.01,0.01 0.02,0 0.01,0.01 0.01,0.01 0.01,0 0.01,0.01 0.01,0.01 0.01,0.01 0,0.01 0.01,0 0,0.01 0,0 0.01,0.01 0,0.01 0,0 0,0.01 0.01,0.01 0,0 0,0.01 0,0.01 0,0.01 0,0.01 0,0 0,0.01 0,0.01 c 0,0.2 -0.17,0.2 -0.35,0.2 l -5.38,0 c -0.17,0 -0.35,0 -0.35,-0.2 0,-0.2 0.18,-0.2 0.35,-0.2 z"
           font-size-adjust="none"
           font-stretch="normal"
           font-style="normal"
           font-variant="normal"
           font-weight="normal"
           letter-spacing="normal"
           stroke-miterlimit="10.433"
           word-spacing="normal"
           style="font-style:normal;font-variant:normal;font-weight:normal;font-stretch:normal;letter-spacing:normal;word-spacing:normal;text-anchor:start;fill:#000000;fill-opacity:1;fill-rule:evenodd;stroke:#000000;stroke-width:0;stroke-linecap:butt;stroke-linejoin:miter;stroke-miterlimit:10.43299961;stroke-dasharray:none;stroke-dashoffset:0;stroke-opacity:1"
           id="path6241-1-7-9-7-3-2-6" /></g>    </g>
    <g
       transform="translate(1461.2003,719.60161)"
       id="g7308-5-5-3-9-7-7-5-1">
      <g
         style="fill:#ffffff"
         transform="matrix(2.7350495,0,0,2.7358306,13.55847,414.28798)"
         id="g4160-3-5-3-8-16-5-5-2-4-8-4-3">
        <path
           inkscape:connector-curvature="0"
           id="path4162-6-5-0-4-6-4-0-2-5-6-0-2"
           style="fill:#ffffff;stroke:#000000;stroke-width:1;stroke-linecap:butt;stroke-linejoin:round;stroke-miterlimit:4;stroke-dasharray:none;stroke-opacity:1"
           d="m 118.277,36.316 c 0,3.598 -7.05,6.516 -15.75,6.516 -8.699,0 -16.132,-2.918 -16.132,-6.516 m 31.906,0.012 c 0,8.809 -7.141,15.953 -15.949,15.953 -8.809,0 -15.954,-7.144 -15.954,-15.953 0,-8.808 7.145,-15.949 15.954,-15.949 8.808,0 15.949,7.141 15.949,15.949 z" />
      </g>
      <g
         id="g6239-1-1-2-9-8-8-2-8-59-1"
         transform="matrix(5.9210364,0,0,-5.9210364,-609.94644,4411.9068)"
         xml:space="preserve"
         stroke-miterlimit="10.433"
         font-style="normal"
         font-variant="normal"
         font-weight="normal"
         font-stretch="normal"
         font-size-adjust="none"
         letter-spacing="normal"
         word-spacing="normal"
         ns0:text="$-$"
         ns0:preamble="/home/scott/.config/inkscape/extensions/default_packages.tex"
         style="font-style:normal;font-variant:normal;font-weight:normal;font-stretch:normal;letter-spacing:normal;word-spacing:normal;text-anchor:start;fill:#000000;fill-opacity:1;fill-rule:evenodd;stroke:#000000;stroke-linecap:butt;stroke-linejoin:miter;stroke-miterlimit:10.43299961;stroke-dasharray:none;stroke-dashoffset:0;stroke-opacity:1"><path
           inkscape:connector-curvature="0"
           d="m 155.27,659.52 0.04,0 0.03,0 0.03,0.01 0.02,0 0.01,0 0.02,0 0.01,0 0.02,0 0.01,0 0.01,0.01 0.02,0 0.01,0 0.01,0.01 0.02,0 0.01,0.01 0.01,0.01 0.01,0 0.01,0.01 0.01,0.01 0.01,0.01 0,0.01 0.01,0 0,0.01 0,0 0.01,0.01 0,0.01 0,0 0,0.01 0.01,0.01 0,0 0,0.01 0,0.01 0,0.01 0,0.01 0,0 0,0.01 0,0.01 c 0,0.2 -0.17,0.2 -0.35,0.2 l -5.38,0 c -0.17,0 -0.35,0 -0.35,-0.2 0,-0.2 0.18,-0.2 0.35,-0.2 z"
           font-size-adjust="none"
           font-stretch="normal"
           font-style="normal"
           font-variant="normal"
           font-weight="normal"
           letter-spacing="normal"
           stroke-miterlimit="10.433"
           word-spacing="normal"
           style="font-style:normal;font-variant:normal;font-weight:normal;font-stretch:normal;letter-spacing:normal;word-spacing:normal;text-anchor:start;fill:#000000;fill-opacity:1;fill-rule:evenodd;stroke:#000000;stroke-width:0;stroke-linecap:butt;stroke-linejoin:miter;stroke-miterlimit:10.43299961;stroke-dasharray:none;stroke-dashoffset:0;stroke-opacity:1"
           id="path6241-7-5-1-8-0-9-5-8-4-5" /></g>    </g>
    <g
       id="g7302-9-3-4-7-4-4-6-9"
       transform="translate(1461.142,739.45905)">
      <g
         style="fill:#ffffff"
         transform="matrix(2.7350495,0,0,2.7358306,13.55847,234.28796)"
         id="g4160-3-5-3-6-8-1-3-7-3-9-9">
        <path
           inkscape:connector-curvature="0"
           id="path4162-6-5-0-48-5-1-6-4-1-22-1"
           style="fill:#ffffff;stroke:#000000;stroke-width:1;stroke-linecap:butt;stroke-linejoin:round;stroke-miterlimit:4;stroke-dasharray:none;stroke-opacity:1"
           d="m 118.277,36.316 c 0,3.598 -7.05,6.516 -15.75,6.516 -8.699,0 -16.132,-2.918 -16.132,-6.516 m 31.906,0.012 c 0,8.809 -7.141,15.953 -15.949,15.953 -8.809,0 -15.954,-7.144 -15.954,-15.953 0,-8.808 7.145,-15.949 15.954,-15.949 8.808,0 15.949,7.141 15.949,15.949 z" />
      </g>
      <g
         style="font-style:normal;font-variant:normal;font-weight:normal;font-stretch:normal;letter-spacing:normal;word-spacing:normal;text-anchor:start;fill:#000000;fill-opacity:1;fill-rule:evenodd;stroke:#000000;stroke-linecap:butt;stroke-linejoin:miter;stroke-miterlimit:10.43299961;stroke-dasharray:none;stroke-dashoffset:0;stroke-opacity:1"
         ns0:preamble="/home/scott/.config/inkscape/extensions/default_packages.tex"
         ns0:text="$+$"
         word-spacing="normal"
         letter-spacing="normal"
         font-size-adjust="none"
         font-stretch="normal"
         font-weight="normal"
         font-variant="normal"
         font-style="normal"
         stroke-miterlimit="10.433"
         xml:space="preserve"
         transform="matrix(5.4380586,0,0,-5.4380586,-536.25366,3913.3039)"
         id="content-90-7-0-2-3-1-4-4-4-4"><path
           id="path5765-9-1-8-2-5-2-3-9-7-9"
           style="font-style:normal;font-variant:normal;font-weight:normal;font-stretch:normal;letter-spacing:normal;word-spacing:normal;text-anchor:start;fill:#000000;fill-opacity:1;fill-rule:evenodd;stroke:#000000;stroke-width:0;stroke-linecap:butt;stroke-linejoin:miter;stroke-miterlimit:10.43299961;stroke-dasharray:none;stroke-dashoffset:0;stroke-opacity:1"
           word-spacing="normal"
           stroke-miterlimit="10.433"
           letter-spacing="normal"
           font-weight="normal"
           font-variant="normal"
           font-style="normal"
           font-stretch="normal"
           font-size-adjust="none"
           d="m 152.79,659.52 2.77,0 c 0.14,0 0.33,0 0.33,0.2 0,0.2 -0.19,0.2 -0.33,0.2 l -2.77,0 0,2.79 c 0,0.14 0,0.33 -0.2,0.33 -0.2,0 -0.2,-0.19 -0.2,-0.33 l 0,-2.79 -2.79,0 c -0.14,0 -0.33,0 -0.33,-0.2 0,-0.2 0.19,-0.2 0.33,-0.2 l 2.79,0 0,-2.79 c 0,-0.14 0,-0.32 0.2,-0.32 0.2,0 0.2,0.18 0.2,0.32 z"
           inkscape:connector-curvature="0" /></g>    </g>
    <g
       id="g7284-7-1-1"
       transform="translate(989.2823,741.01582)">
      <g
         id="g4160-3-5-0-1-0"
         transform="matrix(2.7350495,0,0,2.7358306,-256.44154,234.28796)"
         style="fill:#ffffff">
        <path
           d="m 118.277,36.316 c 0,3.598 -7.05,6.516 -15.75,6.516 -8.699,0 -16.132,-2.918 -16.132,-6.516 m 31.906,0.012 c 0,8.809 -7.141,15.953 -15.949,15.953 -8.809,0 -15.954,-7.144 -15.954,-15.953 0,-8.808 7.145,-15.949 15.954,-15.949 8.808,0 15.949,7.141 15.949,15.949 z"
           style="fill:#ffffff;stroke:#000000;stroke-width:1;stroke-linecap:butt;stroke-linejoin:round;stroke-miterlimit:4;stroke-dasharray:none;stroke-opacity:1"
           id="path4162-6-5-93-0-7"
           inkscape:connector-curvature="0" />
      </g>
      <g
         id="content-90-6-8-5"
         transform="matrix(5.4380586,0,0,-5.4380586,-806.25367,3913.3039)"
         xml:space="preserve"
         stroke-miterlimit="10.433"
         font-style="normal"
         font-variant="normal"
         font-weight="normal"
         font-stretch="normal"
         font-size-adjust="none"
         letter-spacing="normal"
         word-spacing="normal"
         ns0:text="$+$"
         ns0:preamble="/home/scott/.config/inkscape/extensions/default_packages.tex"
         style="font-style:normal;font-variant:normal;font-weight:normal;font-stretch:normal;letter-spacing:normal;word-spacing:normal;text-anchor:start;fill:#000000;fill-opacity:1;fill-rule:evenodd;stroke:#000000;stroke-linecap:butt;stroke-linejoin:miter;stroke-miterlimit:10.43299961;stroke-dasharray:none;stroke-dashoffset:0;stroke-opacity:1"><path
           inkscape:connector-curvature="0"
           d="m 152.79,659.52 2.77,0 c 0.14,0 0.33,0 0.33,0.2 0,0.2 -0.19,0.2 -0.33,0.2 l -2.77,0 0,2.79 c 0,0.14 0,0.33 -0.2,0.33 -0.2,0 -0.2,-0.19 -0.2,-0.33 l 0,-2.79 -2.79,0 c -0.14,0 -0.33,0 -0.33,-0.2 0,-0.2 0.19,-0.2 0.33,-0.2 l 2.79,0 0,-2.79 c 0,-0.14 0,-0.32 0.2,-0.32 0.2,0 0.2,0.18 0.2,0.32 z"
           font-size-adjust="none"
           font-stretch="normal"
           font-style="normal"
           font-variant="normal"
           font-weight="normal"
           letter-spacing="normal"
           stroke-miterlimit="10.433"
           word-spacing="normal"
           style="font-style:normal;font-variant:normal;font-weight:normal;font-stretch:normal;letter-spacing:normal;word-spacing:normal;text-anchor:start;fill:#000000;fill-opacity:1;fill-rule:evenodd;stroke:#000000;stroke-width:0;stroke-linecap:butt;stroke-linejoin:miter;stroke-miterlimit:10.43299961;stroke-dasharray:none;stroke-dashoffset:0;stroke-opacity:1"
           id="path5765-9-06-5-8" /></g>    </g>
    <g
       id="g7296-2-0-7"
       transform="translate(989.459,719.60161)">
      <g
         id="g4160-3-5-6-6-6-0"
         transform="matrix(2.7350495,0,0,2.7358306,-256.44154,414.28798)"
         style="fill:#ffffff">
        <path
           d="m 118.277,36.316 c 0,3.598 -7.05,6.516 -15.75,6.516 -8.699,0 -16.132,-2.918 -16.132,-6.516 m 31.906,0.012 c 0,8.809 -7.141,15.953 -15.949,15.953 -8.809,0 -15.954,-7.144 -15.954,-15.953 0,-8.808 7.145,-15.949 15.954,-15.949 8.808,0 15.949,7.141 15.949,15.949 z"
           style="fill:#ffffff;stroke:#000000;stroke-width:1;stroke-linecap:butt;stroke-linejoin:round;stroke-miterlimit:4;stroke-dasharray:none;stroke-opacity:1"
           id="path4162-6-5-9-1-4-4"
           inkscape:connector-curvature="0" />
      </g>
      <g
         style="font-style:normal;font-variant:normal;font-weight:normal;font-stretch:normal;letter-spacing:normal;word-spacing:normal;text-anchor:start;fill:#000000;fill-opacity:1;fill-rule:evenodd;stroke:#000000;stroke-linecap:butt;stroke-linejoin:miter;stroke-miterlimit:10.43299961;stroke-dasharray:none;stroke-dashoffset:0;stroke-opacity:1"
         ns0:preamble="/home/scott/.config/inkscape/extensions/default_packages.tex"
         ns0:text="$-$"
         word-spacing="normal"
         letter-spacing="normal"
         font-size-adjust="none"
         font-stretch="normal"
         font-weight="normal"
         font-variant="normal"
         font-style="normal"
         stroke-miterlimit="10.433"
         xml:space="preserve"
         transform="matrix(5.9210364,0,0,-5.9210364,-879.94645,4411.9068)"
         id="g6239-1-8-6-8"><path
           id="path6241-7-79-2-0"
           style="font-style:normal;font-variant:normal;font-weight:normal;font-stretch:normal;letter-spacing:normal;word-spacing:normal;text-anchor:start;fill:#000000;fill-opacity:1;fill-rule:evenodd;stroke:#000000;stroke-width:0;stroke-linecap:butt;stroke-linejoin:miter;stroke-miterlimit:10.43299961;stroke-dasharray:none;stroke-dashoffset:0;stroke-opacity:1"
           word-spacing="normal"
           stroke-miterlimit="10.433"
           letter-spacing="normal"
           font-weight="normal"
           font-variant="normal"
           font-style="normal"
           font-stretch="normal"
           font-size-adjust="none"
           d="m 155.27,659.52 0.04,0 0.03,0 0.03,0.01 0.02,0 0.01,0 0.02,0 0.01,0 0.02,0 0.01,0 0.01,0.01 0.02,0 0.01,0 0.01,0.01 0.02,0 0.01,0.01 0.01,0.01 0.01,0 0.01,0.01 0.01,0.01 0.01,0.01 0,0.01 0.01,0 0,0.01 0,0 0.01,0.01 0,0.01 0,0 0,0.01 0.01,0.01 0,0 0,0.01 0,0.01 0,0.01 0,0.01 0,0 0,0.01 0,0.01 c 0,0.2 -0.17,0.2 -0.35,0.2 l -5.38,0 c -0.17,0 -0.35,0 -0.35,-0.2 0,-0.2 0.18,-0.2 0.35,-0.2 z"
           inkscape:connector-curvature="0" /></g>    </g>
    <path
       id="path5498-9-3-3"
       style="opacity:1;fill:none;fill-opacity:1;stroke:#000000;stroke-width:2.43000007;stroke-linecap:butt;stroke-linejoin:round;stroke-miterlimit:4;stroke-dasharray:none;stroke-dashoffset:0;stroke-opacity:1"
       d="m 1193.2071,1344.7344 c -62.132,0 -112.5,-50.368 -112.5,-112.5 l 0,-157.5 c 0,-62.132 50.368,-112.50002 112.5,-112.50003 l 359.0002,-10e-6 c 62.132,10e-6 112.5,50.36804 112.5,112.50004 l 0,157.5 c 0,62.132 -50.368,112.5 -112.5,112.5 z"
       inkscape:connector-curvature="0"
       sodipodi:nodetypes="cssccsscc" />
    <path
       id="path5545-8-0-5"
       style="opacity:1;fill:none;fill-opacity:1;stroke:#000000;stroke-width:2.43000007;stroke-linecap:butt;stroke-linejoin:round;stroke-miterlimit:4;stroke-dasharray:none;stroke-dashoffset:0;stroke-opacity:1"
       d="m 1079.2071,1367.2344 c -74.5584,0 -134.99997,-60.4415 -134.99998,-135 l 0,-157.5 c 0,-74.5585 60.44158,-135.00005 134.99998,-135.00005 l 317.0002,0 c 74.5584,1e-5 135,60.44165 135,135.00005 l 0,157.5 c 0,74.5585 -60.4416,135 -135,135 z"
       inkscape:connector-curvature="0"
       sodipodi:nodetypes="cssccsscc" />
  </g>
</svg>
