<?xml version="1.0" encoding="UTF-8" standalone="no"?>
<!-- Created with Inkscape (http://www.inkscape.org/) -->

<svg
   xmlns:dc="http://purl.org/dc/elements/1.1/"
   xmlns:cc="http://creativecommons.org/ns#"
   xmlns:rdf="http://www.w3.org/1999/02/22-rdf-syntax-ns#"
   xmlns:svg="http://www.w3.org/2000/svg"
   xmlns="http://www.w3.org/2000/svg"
   xmlns:sodipodi="http://sodipodi.sourceforge.net/DTD/sodipodi-0.dtd"
   xmlns:inkscape="http://www.inkscape.org/namespaces/inkscape"
   width="60.142967mm"
   height="55.581902mm"
   viewBox="0 0 213.105 196.94374"
   id="svg4726"
   version="1.1"
   inkscape:version="0.91 r13725"
   sodipodi:docname="stayinannulus2.svg">
  <defs
     id="defs4728" />
  <sodipodi:namedview
     id="base"
     pagecolor="#ffffff"
     bordercolor="#666666"
     borderopacity="1.0"
     inkscape:pageopacity="0.0"
     inkscape:pageshadow="2"
     inkscape:zoom="3.959798"
     inkscape:cx="100.6426"
     inkscape:cy="103.52264"
     inkscape:document-units="px"
     inkscape:current-layer="layer1"
     showgrid="false"
     fit-margin-top="0"
     fit-margin-left="0"
     fit-margin-right="0"
     fit-margin-bottom="0"
     inkscape:window-width="1855"
     inkscape:window-height="1056"
     inkscape:window-x="65"
     inkscape:window-y="24"
     inkscape:window-maximized="1" />
  <metadata
     id="metadata4731">
    <rdf:RDF>
      <cc:Work
         rdf:about="">
        <dc:format>image/svg+xml</dc:format>
        <dc:type
           rdf:resource="http://purl.org/dc/dcmitype/StillImage" />
        <dc:title></dc:title>
      </cc:Work>
    </rdf:RDF>
  </metadata>
  <g
     inkscape:label="Layer 1"
     inkscape:groupmode="layer"
     id="layer1"
     transform="translate(-125.10314,-189.93849)">
    <path
       style="fill:none;fill-rule:evenodd;stroke:#ff6600;stroke-width:2.5;stroke-linecap:butt;stroke-linejoin:miter;stroke-miterlimit:4;stroke-dasharray:none;stroke-opacity:1"
       d="M 157.07872,286.66657 C 141.92643,240.4521 143.94674,233.38103 143.94674,233.38103"
       id="path5464"
       inkscape:connector-curvature="0" />
    <path
       style="fill:none;fill-rule:evenodd;stroke:#ff6600;stroke-width:2.5;stroke-linecap:butt;stroke-linejoin:miter;stroke-miterlimit:4;stroke-dasharray:none;stroke-opacity:1"
       d="M 229.05209,227.82519 C 176.01908,221.2592 168.69548,211.15767 168.69548,211.15767"
       id="path5466"
       inkscape:connector-curvature="0" />
    <path
       style="fill:none;fill-rule:evenodd;stroke:#ff6600;stroke-width:2.5;stroke-linecap:round;stroke-linejoin:miter;stroke-miterlimit:4;stroke-dasharray:2.5, 7.5;stroke-dashoffset:0;stroke-opacity:1"
       d="m 167.18025,211.41021 c 72.73098,61.61931 74.24621,62.37692 74.24621,62.37692"
       id="path5470"
       inkscape:connector-curvature="0" />
    <path
       style="fill:none;fill-rule:evenodd;stroke:#ff6600;stroke-width:2.5;stroke-linecap:butt;stroke-linejoin:miter;stroke-miterlimit:4;stroke-dasharray:none;stroke-opacity:1"
       d="m 225.01148,272.52444 c 14.39467,-26.76904 99.50003,-6.81853 93.43911,19.1929 -6.06092,26.01143 -75.76144,-16.66752 -75.76144,-16.66752"
       id="path5472"
       inkscape:connector-curvature="0" />
    <g
       transform="matrix(1.25,0,0,1.25,125.10314,189.93849)"
       id="g5294">
      <path
         inkscape:connector-curvature="0"
         id="path5296"
         style="fill:none;stroke:#669900;stroke-width:2;stroke-linecap:butt;stroke-linejoin:miter;stroke-miterlimit:4;stroke-dasharray:none;stroke-opacity:1"
         d="M 85.055,29.266 27.879,79.57 85.258,131.09 145.664,78.762 85.055,29.266 Z" />
    </g>
    <g
       transform="matrix(0.79768875,0,0,1.25,125.10314,189.93849)"
       id="g5302">
      <path
         inkscape:connector-curvature="0"
         id="path5304"
         style="fill:none;stroke:#000000;stroke-width:2.4164691;stroke-linecap:round;stroke-linejoin:miter;stroke-miterlimit:4;stroke-dasharray:none;stroke-opacity:1"
         d="M 169.318,66.719 C 169.318,80.68 153.318,92 133.577,92 113.836,92 97.835,80.68 97.835,66.719" />
    </g>
    <g
       transform="matrix(0.79768875,0,0,1.25,125.10314,189.93849)"
       id="g5306">
      <path
         inkscape:connector-curvature="0"
         id="path5308"
         style="fill:none;stroke:#000000;stroke-width:2.4164691;stroke-linecap:butt;stroke-linejoin:miter;stroke-miterlimit:4;stroke-dasharray:none;stroke-opacity:1"
         d="m 101.783,77.469 c 6.311,-7.153 17.537,-11.914 30.343,-11.914 14.128,0 26.34,5.8 32.142,14.218" />
    </g>
    <g
       transform="matrix(1.25,0,0,1.25,125.10314,189.93849)"
       id="g5310">
      <path
         inkscape:connector-curvature="0"
         id="path5312"
         style="fill:none;stroke:#003399;stroke-width:1.75753295;stroke-linecap:round;stroke-linejoin:miter;stroke-miterlimit:4;stroke-dasharray:none;stroke-opacity:1"
         d="m 85.242,98.047 c -15.476,0 -28.023,-10.059 -28.023,-22.469 0,-12.41 12.547,-22.469 28.023,-22.469 m 0,0 c 15.477,0 28.028,10.059 28.028,22.469 0,12.41 -12.551,22.469 -28.028,22.469" />
    </g>
    <g
       transform="matrix(1.25,0,0,1.25,125.10314,189.93849)"
       id="g5314">
      <path
         inkscape:connector-curvature="0"
         id="path5316"
         style="fill:none;stroke:#000000;stroke-width:2;stroke-linecap:round;stroke-linejoin:miter;stroke-miterlimit:4;stroke-dasharray:none;stroke-opacity:1"
         d="m 169.484,78.777 c 0,42.957 -37.714,77.778 -84.242,77.778 C 38.715,156.555 1,121.734 1,78.777 1,35.82 38.715,1 85.242,1 c 46.528,0 84.242,34.82 84.242,77.777 z" />
    </g>
    <path
       inkscape:connector-curvature="0"
       id="path5322"
       style="fill:#000000;fill-opacity:1;fill-rule:nonzero;stroke:none"
       d="m 168.48189,288.41004 c 0,4.815 -3.90125,8.71125 -8.71125,8.71125 -4.81375,0 -8.715,-3.89625 -8.715,-8.71125 0,-4.81 3.90125,-8.71125 8.715,-8.71125 4.81,0 8.71125,3.90125 8.71125,8.71125 z" />
    <path
       inkscape:connector-curvature="0"
       id="path5324"
       style="fill:#ffffff;fill-opacity:1;fill-rule:nonzero;stroke:none"
       d="m 162.85689,293.44879 0,-0.8975 -0.97625,0 c -0.78125,0 -0.99625,0 -1.11375,-0.1375 -0.0975,-0.0975 -0.0588,0.02 -0.0588,-0.78125 l 0,-6.1125 c 0,-0.7425 0.04,-1.44625 0.1175,-2.69625 l -0.78125,0 c -0.56625,0.68375 -1.7775,1.11375 -3.32,1.11375 l 0,0.99625 1.48375,0 c 0.84,0 0.7225,-0.1175 0.7225,0.76125 l 0,6.3675 c 0,0.605 0.0587,0.48875 -1.1325,0.48875 l -1.1325,0 0,1.07375 6.19125,0 0,-0.17625 z" />
    <path
       inkscape:connector-curvature="0"
       id="path5326"
       style="fill:#000000;fill-opacity:1;fill-rule:nonzero;stroke:none"
       d="m 240.36689,226.03254 c 0,4.81375 -3.89625,8.715 -8.71125,8.715 -4.80875,0 -8.71125,-3.90125 -8.71125,-8.715 0,-4.81 3.9025,-8.71125 8.71125,-8.71125 4.815,0 8.71125,3.90125 8.71125,8.71125 z" />
    <path
       inkscape:connector-curvature="0"
       id="path5328"
       style="fill:#ffffff;fill-opacity:1;fill-rule:nonzero;stroke:none"
       d="m 235.31314,225.94004 c 0,-3.00875 -1.50375,-5.60625 -3.57375,-5.60625 -2.07125,0 -3.75,2.46125 -3.75,5.56625 0,3.0475 1.64,5.45 3.6325,5.45 2.07,0 3.69125,-2.325 3.69125,-5.41 z m -1.9925,-0.27375 c 0,2.07 -0.1175,3.04625 -0.41,3.71125 -0.3325,0.7225 -0.68375,0.97625 -1.25,0.97625 -0.48875,0 -0.84,-0.27375 -1.21125,-0.86 -0.41,-0.7025 -0.4875,-1.50375 -0.4875,-3.90625 0,-1.71875 0.11625,-2.5975 0.41,-3.2225 0.33125,-0.76125 0.7025,-1.015 1.26875,-1.015 0.48875,0 0.82125,0.2725 1.1925,0.87875 0.39,0.68375 0.4875,1.40625 0.4875,3.4375 z" />
    <path
       inkscape:connector-curvature="0"
       id="path5330"
       style="fill:#000000;fill-opacity:1;fill-rule:nonzero;stroke:none"
       d="m 240.36689,351.64754 c 0,4.81 -3.89625,8.71125 -8.71125,8.71125 -4.80875,0 -8.71125,-3.90125 -8.71125,-8.71125 0,-4.815 3.9025,-8.71625 8.71125,-8.71625 4.815,0 8.71125,3.90125 8.71125,8.71625 z" />
    <path
       inkscape:connector-curvature="0"
       id="path5332"
       style="fill:#ffffff;fill-opacity:1;fill-rule:nonzero;stroke:none"
       d="m 235.13689,353.28379 -0.8,0 -0.17625,0.95625 c -0.195,0.9375 -0.13625,0.86 -1.055,0.86 l -2.91,0 c 0.7425,-0.7425 1.075,-1.055 2.0125,-1.7975 1.3475,-1.035 1.9525,-1.5625 2.265,-1.9925 0.48875,-0.64375 0.76125,-1.46375 0.76125,-2.1675 0,-1.68 -1.5625,-3.08625 -3.495,-3.08625 -1.875,0 -3.49625,1.40625 -3.49625,2.98875 0,0.9375 0.64375,1.73875 1.3475,1.73875 0.54625,0 1.09375,-0.5475 1.09375,-1.075 0,-0.37125 -0.37125,-0.89875 -0.70375,-1.035 -0.54625,-0.23375 -0.41,-0.0587 -0.41,-0.25375 0,-0.76125 0.7625,-1.3475 1.875,-1.3475 1.21125,0 1.7775,0.58625 1.7775,1.81625 0,1.09375 -0.46875,1.9525 -1.69875,3.26125 l -2.03125,2.16875 c -0.5275,0.605 -0.80125,0.95625 -1.50375,1.89375 l 0,0.645 7.01125,0 0.3125,-3.57375 -0.17625,0 z" />
    <path
       inkscape:connector-curvature="0"
       id="path5334"
       style="fill:#000000;fill-opacity:1;fill-rule:nonzero;stroke:none"
       d="m 314.90814,288.41004 c 0,4.815 -3.90125,8.71125 -8.71125,8.71125 -4.815,0 -8.71625,-3.89625 -8.71625,-8.71125 0,-4.81 3.90125,-8.71125 8.71625,-8.71125 4.81,0 8.71125,3.90125 8.71125,8.71125 z" />
    <path
       inkscape:connector-curvature="0"
       id="path5336"
       style="fill:#ffffff;fill-opacity:1;fill-rule:nonzero;stroke:none"
       d="m 309.73689,290.54379 c 0,-1.38625 -0.89875,-2.42125 -2.42125,-2.85125 l 0,0.37125 c 1.25,-0.45 2.12875,-1.3875 2.12875,-2.5975 0,-1.54375 -1.3475,-2.75375 -3.18375,-2.75375 -1.71875,0 -3.2225,1.23 -3.2225,2.5775 0,0.605 0.605,1.21125 1.1525,1.21125 0.52625,0 1.035,-0.5475 1.035,-1.075 0,-0.3125 -0.15625,-0.64375 -0.48875,-0.87875 -0.15625,-0.11625 -0.15625,-0.0588 -0.15625,-0.13625 0,-0.41 0.70375,-0.68375 1.5425,-0.68375 1.055,0 1.44625,0.48875 1.44625,1.73875 0,1.38625 -0.39125,1.91375 -1.44625,1.91375 -0.21375,0 -0.66375,-0.0387 -0.9175,-0.0387 -0.3125,0 -0.645,0.33125 -0.645,0.585 0,0.255 0.3325,0.5475 0.625,0.5475 0.88,0 0.9375,-0.02 1.055,-0.02 1.09375,0 1.50375,0.60625 1.50375,2.07125 0,1.5225 -0.56625,2.20625 -1.89375,2.20625 -0.9375,0 -1.7775,-0.3125 -1.7775,-0.78125 0,-0.1175 0,0 0.2925,-0.175 0.41,-0.255 0.625,-0.645 0.625,-1.01625 0,-0.5275 -0.56625,-1.1325 -1.1125,-1.1325 -0.625,0 -1.23125,0.7425 -1.23125,1.50375 0,1.42625 1.485,2.5975 3.37875,2.5975 2.12875,0 3.71125,-1.3475 3.71125,-3.18375 z" />
    <path
       style="fill:none;fill-rule:evenodd;stroke:#ff6600;stroke-width:2.5;stroke-linecap:round;stroke-linejoin:miter;stroke-miterlimit:4;stroke-dasharray:2.5, 7.5;stroke-dashoffset:0;stroke-opacity:1"
       d="m 144.95689,233.8861 c 75.00383,40.40611 77.02413,39.64849 77.02413,39.64849"
       id="path5468"
       inkscape:connector-curvature="0" />
  </g>
</svg>
