<?xml version="1.0" encoding="UTF-8" standalone="no"?>
<!-- Created with Inkscape (http://www.inkscape.org/) -->

<svg
   xmlns:ns0="http://www.iki.fi/pav/software/textext/"
   xmlns:dc="http://purl.org/dc/elements/1.1/"
   xmlns:cc="http://creativecommons.org/ns#"
   xmlns:rdf="http://www.w3.org/1999/02/22-rdf-syntax-ns#"
   xmlns:svg="http://www.w3.org/2000/svg"
   xmlns="http://www.w3.org/2000/svg"
   xmlns:sodipodi="http://sodipodi.sourceforge.net/DTD/sodipodi-0.dtd"
   xmlns:inkscape="http://www.inkscape.org/namespaces/inkscape"
   inkscape:version="0.91 r13725"
   version="1.1"
   id="svg2"
   viewBox="0 0 723.60705 381.93006"
   height="4.2436671in"
   width="8.0400782in"
   sodipodi:docname="kput1.svg">
  <sodipodi:namedview
     inkscape:window-maximized="1"
     inkscape:window-y="24"
     inkscape:window-x="65"
     inkscape:window-height="1056"
     inkscape:window-width="1855"
     showguides="false"
     objecttolerance="10000"
     showgrid="true"
     inkscape:current-layer="layer1"
     inkscape:document-units="in"
     inkscape:cy="376.00659"
     inkscape:cx="-11.413715"
     inkscape:zoom="0.25"
     inkscape:pageshadow="2"
     inkscape:pageopacity="0.0"
     borderopacity="1.0"
     bordercolor="#666666"
     pagecolor="#ffffff"
     id="base"
     units="in"
     fit-margin-top="0"
     fit-margin-left="0"
     fit-margin-right="0"
     fit-margin-bottom="0">
    <inkscape:grid
       snapvisiblegridlinesonly="true"
       id="grid4666"
       type="xygrid"
       originx="-540.08637"
       originy="765.04739"
       spacingx="22.500002"
       spacingy="22.500001" />
  </sodipodi:namedview>
  <defs
     id="defs4" />
  <metadata
     id="metadata7">
    <rdf:RDF>
      <cc:Work
         rdf:about="">
        <dc:format>image/svg+xml</dc:format>
        <dc:type
           rdf:resource="http://purl.org/dc/dcmitype/StillImage" />
        <dc:title></dc:title>
      </cc:Work>
    </rdf:RDF>
  </metadata>
  <g
     id="layer1"
     inkscape:groupmode="layer"
     inkscape:label="Layer 1"
     transform="translate(-540.08635,-1435.4792)">
    <path
       sodipodi:nodetypes="scscscscs"
       inkscape:connector-curvature="0"
       d="m 1149.9784,1436.6942 -496.17708,0 c -62.13206,0 -112.50003,50.368 -112.50003,112.5 l 0,155.2501 c 0,61.382 50.36797,111.75 112.50004,111.75 l 496.17707,0 c 62.132,0 112.5,-50.368 112.5,-112.5 l 0,-154.5001 c 0,-62.132 -50.368,-112.5 -112.5,-112.5 z"
       style="fill:#99cc33;fill-opacity:1;stroke:#000000;stroke-width:2.43000007;stroke-linecap:butt;stroke-linejoin:round;stroke-miterlimit:4;stroke-dasharray:none;stroke-dashoffset:0;stroke-opacity:1"
       id="path7238-9-2-2" />
    <path
       sodipodi:nodetypes="scscscscs"
       inkscape:connector-curvature="0"
       d="m 1035.2815,1458.0494 -382.00019,0 c -49.70564,0 -90.00002,40.2943 -90.00002,90 l 0,156 c 0,49.7057 40.29438,90 90.00002,90 l 382.00019,10e-5 c 49.7056,-10e-5 90,-40.2944 90,-90.0001 l 0,-156 c 0,-49.7057 -40.2944,-90 -90,-90 z"
       style="fill:#ffcc00;fill-opacity:1;stroke:#000000;stroke-width:2.43000031;stroke-linecap:butt;stroke-linejoin:round;stroke-miterlimit:4;stroke-dasharray:none;stroke-dashoffset:0;stroke-opacity:1"
       id="path7231-7-8" />
    <path
       sodipodi:nodetypes="cccssscc"
       inkscape:connector-curvature="0"
       d="m 1182.6107,1558.7362 0,-22.2978 -79.1845,0.094 c -5.1572,-32.1005 -33.0483,-56.7061 -66.6863,-56.7061 -37.2793,0 -67.50003,30.2208 -67.50003,67.5 0,37.2792 30.22073,67.5 67.50003,67.5 33.24,0 60.8683,-24.0267 66.5906,-55.8752 z"
       style="fill:#ff9900;fill-opacity:1;stroke:#000000;stroke-width:2.43000031;stroke-linecap:butt;stroke-linejoin:round;stroke-miterlimit:4;stroke-dasharray:none;stroke-dashoffset:0;stroke-opacity:1"
       id="rect10521-4-6-4-2" />
    <path
       sodipodi:nodetypes="sccccccsccccs"
       inkscape:connector-curvature="0"
       d="m 879.23812,1481.4142 c 37.27925,0 67.50445,30.2208 67.49445,67.2537 0.1026,49.4834 39.9192,89.3 89.52133,89.4792 34.124,0.1792 62.0151,24.7848 67.1723,56.8854 l 79.1844,-0.094 0,22.2978 -79.2801,0.2149 c -5.7224,31.8485 -33.3506,55.8752 -66.5906,55.8752 l -382.00182,0 c -37.27923,0 -67.50001,-30.2208 -67.50001,-67.5 l 10e-6,-156.9122 c -10e-6,-37.2792 30.22077,-67.5 67.5,-67.5 z"
       style="fill:#ff9900;fill-opacity:1;stroke:#000000;stroke-width:2.43000031;stroke-linecap:butt;stroke-linejoin:round;stroke-miterlimit:4;stroke-dasharray:none;stroke-dashoffset:0;stroke-opacity:1"
       id="path4375-1-0-3-6-9" />
    <g
       transform="translate(1193.0181,1214.3629)"
       id="g7278-3-2-3-7-3">
      <g
         style="fill:#ffffff"
         transform="matrix(2.7350495,0,0,2.7358306,-436.44154,234.28796)"
         id="g4160-3-8-2-4-5-1">
        <path
           inkscape:connector-curvature="0"
           id="path4162-6-09-9-4-3-9"
           style="fill:#ffffff;stroke:#000000;stroke-width:1;stroke-linecap:butt;stroke-linejoin:round;stroke-miterlimit:4;stroke-dasharray:none;stroke-opacity:1"
           d="m 118.277,36.316 c 0,3.598 -7.05,6.516 -15.75,6.516 -8.699,0 -16.132,-2.918 -16.132,-6.516 m 31.906,0.012 c 0,8.809 -7.141,15.953 -15.949,15.953 -8.809,0 -15.954,-7.144 -15.954,-15.953 0,-8.808 7.145,-15.949 15.954,-15.949 8.808,0 15.949,7.141 15.949,15.949 z" />
      </g>
      <g
         style="font-style:normal;font-variant:normal;font-weight:normal;font-stretch:normal;letter-spacing:normal;word-spacing:normal;text-anchor:start;fill:#000000;fill-opacity:1;fill-rule:evenodd;stroke:#000000;stroke-linecap:butt;stroke-linejoin:miter;stroke-miterlimit:10.43299961;stroke-dasharray:none;stroke-dashoffset:0;stroke-opacity:1"
         ns0:preamble="/home/scott/.config/inkscape/extensions/default_packages.tex"
         ns0:text="$+$"
         word-spacing="normal"
         letter-spacing="normal"
         font-size-adjust="none"
         font-stretch="normal"
         font-weight="normal"
         font-variant="normal"
         font-style="normal"
         stroke-miterlimit="10.433"
         xml:space="preserve"
         transform="matrix(5.4380586,0,0,-5.4380586,-986.25367,3913.3039)"
         id="content-79-7-3-5-4"><path
           id="path5765-93-5-9-6-7"
           style="font-style:normal;font-variant:normal;font-weight:normal;font-stretch:normal;letter-spacing:normal;word-spacing:normal;text-anchor:start;fill:#000000;fill-opacity:1;fill-rule:evenodd;stroke:#000000;stroke-width:0;stroke-linecap:butt;stroke-linejoin:miter;stroke-miterlimit:10.43299961;stroke-dasharray:none;stroke-dashoffset:0;stroke-opacity:1"
           word-spacing="normal"
           stroke-miterlimit="10.433"
           letter-spacing="normal"
           font-weight="normal"
           font-variant="normal"
           font-style="normal"
           font-stretch="normal"
           font-size-adjust="none"
           d="m 152.79,659.52 2.77,0 c 0.14,0 0.33,0 0.33,0.2 0,0.2 -0.19,0.2 -0.33,0.2 l -2.77,0 0,2.79 c 0,0.14 0,0.33 -0.2,0.33 -0.2,0 -0.2,-0.19 -0.2,-0.33 l 0,-2.79 -2.79,0 c -0.14,0 -0.33,0 -0.33,-0.2 0,-0.2 0.19,-0.2 0.33,-0.2 l 2.79,0 0,-2.79 c 0,-0.14 0,-0.32 0.2,-0.32 0.2,0 0.2,0.18 0.2,0.32 z"
           inkscape:connector-curvature="0" /></g>    </g>
    <g
       transform="translate(1192.7594,1190.9161)"
       id="g7290-2-6-7-2-8">
      <g
         style="fill:#ffffff"
         transform="matrix(2.7350495,0,0,2.7358306,-436.44154,414.28796)"
         id="g4160-3-1-4-4-2-9-4">
        <path
           inkscape:connector-curvature="0"
           id="path4162-6-0-3-6-5-1-5"
           style="fill:#ffffff;stroke:#000000;stroke-width:1;stroke-linecap:butt;stroke-linejoin:round;stroke-miterlimit:4;stroke-dasharray:none;stroke-opacity:1"
           d="m 118.277,36.316 c 0,3.598 -7.05,6.516 -15.75,6.516 -8.699,0 -16.132,-2.918 -16.132,-6.516 m 31.906,0.012 c 0,8.809 -7.141,15.953 -15.949,15.953 -8.809,0 -15.954,-7.144 -15.954,-15.953 0,-8.808 7.145,-15.949 15.954,-15.949 8.808,0 15.949,7.141 15.949,15.949 z" />
      </g>
      <g
         id="g6239-7-3-8-2-0"
         transform="matrix(5.9210364,0,0,-5.9210364,-1059.9464,4411.9068)"
         xml:space="preserve"
         stroke-miterlimit="10.433"
         font-style="normal"
         font-variant="normal"
         font-weight="normal"
         font-stretch="normal"
         font-size-adjust="none"
         letter-spacing="normal"
         word-spacing="normal"
         ns0:text="$-$"
         ns0:preamble="/home/scott/.config/inkscape/extensions/default_packages.tex"
         style="font-style:normal;font-variant:normal;font-weight:normal;font-stretch:normal;letter-spacing:normal;word-spacing:normal;text-anchor:start;fill:#000000;fill-opacity:1;fill-rule:evenodd;stroke:#000000;stroke-linecap:butt;stroke-linejoin:miter;stroke-miterlimit:10.43299961;stroke-dasharray:none;stroke-dashoffset:0;stroke-opacity:1"><path
           inkscape:connector-curvature="0"
           d="m 155.27,659.52 0.04,0 0.03,0 0.03,0.01 0.02,0 0.01,0 0.02,0 0.01,0 0.02,0 0.01,0 0.01,0.01 0.02,0 0.01,0 0.01,0.01 0.02,0 0.01,0.01 0.01,0.01 0.01,0 0.01,0.01 0.01,0.01 0.01,0.01 0,0.01 0.01,0 0,0.01 0,0 0.01,0.01 0,0.01 0,0 0,0.01 0.01,0.01 0,0 0,0.01 0,0.01 0,0.01 0,0.01 0,0 0,0.01 0,0.01 c 0,0.2 -0.17,0.2 -0.35,0.2 l -5.38,0 c -0.17,0 -0.35,0 -0.35,-0.2 0,-0.2 0.18,-0.2 0.35,-0.2 z"
           font-size-adjust="none"
           font-stretch="normal"
           font-style="normal"
           font-variant="normal"
           font-weight="normal"
           letter-spacing="normal"
           stroke-miterlimit="10.433"
           word-spacing="normal"
           style="font-style:normal;font-variant:normal;font-weight:normal;font-stretch:normal;letter-spacing:normal;word-spacing:normal;text-anchor:start;fill:#000000;fill-opacity:1;fill-rule:evenodd;stroke:#000000;stroke-width:0;stroke-linecap:butt;stroke-linejoin:miter;stroke-miterlimit:10.43299961;stroke-dasharray:none;stroke-dashoffset:0;stroke-opacity:1"
           id="path6241-1-7-9-7-3" /></g>    </g>
    <g
       transform="translate(630.49162,1214.0322)"
       id="g7284-2-9-0-0-6">
      <g
         style="fill:#ffffff"
         transform="matrix(2.7350495,0,0,2.7358306,-256.44154,234.28796)"
         id="g4160-3-5-2-7-2-9-1">
        <path
           inkscape:connector-curvature="0"
           id="path4162-6-5-02-4-4-3-0"
           style="fill:#ffffff;stroke:#000000;stroke-width:1;stroke-linecap:butt;stroke-linejoin:round;stroke-miterlimit:4;stroke-dasharray:none;stroke-opacity:1"
           d="m 118.277,36.316 c 0,3.598 -7.05,6.516 -15.75,6.516 -8.699,0 -16.132,-2.918 -16.132,-6.516 m 31.906,0.012 c 0,8.809 -7.141,15.953 -15.949,15.953 -8.809,0 -15.954,-7.144 -15.954,-15.953 0,-8.808 7.145,-15.949 15.954,-15.949 8.808,0 15.949,7.141 15.949,15.949 z" />
      </g>
      <g
         style="font-style:normal;font-variant:normal;font-weight:normal;font-stretch:normal;letter-spacing:normal;word-spacing:normal;text-anchor:start;fill:#000000;fill-opacity:1;fill-rule:evenodd;stroke:#000000;stroke-linecap:butt;stroke-linejoin:miter;stroke-miterlimit:10.43299961;stroke-dasharray:none;stroke-dashoffset:0;stroke-opacity:1"
         ns0:preamble="/home/scott/.config/inkscape/extensions/default_packages.tex"
         ns0:text="$+$"
         word-spacing="normal"
         letter-spacing="normal"
         font-size-adjust="none"
         font-stretch="normal"
         font-weight="normal"
         font-variant="normal"
         font-style="normal"
         stroke-miterlimit="10.433"
         xml:space="preserve"
         transform="matrix(5.4380586,0,0,-5.4380586,-806.25367,3913.3039)"
         id="content-90-1-9-7-6-6"><path
           id="path5765-9-7-1-6-0-3"
           style="font-style:normal;font-variant:normal;font-weight:normal;font-stretch:normal;letter-spacing:normal;word-spacing:normal;text-anchor:start;fill:#000000;fill-opacity:1;fill-rule:evenodd;stroke:#000000;stroke-width:0;stroke-linecap:butt;stroke-linejoin:miter;stroke-miterlimit:10.43299961;stroke-dasharray:none;stroke-dashoffset:0;stroke-opacity:1"
           word-spacing="normal"
           stroke-miterlimit="10.433"
           letter-spacing="normal"
           font-weight="normal"
           font-variant="normal"
           font-style="normal"
           font-stretch="normal"
           font-size-adjust="none"
           d="m 152.79,659.52 2.77,0 c 0.14,0 0.33,0 0.33,0.2 0,0.2 -0.19,0.2 -0.33,0.2 l -2.77,0 0,2.79 c 0,0.14 0,0.33 -0.2,0.33 -0.2,0 -0.2,-0.19 -0.2,-0.33 l 0,-2.79 -2.79,0 c -0.14,0 -0.33,0 -0.33,-0.2 0,-0.2 0.19,-0.2 0.33,-0.2 l 2.79,0 0,-2.79 c 0,-0.14 0,-0.32 0.2,-0.32 0.2,0 0.2,0.18 0.2,0.32 z"
           inkscape:connector-curvature="0" /></g>    </g>
    <g
       transform="translate(630.66842,1190.618)"
       id="g7296-5-7-5-6-2">
      <g
         style="fill:#ffffff"
         transform="matrix(2.7350495,0,0,2.7358306,-256.44154,414.28798)"
         id="g4160-3-5-6-1-0-7-2-0">
        <path
           inkscape:connector-curvature="0"
           id="path4162-6-5-9-7-6-1-6-6"
           style="fill:#ffffff;stroke:#000000;stroke-width:1;stroke-linecap:butt;stroke-linejoin:round;stroke-miterlimit:4;stroke-dasharray:none;stroke-opacity:1"
           d="m 118.277,36.316 c 0,3.598 -7.05,6.516 -15.75,6.516 -8.699,0 -16.132,-2.918 -16.132,-6.516 m 31.906,0.012 c 0,8.809 -7.141,15.953 -15.949,15.953 -8.809,0 -15.954,-7.144 -15.954,-15.953 0,-8.808 7.145,-15.949 15.954,-15.949 8.808,0 15.949,7.141 15.949,15.949 z" />
      </g>
      <g
         id="g6239-1-4-0-3-1-1"
         transform="matrix(5.9210364,0,0,-5.9210364,-879.94645,4411.9068)"
         xml:space="preserve"
         stroke-miterlimit="10.433"
         font-style="normal"
         font-variant="normal"
         font-weight="normal"
         font-stretch="normal"
         font-size-adjust="none"
         letter-spacing="normal"
         word-spacing="normal"
         ns0:text="$-$"
         ns0:preamble="/home/scott/.config/inkscape/extensions/default_packages.tex"
         style="font-style:normal;font-variant:normal;font-weight:normal;font-stretch:normal;letter-spacing:normal;word-spacing:normal;text-anchor:start;fill:#000000;fill-opacity:1;fill-rule:evenodd;stroke:#000000;stroke-linecap:butt;stroke-linejoin:miter;stroke-miterlimit:10.43299961;stroke-dasharray:none;stroke-dashoffset:0;stroke-opacity:1"><path
           inkscape:connector-curvature="0"
           d="m 155.27,659.52 0.04,0 0.03,0 0.03,0.01 0.02,0 0.01,0 0.02,0 0.01,0 0.02,0 0.01,0 0.01,0.01 0.02,0 0.01,0 0.01,0.01 0.02,0 0.01,0.01 0.01,0.01 0.01,0 0.01,0.01 0.01,0.01 0.01,0.01 0,0.01 0.01,0 0,0.01 0,0 0.01,0.01 0,0.01 0,0 0,0.01 0.01,0.01 0,0 0,0.01 0,0.01 0,0.01 0,0.01 0,0 0,0.01 0,0.01 c 0,0.2 -0.17,0.2 -0.35,0.2 l -5.38,0 c -0.17,0 -0.35,0 -0.35,-0.2 0,-0.2 0.18,-0.2 0.35,-0.2 z"
           font-size-adjust="none"
           font-stretch="normal"
           font-style="normal"
           font-variant="normal"
           font-weight="normal"
           letter-spacing="normal"
           stroke-miterlimit="10.433"
           word-spacing="normal"
           style="font-style:normal;font-variant:normal;font-weight:normal;font-stretch:normal;letter-spacing:normal;word-spacing:normal;text-anchor:start;fill:#000000;fill-opacity:1;fill-rule:evenodd;stroke:#000000;stroke-width:0;stroke-linecap:butt;stroke-linejoin:miter;stroke-miterlimit:10.43299961;stroke-dasharray:none;stroke-dashoffset:0;stroke-opacity:1"
           id="path6241-7-1-8-3-8-5" /></g>    </g>
    <path
       style="font-style:normal;font-variant:normal;font-weight:normal;font-stretch:normal;letter-spacing:normal;word-spacing:normal;text-anchor:start;fill:#000000;fill-opacity:1;fill-rule:evenodd;stroke:#000000;stroke-width:0;stroke-linecap:butt;stroke-linejoin:miter;stroke-miterlimit:10.43299961;stroke-dasharray:none;stroke-dashoffset:0;stroke-opacity:1"
       inkscape:connector-curvature="0"
       d="m 726.01099,1548.552 0,-0.1811 0,-0.2717 0,-0.2717 -0.0906,-0.1811 0,-0.2717 -0.0906,-0.1811 -0.0906,-0.2717 -0.0906,-0.1811 -0.0906,-0.2717 -0.0906,-0.1811 -0.0906,-0.1811 -0.18112,-0.1811 -0.0906,-0.1812 -0.18112,-0.1811 -0.18112,-0.1811 -0.0906,-0.1811 -0.18112,-0.1811 -0.18112,-0.091 -0.18112,-0.1812 -0.18112,-0.1811 -0.18112,-0.091 -0.18112,-0.091 -0.27168,-0.091 -0.18112,-0.091 -0.18112,-0.091 -0.27168,-0.091 -0.18112,-0.091 -0.27169,-0.091 -0.27168,0 -0.18111,0 -0.27169,-0.091 -0.27168,0 c -2.53568,0 -4.70912,2.1735 -4.70912,4.7997 0,2.6262 2.17344,4.7997 4.70912,4.7997 2.62625,0 4.79969,-2.1735 4.79969,-4.7997 z"
       id="path9622-6-1-3-8-9-4" />
    <path
       style="font-style:normal;font-variant:normal;font-weight:normal;font-stretch:normal;letter-spacing:normal;word-spacing:normal;text-anchor:start;fill:#000000;fill-opacity:1;fill-rule:evenodd;stroke:#000000;stroke-width:0;stroke-linecap:butt;stroke-linejoin:miter;stroke-miterlimit:10.43299961;stroke-dasharray:none;stroke-dashoffset:0;stroke-opacity:1"
       inkscape:connector-curvature="0"
       d="m 771.21968,1548.552 -0.0906,-0.1811 0,-0.2717 0,-0.2717 -0.0906,-0.1811 0,-0.2717 -0.0906,-0.1811 -0.0906,-0.2717 -0.0906,-0.1811 -0.0906,-0.2717 -0.0906,-0.1811 -0.0906,-0.1811 -0.18112,-0.1811 -0.0906,-0.1812 -0.18112,-0.1811 -0.0906,-0.1811 -0.18112,-0.1811 -0.18112,-0.1811 -0.18112,-0.091 -0.18112,-0.1812 -0.18112,-0.1811 -0.18112,-0.091 -0.18112,-0.091 -0.27168,-0.091 -0.18112,-0.091 -0.18112,-0.091 -0.27168,-0.091 -0.18112,-0.091 -0.27168,-0.091 -0.18112,0 -0.27168,0 -0.27168,-0.091 -0.18112,0 c -2.62625,0 -4.79969,2.1735 -4.79969,4.7997 0,2.6262 2.17344,4.7997 4.79969,4.7997 2.62624,0 4.79968,-2.1735 4.79968,-4.7997 z"
       id="path9624-75-1-9-5-2-7" />
    <path
       style="font-style:normal;font-variant:normal;font-weight:normal;font-stretch:normal;letter-spacing:normal;word-spacing:normal;text-anchor:start;fill:#000000;fill-opacity:1;fill-rule:evenodd;stroke:#000000;stroke-width:0;stroke-linecap:butt;stroke-linejoin:miter;stroke-miterlimit:10.43299961;stroke-dasharray:none;stroke-dashoffset:0;stroke-opacity:1"
       inkscape:connector-curvature="0"
       d="m 816.24725,1548.552 0,-0.1811 0,-0.2717 -0.0906,-0.2717 0,-0.1811 -0.0906,-0.2717 0,-0.1811 -0.0906,-0.2717 -0.0906,-0.1811 -0.0906,-0.2717 -0.0906,-0.1811 -0.18112,-0.1811 -0.0906,-0.1811 -0.18112,-0.1812 -0.0906,-0.1811 -0.18112,-0.1811 -0.18112,-0.1811 -0.0906,-0.1811 -0.18112,-0.091 -0.18112,-0.1812 -0.18112,-0.1811 -0.27168,-0.091 -0.18112,-0.091 -0.18112,-0.091 -0.18112,-0.091 -0.27168,-0.091 -0.18112,-0.091 -0.27168,-0.091 -0.18112,-0.091 -0.27168,0 -0.18112,0 -0.27168,-0.091 -0.27168,0 c -2.62625,0 -4.79969,2.1735 -4.79969,4.7997 0,2.6262 2.17344,4.7997 4.79969,4.7997 2.62624,0 4.79968,-2.1735 4.79968,-4.7997 z"
       id="path9626-3-1-4-1-0-6" />
    <path
       style="font-style:normal;font-variant:normal;font-weight:normal;font-stretch:normal;letter-spacing:normal;word-spacing:normal;text-anchor:start;fill:#000000;fill-opacity:1;fill-rule:evenodd;stroke:#000000;stroke-width:0;stroke-linecap:butt;stroke-linejoin:miter;stroke-miterlimit:10.43299961;stroke-dasharray:none;stroke-dashoffset:0;stroke-opacity:1"
       inkscape:connector-curvature="0"
       d="m 726.01099,1705.052 0,-0.1811 0,-0.2717 0,-0.2717 -0.0906,-0.1811 0,-0.2717 -0.0906,-0.1811 -0.0906,-0.2717 -0.0906,-0.1811 -0.0906,-0.2717 -0.0906,-0.1811 -0.0906,-0.1811 -0.18112,-0.1811 -0.0906,-0.1812 -0.18112,-0.1811 -0.18112,-0.1811 -0.0906,-0.1811 -0.18112,-0.1811 -0.18112,-0.091 -0.18112,-0.1812 -0.18112,-0.1811 -0.18112,-0.091 -0.18112,-0.091 -0.27168,-0.091 -0.18112,-0.091 -0.18112,-0.091 -0.27168,-0.091 -0.18112,-0.091 -0.27169,-0.091 -0.27168,0 -0.18111,0 -0.27169,-0.091 -0.27168,0 c -2.53568,0 -4.70912,2.1735 -4.70912,4.7997 0,2.6262 2.17344,4.7997 4.70912,4.7997 2.62625,0 4.79969,-2.1735 4.79969,-4.7997 z"
       id="path9622-6-4-7-1-0-2-5" />
    <path
       style="font-style:normal;font-variant:normal;font-weight:normal;font-stretch:normal;letter-spacing:normal;word-spacing:normal;text-anchor:start;fill:#000000;fill-opacity:1;fill-rule:evenodd;stroke:#000000;stroke-width:0;stroke-linecap:butt;stroke-linejoin:miter;stroke-miterlimit:10.43299961;stroke-dasharray:none;stroke-dashoffset:0;stroke-opacity:1"
       inkscape:connector-curvature="0"
       d="m 771.21968,1705.052 -0.0906,-0.1811 0,-0.2717 0,-0.2717 -0.0906,-0.1811 0,-0.2717 -0.0906,-0.1811 -0.0906,-0.2717 -0.0906,-0.1811 -0.0906,-0.2717 -0.0906,-0.1811 -0.0906,-0.1811 -0.18112,-0.1811 -0.0906,-0.1812 -0.18112,-0.1811 -0.0906,-0.1811 -0.18112,-0.1811 -0.18112,-0.1811 -0.18112,-0.091 -0.18112,-0.1812 -0.18112,-0.1811 -0.18112,-0.091 -0.18112,-0.091 -0.27168,-0.091 -0.18112,-0.091 -0.18112,-0.091 -0.27168,-0.091 -0.18112,-0.091 -0.27168,-0.091 -0.18112,0 -0.27168,0 -0.27168,-0.091 -0.18112,0 c -2.62625,0 -4.79969,2.1735 -4.79969,4.7997 0,2.6262 2.17344,4.7997 4.79969,4.7997 2.62624,0 4.79968,-2.1735 4.79968,-4.7997 z"
       id="path9624-75-3-04-5-8-3-6" />
    <path
       style="font-style:normal;font-variant:normal;font-weight:normal;font-stretch:normal;letter-spacing:normal;word-spacing:normal;text-anchor:start;fill:#000000;fill-opacity:1;fill-rule:evenodd;stroke:#000000;stroke-width:0;stroke-linecap:butt;stroke-linejoin:miter;stroke-miterlimit:10.43299961;stroke-dasharray:none;stroke-dashoffset:0;stroke-opacity:1"
       inkscape:connector-curvature="0"
       d="m 816.24725,1705.052 0,-0.1811 0,-0.2717 -0.0906,-0.2717 0,-0.1811 -0.0906,-0.2717 0,-0.1811 -0.0906,-0.2717 -0.0906,-0.1811 -0.0906,-0.2717 -0.0906,-0.1811 -0.18112,-0.1811 -0.0906,-0.1811 -0.18112,-0.1812 -0.0906,-0.1811 -0.18112,-0.1811 -0.18112,-0.1811 -0.0906,-0.1811 -0.18112,-0.091 -0.18112,-0.1812 -0.18112,-0.1811 -0.27168,-0.091 -0.18112,-0.091 -0.18112,-0.091 -0.18112,-0.091 -0.27168,-0.091 -0.18112,-0.091 -0.27168,-0.091 -0.18112,-0.091 -0.27168,0 -0.18112,0 -0.27168,-0.091 -0.27168,0 c -2.62625,0 -4.79969,2.1735 -4.79969,4.7997 0,2.6262 2.17344,4.7997 4.79969,4.7997 2.62624,0 4.79968,-2.1735 4.79968,-4.7997 z"
       id="path9626-3-3-0-4-7-7-9" />
    <g
       transform="translate(585.64692,1190.5751)"
       id="g7308-5-5-3-9-7">
      <g
         style="fill:#ffffff"
         transform="matrix(2.7350495,0,0,2.7358306,13.55847,414.28798)"
         id="g4160-3-5-3-8-16-5-5-2-4">
        <path
           inkscape:connector-curvature="0"
           id="path4162-6-5-0-4-6-4-0-2-5"
           style="fill:#ffffff;stroke:#000000;stroke-width:1;stroke-linecap:butt;stroke-linejoin:round;stroke-miterlimit:4;stroke-dasharray:none;stroke-opacity:1"
           d="m 118.277,36.316 c 0,3.598 -7.05,6.516 -15.75,6.516 -8.699,0 -16.132,-2.918 -16.132,-6.516 m 31.906,0.012 c 0,8.809 -7.141,15.953 -15.949,15.953 -8.809,0 -15.954,-7.144 -15.954,-15.953 0,-8.808 7.145,-15.949 15.954,-15.949 8.808,0 15.949,7.141 15.949,15.949 z" />
      </g>
      <g
         id="g6239-1-1-2-9-8-8-2"
         transform="matrix(5.9210364,0,0,-5.9210364,-609.94644,4411.9068)"
         xml:space="preserve"
         stroke-miterlimit="10.433"
         font-style="normal"
         font-variant="normal"
         font-weight="normal"
         font-stretch="normal"
         font-size-adjust="none"
         letter-spacing="normal"
         word-spacing="normal"
         ns0:text="$-$"
         ns0:preamble="/home/scott/.config/inkscape/extensions/default_packages.tex"
         style="font-style:normal;font-variant:normal;font-weight:normal;font-stretch:normal;letter-spacing:normal;word-spacing:normal;text-anchor:start;fill:#000000;fill-opacity:1;fill-rule:evenodd;stroke:#000000;stroke-linecap:butt;stroke-linejoin:miter;stroke-miterlimit:10.43299961;stroke-dasharray:none;stroke-dashoffset:0;stroke-opacity:1"><path
           inkscape:connector-curvature="0"
           d="m 155.27,659.52 0.04,0 0.03,0 0.03,0.01 0.02,0 0.01,0 0.02,0 0.01,0 0.02,0 0.01,0 0.01,0.01 0.02,0 0.01,0 0.01,0.01 0.02,0 0.01,0.01 0.01,0.01 0.01,0 0.01,0.01 0.01,0.01 0.01,0.01 0,0.01 0.01,0 0,0.01 0,0 0.01,0.01 0,0.01 0,0 0,0.01 0.01,0.01 0,0 0,0.01 0,0.01 0,0.01 0,0.01 0,0 0,0.01 0,0.01 c 0,0.2 -0.17,0.2 -0.35,0.2 l -5.38,0 c -0.17,0 -0.35,0 -0.35,-0.2 0,-0.2 0.18,-0.2 0.35,-0.2 z"
           font-size-adjust="none"
           font-stretch="normal"
           font-style="normal"
           font-variant="normal"
           font-weight="normal"
           letter-spacing="normal"
           stroke-miterlimit="10.433"
           word-spacing="normal"
           style="font-style:normal;font-variant:normal;font-weight:normal;font-stretch:normal;letter-spacing:normal;word-spacing:normal;text-anchor:start;fill:#000000;fill-opacity:1;fill-rule:evenodd;stroke:#000000;stroke-width:0;stroke-linecap:butt;stroke-linejoin:miter;stroke-miterlimit:10.43299961;stroke-dasharray:none;stroke-dashoffset:0;stroke-opacity:1"
           id="path6241-7-5-1-8-0-9-5" /></g>    </g>
    <g
       id="g7302-9-3-4-7-4"
       transform="translate(585.58867,1214.0812)">
      <g
         style="fill:#ffffff"
         transform="matrix(2.7350495,0,0,2.7358306,13.55847,234.28796)"
         id="g4160-3-5-3-6-8-1-3-7">
        <path
           inkscape:connector-curvature="0"
           id="path4162-6-5-0-48-5-1-6-4"
           style="fill:#ffffff;stroke:#000000;stroke-width:1;stroke-linecap:butt;stroke-linejoin:round;stroke-miterlimit:4;stroke-dasharray:none;stroke-opacity:1"
           d="m 118.277,36.316 c 0,3.598 -7.05,6.516 -15.75,6.516 -8.699,0 -16.132,-2.918 -16.132,-6.516 m 31.906,0.012 c 0,8.809 -7.141,15.953 -15.949,15.953 -8.809,0 -15.954,-7.144 -15.954,-15.953 0,-8.808 7.145,-15.949 15.954,-15.949 8.808,0 15.949,7.141 15.949,15.949 z" />
      </g>
      <g
         style="font-style:normal;font-variant:normal;font-weight:normal;font-stretch:normal;letter-spacing:normal;word-spacing:normal;text-anchor:start;fill:#000000;fill-opacity:1;fill-rule:evenodd;stroke:#000000;stroke-linecap:butt;stroke-linejoin:miter;stroke-miterlimit:10.43299961;stroke-dasharray:none;stroke-dashoffset:0;stroke-opacity:1"
         ns0:preamble="/home/scott/.config/inkscape/extensions/default_packages.tex"
         ns0:text="$+$"
         word-spacing="normal"
         letter-spacing="normal"
         font-size-adjust="none"
         font-stretch="normal"
         font-weight="normal"
         font-variant="normal"
         font-style="normal"
         stroke-miterlimit="10.433"
         xml:space="preserve"
         transform="matrix(5.4380586,0,0,-5.4380586,-536.25366,3913.3039)"
         id="content-90-7-0-2-3-1-4"><path
           id="path5765-9-1-8-2-5-2-3"
           style="font-style:normal;font-variant:normal;font-weight:normal;font-stretch:normal;letter-spacing:normal;word-spacing:normal;text-anchor:start;fill:#000000;fill-opacity:1;fill-rule:evenodd;stroke:#000000;stroke-width:0;stroke-linecap:butt;stroke-linejoin:miter;stroke-miterlimit:10.43299961;stroke-dasharray:none;stroke-dashoffset:0;stroke-opacity:1"
           word-spacing="normal"
           stroke-miterlimit="10.433"
           letter-spacing="normal"
           font-weight="normal"
           font-variant="normal"
           font-style="normal"
           font-stretch="normal"
           font-size-adjust="none"
           d="m 152.79,659.52 2.77,0 c 0.14,0 0.33,0 0.33,0.2 0,0.2 -0.19,0.2 -0.33,0.2 l -2.77,0 0,2.79 c 0,0.14 0,0.33 -0.2,0.33 -0.2,0 -0.2,-0.19 -0.2,-0.33 l 0,-2.79 -2.79,0 c -0.14,0 -0.33,0 -0.33,-0.2 0,-0.2 0.19,-0.2 0.33,-0.2 l 2.79,0 0,-2.79 c 0,-0.14 0,-0.32 0.2,-0.32 0.2,0 0.2,0.18 0.2,0.32 z"
           inkscape:connector-curvature="0" /></g>    </g>
    <g
       transform="translate(900.14696,1190.5751)"
       id="g7308-5-5-3-9-7-7">
      <g
         style="fill:#ffffff"
         transform="matrix(2.7350495,0,0,2.7358306,13.55847,414.28798)"
         id="g4160-3-5-3-8-16-5-5-2-4-8">
        <path
           inkscape:connector-curvature="0"
           id="path4162-6-5-0-4-6-4-0-2-5-6"
           style="fill:#ffffff;stroke:#000000;stroke-width:1;stroke-linecap:butt;stroke-linejoin:round;stroke-miterlimit:4;stroke-dasharray:none;stroke-opacity:1"
           d="m 118.277,36.316 c 0,3.598 -7.05,6.516 -15.75,6.516 -8.699,0 -16.132,-2.918 -16.132,-6.516 m 31.906,0.012 c 0,8.809 -7.141,15.953 -15.949,15.953 -8.809,0 -15.954,-7.144 -15.954,-15.953 0,-8.808 7.145,-15.949 15.954,-15.949 8.808,0 15.949,7.141 15.949,15.949 z" />
      </g>
      <g
         id="g6239-1-1-2-9-8-8-2-8"
         transform="matrix(5.9210364,0,0,-5.9210364,-609.94644,4411.9068)"
         xml:space="preserve"
         stroke-miterlimit="10.433"
         font-style="normal"
         font-variant="normal"
         font-weight="normal"
         font-stretch="normal"
         font-size-adjust="none"
         letter-spacing="normal"
         word-spacing="normal"
         ns0:text="$-$"
         ns0:preamble="/home/scott/.config/inkscape/extensions/default_packages.tex"
         style="font-style:normal;font-variant:normal;font-weight:normal;font-stretch:normal;letter-spacing:normal;word-spacing:normal;text-anchor:start;fill:#000000;fill-opacity:1;fill-rule:evenodd;stroke:#000000;stroke-linecap:butt;stroke-linejoin:miter;stroke-miterlimit:10.43299961;stroke-dasharray:none;stroke-dashoffset:0;stroke-opacity:1"><path
           inkscape:connector-curvature="0"
           d="m 155.27,659.52 0.04,0 0.03,0 0.03,0.01 0.02,0 0.01,0 0.02,0 0.01,0 0.02,0 0.01,0 0.01,0.01 0.02,0 0.01,0 0.01,0.01 0.02,0 0.01,0.01 0.01,0.01 0.01,0 0.01,0.01 0.01,0.01 0.01,0.01 0,0.01 0.01,0 0,0.01 0,0 0.01,0.01 0,0.01 0,0 0,0.01 0.01,0.01 0,0 0,0.01 0,0.01 0,0.01 0,0.01 0,0 0,0.01 0,0.01 c 0,0.2 -0.17,0.2 -0.35,0.2 l -5.38,0 c -0.17,0 -0.35,0 -0.35,-0.2 0,-0.2 0.18,-0.2 0.35,-0.2 z"
           font-size-adjust="none"
           font-stretch="normal"
           font-style="normal"
           font-variant="normal"
           font-weight="normal"
           letter-spacing="normal"
           stroke-miterlimit="10.433"
           word-spacing="normal"
           style="font-style:normal;font-variant:normal;font-weight:normal;font-stretch:normal;letter-spacing:normal;word-spacing:normal;text-anchor:start;fill:#000000;fill-opacity:1;fill-rule:evenodd;stroke:#000000;stroke-width:0;stroke-linecap:butt;stroke-linejoin:miter;stroke-miterlimit:10.43299961;stroke-dasharray:none;stroke-dashoffset:0;stroke-opacity:1"
           id="path6241-7-5-1-8-0-9-5-8" /></g>    </g>
    <g
       id="g7302-9-3-4-7-4-4"
       transform="translate(900.08871,1214.0812)">
      <g
         style="fill:#ffffff"
         transform="matrix(2.7350495,0,0,2.7358306,13.55847,234.28796)"
         id="g4160-3-5-3-6-8-1-3-7-3">
        <path
           inkscape:connector-curvature="0"
           id="path4162-6-5-0-48-5-1-6-4-1"
           style="fill:#ffffff;stroke:#000000;stroke-width:1;stroke-linecap:butt;stroke-linejoin:round;stroke-miterlimit:4;stroke-dasharray:none;stroke-opacity:1"
           d="m 118.277,36.316 c 0,3.598 -7.05,6.516 -15.75,6.516 -8.699,0 -16.132,-2.918 -16.132,-6.516 m 31.906,0.012 c 0,8.809 -7.141,15.953 -15.949,15.953 -8.809,0 -15.954,-7.144 -15.954,-15.953 0,-8.808 7.145,-15.949 15.954,-15.949 8.808,0 15.949,7.141 15.949,15.949 z" />
      </g>
      <g
         style="font-style:normal;font-variant:normal;font-weight:normal;font-stretch:normal;letter-spacing:normal;word-spacing:normal;text-anchor:start;fill:#000000;fill-opacity:1;fill-rule:evenodd;stroke:#000000;stroke-linecap:butt;stroke-linejoin:miter;stroke-miterlimit:10.43299961;stroke-dasharray:none;stroke-dashoffset:0;stroke-opacity:1"
         ns0:preamble="/home/scott/.config/inkscape/extensions/default_packages.tex"
         ns0:text="$+$"
         word-spacing="normal"
         letter-spacing="normal"
         font-size-adjust="none"
         font-stretch="normal"
         font-weight="normal"
         font-variant="normal"
         font-style="normal"
         stroke-miterlimit="10.433"
         xml:space="preserve"
         transform="matrix(5.4380586,0,0,-5.4380586,-536.25366,3913.3039)"
         id="content-90-7-0-2-3-1-4-4"><path
           id="path5765-9-1-8-2-5-2-3-9"
           style="font-style:normal;font-variant:normal;font-weight:normal;font-stretch:normal;letter-spacing:normal;word-spacing:normal;text-anchor:start;fill:#000000;fill-opacity:1;fill-rule:evenodd;stroke:#000000;stroke-width:0;stroke-linecap:butt;stroke-linejoin:miter;stroke-miterlimit:10.43299961;stroke-dasharray:none;stroke-dashoffset:0;stroke-opacity:1"
           word-spacing="normal"
           stroke-miterlimit="10.433"
           letter-spacing="normal"
           font-weight="normal"
           font-variant="normal"
           font-style="normal"
           font-stretch="normal"
           font-size-adjust="none"
           d="m 152.79,659.52 2.77,0 c 0.14,0 0.33,0 0.33,0.2 0,0.2 -0.19,0.2 -0.33,0.2 l -2.77,0 0,2.79 c 0,0.14 0,0.33 -0.2,0.33 -0.2,0 -0.2,-0.19 -0.2,-0.33 l 0,-2.79 -2.79,0 c -0.14,0 -0.33,0 -0.33,-0.2 0,-0.2 0.19,-0.2 0.33,-0.2 l 2.79,0 0,-2.79 c 0,-0.14 0,-0.32 0.2,-0.32 0.2,0 0.2,0.18 0.2,0.32 z"
           inkscape:connector-curvature="0" /></g>    </g>
    <path
       sodipodi:nodetypes="scscscscs"
       inkscape:connector-curvature="0"
       d="m 1035.2815,1458.0494 -382.00019,0 c -49.70564,0 -90.00002,40.2943 -90.00002,90 l 0,156 c 0,49.7057 40.29438,90 90.00002,90 l 382.00019,10e-5 c 49.7056,-10e-5 90,-40.2944 90,-90.0001 l 0,-156 c 0,-49.7057 -40.2944,-90 -90,-90 z"
       style="fill:none;fill-opacity:1;stroke:#000000;stroke-width:2.43000031;stroke-linecap:butt;stroke-linejoin:round;stroke-miterlimit:4;stroke-dasharray:none;stroke-dashoffset:0;stroke-opacity:1"
       id="path7231-7-8-7" />
  </g>
</svg>
