<?xml version="1.0" encoding="UTF-8" standalone="no"?>
<!-- Created with Inkscape (http://www.inkscape.org/) -->

<svg
   xmlns:ns0="http://www.iki.fi/pav/software/textext/"
   xmlns:dc="http://purl.org/dc/elements/1.1/"
   xmlns:cc="http://creativecommons.org/ns#"
   xmlns:rdf="http://www.w3.org/1999/02/22-rdf-syntax-ns#"
   xmlns:svg="http://www.w3.org/2000/svg"
   xmlns="http://www.w3.org/2000/svg"
   xmlns:sodipodi="http://sodipodi.sourceforge.net/DTD/sodipodi-0.dtd"
   xmlns:inkscape="http://www.inkscape.org/namespaces/inkscape"
   inkscape:version="0.91 r13725"
   version="1.1"
   id="svg2"
   viewBox="0 0 498.31381 363.13709"
   height="4.0348563in"
   width="5.5368199in"
   sodipodi:docname="kput2.svg">
  <sodipodi:namedview
     inkscape:window-maximized="1"
     inkscape:window-y="24"
     inkscape:window-x="65"
     inkscape:window-height="1056"
     inkscape:window-width="1855"
     showguides="false"
     objecttolerance="10000"
     showgrid="true"
     inkscape:current-layer="layer1"
     inkscape:document-units="in"
     inkscape:cy="-15.403709"
     inkscape:cx="86.986418"
     inkscape:zoom="0.25"
     inkscape:pageshadow="2"
     inkscape:pageopacity="0.0"
     borderopacity="1.0"
     bordercolor="#666666"
     pagecolor="#ffffff"
     id="base"
     units="in"
     fit-margin-top="0"
     fit-margin-left="0"
     fit-margin-right="0"
     fit-margin-bottom="0">
    <inkscape:grid
       snapvisiblegridlinesonly="true"
       id="grid4666"
       type="xygrid"
       originx="-538.68625"
       originy="1171.6371"
       spacingx="22.500002"
       spacingy="22.500001" />
  </sodipodi:namedview>
  <defs
     id="defs4" />
  <metadata
     id="metadata7">
    <rdf:RDF>
      <cc:Work
         rdf:about="">
        <dc:format>image/svg+xml</dc:format>
        <dc:type
           rdf:resource="http://purl.org/dc/dcmitype/StillImage" />
        <dc:title></dc:title>
      </cc:Work>
    </rdf:RDF>
  </metadata>
  <g
     id="layer1"
     inkscape:groupmode="layer"
     inkscape:label="Layer 1"
     transform="translate(-538.68622,-1860.8619)">
    <path
       sodipodi:nodetypes="ccccccccc"
       inkscape:connector-curvature="0"
       d="m 945.78503,1862.0769 -315.88385,0.3232 c -49.70563,0 -90.00001,40.2944 -90.00002,90 l 0,180.3838 c -4e-5,49.7057 40.29435,90.0001 90.00002,90.0001 l 315.88385,-0.3233 c 49.70561,0 89.99997,-40.2944 89.99997,-90 l 0,-180.3838 c 0,-49.7056 -40.29436,-90 -89.99997,-90 z"
       style="opacity:1;fill:#99cc33;fill-opacity:1;stroke:#000000;stroke-width:2.43000031;stroke-linecap:butt;stroke-linejoin:round;stroke-miterlimit:4;stroke-dasharray:none;stroke-dashoffset:0;stroke-opacity:1"
       id="path6552-0" />
    <path
       sodipodi:nodetypes="csccsscscc"
       inkscape:connector-curvature="0"
       d="m 820.54633,2099.9422 c 20.3532,-11.3425 34.1202,-33.0813 34.1202,-58.0356 0,-24.5696 -13.3459,-46.0221 -33.1838,-57.5038 l -156.1444,-88.8852 c -10.17571,-6.3412 -22.19281,-10.0046 -35.06541,-10.0046 -36.6682,0 -66.39356,29.7254 -66.39356,66.3936 l 10e-5,180.3838 c 0,36.6682 29.72536,66.3936 66.39356,66.3936 12.9459,0 25.0265,-3.7053 35.23901,-10.1131 z"
       style="opacity:1;fill:#ffcc00;fill-opacity:1;stroke:#000000;stroke-width:2.43000031;stroke-linecap:butt;stroke-linejoin:round;stroke-miterlimit:4;stroke-dasharray:none;stroke-dashoffset:0;stroke-opacity:1"
       id="path6271-4-8-8-9" />
    <path
       sodipodi:nodetypes="csccsscscc"
       inkscape:connector-curvature="0"
       d="m 755.51168,2100.1125 c -20.35319,-11.3425 -34.12017,-33.0813 -34.12017,-58.0356 0,-24.5696 13.34584,-46.0221 33.18371,-57.5038 l 156.14448,-88.8852 c 10.17569,-6.3412 22.19273,-10.0046 35.0654,-10.0046 36.66818,0 66.3936,29.7254 66.3936,66.3936 l -1e-4,180.3838 c 0,36.6682 -29.72545,66.3936 -66.39363,66.3936 -12.94596,0 -25.02651,-3.7053 -35.23902,-10.1131 z"
       style="fill:#ff9900;fill-opacity:1;stroke:#000000;stroke-width:2.43000031;stroke-linecap:butt;stroke-linejoin:round;stroke-miterlimit:4;stroke-dasharray:none;stroke-dashoffset:0;stroke-opacity:1"
       id="path6271-4-8" />
    <g
       transform="translate(-114.07923,-134.04503)"
       id="g6248">
      <g
         id="g4160-3-2-4-6"
         transform="matrix(2.7350495,0,0,2.7358307,779.93742,1986.7292)"
         style="fill:#ffffff">
        <path
           d="m 118.277,36.316 c 0,3.598 -7.05,6.516 -15.75,6.516 -8.699,0 -16.132,-2.918 -16.132,-6.516 m 31.906,0.012 c 0,8.809 -7.141,15.953 -15.949,15.953 -8.809,0 -15.954,-7.144 -15.954,-15.953 0,-8.808 7.145,-15.949 15.954,-15.949 8.808,0 15.949,7.141 15.949,15.949 z"
           style="fill:#ffffff;stroke:#000000;stroke-width:1;stroke-linecap:butt;stroke-linejoin:round;stroke-miterlimit:4;stroke-dasharray:none;stroke-opacity:1"
           id="path4162-6-58-0-9"
           inkscape:connector-curvature="0" />
      </g>
      <g
         style="font-style:normal;font-variant:normal;font-weight:normal;font-stretch:normal;letter-spacing:normal;word-spacing:normal;text-anchor:start;fill:#000000;fill-opacity:1;fill-rule:evenodd;stroke:#000000;stroke-linecap:butt;stroke-linejoin:miter;stroke-miterlimit:10.43299961;stroke-dasharray:none;stroke-dashoffset:0;stroke-opacity:1"
         ns0:preamble="/home/scott/.config/inkscape/extensions/default_packages.tex"
         ns0:text="$a_1^+$"
         word-spacing="normal"
         letter-spacing="normal"
         font-size-adjust="none"
         font-stretch="normal"
         font-weight="normal"
         font-variant="normal"
         font-style="normal"
         stroke-miterlimit="10.433"
         xml:space="preserve"
         transform="matrix(3.4318366,0,0,-3.4328169,530.14315,4344.4678)"
         id="content-6-0-4"><path
           id="path5750-2-4-2"
           style="font-style:normal;font-variant:normal;font-weight:normal;font-stretch:normal;letter-spacing:normal;word-spacing:normal;text-anchor:start;fill:#000000;fill-opacity:1;fill-rule:evenodd;stroke:#000000;stroke-width:0;stroke-linecap:butt;stroke-linejoin:miter;stroke-miterlimit:10.43299961;stroke-dasharray:none;stroke-dashoffset:0;stroke-opacity:1"
           word-spacing="normal"
           stroke-miterlimit="10.433"
           letter-spacing="normal"
           font-weight="normal"
           font-variant="normal"
           font-style="normal"
           font-stretch="normal"
           font-size-adjust="none"
           d="m 152.43,661 -0.02,0.03 -0.02,0.04 -0.02,0.03 -0.02,0.03 -0.02,0.03 -0.02,0.03 -0.02,0.03 -0.02,0.03 -0.02,0.03 -0.03,0.03 -0.02,0.03 -0.02,0.02 -0.03,0.03 -0.03,0.02 -0.02,0.02 -0.03,0.03 -0.03,0.02 -0.03,0.02 -0.03,0.01 -0.03,0.02 -0.03,0.02 -0.04,0.01 -0.03,0.02 -0.03,0.01 -0.04,0.01 -0.03,0.01 -0.04,0.01 -0.04,0 -0.04,0.01 -0.04,0 -0.04,0.01 -0.04,0 0.01,-0.22 c 0.65,0 0.79,-0.82 0.79,-0.88 0,-0.06 -0.02,-0.12 -0.03,-0.17 l -0.5,-1.95 c -0.05,-0.18 -0.05,-0.2 -0.2,-0.37 -0.44,-0.55 -0.85,-0.71 -1.13,-0.71 -0.49,0 -0.63,0.55 -0.63,0.94 0,0.5 0.31,1.72 0.54,2.18 0.31,0.59 0.76,0.96 1.16,0.96 l -0.01,0.22 c -1.17,0 -2.4,-1.47 -2.4,-2.92 0,-0.94 0.55,-1.6 1.32,-1.6 0.2,0 0.7,0.04 1.3,0.75 0.08,-0.42 0.43,-0.75 0.9,-0.75 0.35,0 0.58,0.23 0.74,0.55 0.17,0.36 0.3,0.97 0.3,0.99 0,0.1 -0.09,0.1 -0.12,0.1 -0.1,0 -0.11,-0.04 -0.14,-0.18 -0.17,-0.65 -0.35,-1.24 -0.76,-1.24 -0.26,0 -0.29,0.26 -0.29,0.46 0,0.22 0.02,0.3 0.13,0.74 0.11,0.42 0.13,0.52 0.22,0.89 l 0.35,1.4 c 0.07,0.28 0.07,0.3 0.07,0.34 0,0.17 -0.12,0.27 -0.29,0.27 -0.24,0 -0.38,-0.22 -0.41,-0.44 z"
           inkscape:connector-curvature="0" /><path
           id="path5752-84-6-2"
           style="font-style:normal;font-variant:normal;font-weight:normal;font-stretch:normal;letter-spacing:normal;word-spacing:normal;text-anchor:start;fill:#000000;fill-opacity:1;fill-rule:evenodd;stroke:#000000;stroke-width:0;stroke-linecap:butt;stroke-linejoin:miter;stroke-miterlimit:10.43299961;stroke-dasharray:none;stroke-dashoffset:0;stroke-opacity:1"
           word-spacing="normal"
           stroke-miterlimit="10.433"
           letter-spacing="normal"
           font-weight="normal"
           font-variant="normal"
           font-style="normal"
           font-stretch="normal"
           font-size-adjust="none"
           d="m 157.2,663.08 2.14,0 c 0.09,0 0.26,0 0.26,0.16 0,0.18 -0.16,0.18 -0.26,0.18 l -2.14,0 0,2.14 c 0,0.09 0,0.26 -0.16,0.26 -0.18,0 -0.18,-0.16 -0.18,-0.26 l 0,-2.14 -2.14,0 c -0.09,0 -0.26,0 -0.26,-0.17 0,-0.17 0.16,-0.17 0.26,-0.17 l 2.14,0 0,-2.15 c 0,-0.09 0,-0.25 0.17,-0.25 0.17,0 0.17,0.16 0.17,0.25 z"
           inkscape:connector-curvature="0" /><path
           id="path5754-7-2-6"
           style="font-style:normal;font-variant:normal;font-weight:normal;font-stretch:normal;letter-spacing:normal;word-spacing:normal;text-anchor:start;fill:#000000;fill-opacity:1;fill-rule:evenodd;stroke:#000000;stroke-width:0;stroke-linecap:butt;stroke-linejoin:miter;stroke-miterlimit:10.43299961;stroke-dasharray:none;stroke-dashoffset:0;stroke-opacity:1"
           word-spacing="normal"
           stroke-miterlimit="10.433"
           letter-spacing="normal"
           font-weight="normal"
           font-variant="normal"
           font-style="normal"
           font-stretch="normal"
           font-size-adjust="none"
           d="m 156.31,659.01 0,0.01 0,0.01 0,0.01 0,0.01 0,0 0,0.01 0,0.01 0,0.01 0,0 0,0.01 0,0 0,0.01 0,0.01 0,0 0,0.01 0,0 -0.01,0.01 0,0 0,0.01 0,0.01 0,0.01 -0.01,0 0,0.01 -0.01,0.01 0,0 -0.01,0.01 0,0 -0.01,0 -0.01,0.01 0,0 -0.01,0 -0.01,0 -0.01,0 0,0 -0.01,0 0,0.01 -0.01,0 -0.01,0 0,0 -0.01,0 -0.01,0 0,0 -0.01,0 -0.01,0 -0.01,0 0,0 -0.01,0 -0.01,0 -0.01,0 -0.01,0 c -0.44,-0.44 -1.08,-0.45 -1.36,-0.45 l 0,-0.25 c 0.16,0 0.62,0 1.01,0.2 l 0,-3.56 c 0,-0.23 0,-0.32 -0.7,-0.32 l -0.27,0 0,-0.25 c 0.13,0 0.99,0.02 1.24,0.02 0.22,0 1.1,-0.02 1.25,-0.02 l 0,0.25 -0.26,0 c -0.7,0 -0.7,0.09 -0.7,0.32 z"
           inkscape:connector-curvature="0" /></g>    </g>
    <g
       transform="translate(-114.07923,-111.66125)"
       id="g6256">
      <g
         id="g4160-3-1-2-6-4"
         transform="matrix(2.7350495,0,0,2.7358307,779.93742,2144.7293)"
         style="fill:#ffffff">
        <path
           d="m 118.277,36.316 c 0,3.598 -7.05,6.516 -15.75,6.516 -8.699,0 -16.132,-2.918 -16.132,-6.516 m 31.906,0.012 c 0,8.809 -7.141,15.953 -15.949,15.953 -8.809,0 -15.954,-7.144 -15.954,-15.953 0,-8.808 7.145,-15.949 15.954,-15.949 8.808,0 15.949,7.141 15.949,15.949 z"
           style="fill:#ffffff;stroke:#000000;stroke-width:1;stroke-linecap:butt;stroke-linejoin:round;stroke-miterlimit:4;stroke-dasharray:none;stroke-opacity:1"
           id="path4162-6-0-4-7-1"
           inkscape:connector-curvature="0" />
      </g>
      <g
         style="font-style:normal;font-variant:normal;font-weight:normal;font-stretch:normal;letter-spacing:normal;word-spacing:normal;text-anchor:start;fill:#000000;fill-opacity:1;fill-rule:evenodd;stroke:#000000;stroke-linecap:butt;stroke-linejoin:miter;stroke-miterlimit:10.43299961;stroke-dasharray:none;stroke-dashoffset:0;stroke-opacity:1"
         ns0:preamble="/home/scott/.config/inkscape/extensions/default_packages.tex"
         ns0:text="$a_1^-$"
         word-spacing="normal"
         letter-spacing="normal"
         font-size-adjust="none"
         font-stretch="normal"
         font-weight="normal"
         font-variant="normal"
         font-style="normal"
         stroke-miterlimit="10.433"
         xml:space="preserve"
         transform="matrix(3.4849918,0,0,-3.4859873,522.21715,4533.3875)"
         id="g6967-0-5-2"><path
           id="path6969-6-6-8"
           style="font-style:normal;font-variant:normal;font-weight:normal;font-stretch:normal;letter-spacing:normal;word-spacing:normal;text-anchor:start;fill:#000000;fill-opacity:1;fill-rule:evenodd;stroke:#000000;stroke-width:0;stroke-linecap:butt;stroke-linejoin:miter;stroke-miterlimit:10.43299961;stroke-dasharray:none;stroke-dashoffset:0;stroke-opacity:1"
           word-spacing="normal"
           stroke-miterlimit="10.433"
           letter-spacing="normal"
           font-weight="normal"
           font-variant="normal"
           font-style="normal"
           font-stretch="normal"
           font-size-adjust="none"
           d="m 152.43,661 -0.02,0.03 -0.02,0.04 -0.02,0.03 -0.02,0.03 -0.02,0.03 -0.02,0.03 -0.02,0.03 -0.02,0.03 -0.02,0.03 -0.03,0.03 -0.02,0.03 -0.02,0.02 -0.03,0.03 -0.03,0.02 -0.02,0.02 -0.03,0.03 -0.03,0.02 -0.03,0.02 -0.03,0.01 -0.03,0.02 -0.03,0.02 -0.04,0.01 -0.03,0.02 -0.03,0.01 -0.04,0.01 -0.03,0.01 -0.04,0.01 -0.04,0 -0.04,0.01 -0.04,0 -0.04,0.01 -0.04,0 0.01,-0.22 c 0.65,0 0.79,-0.82 0.79,-0.88 0,-0.06 -0.02,-0.12 -0.03,-0.17 l -0.5,-1.95 c -0.05,-0.18 -0.05,-0.2 -0.2,-0.37 -0.44,-0.55 -0.85,-0.71 -1.13,-0.71 -0.49,0 -0.63,0.55 -0.63,0.94 0,0.5 0.31,1.72 0.54,2.18 0.31,0.59 0.76,0.96 1.16,0.96 l -0.01,0.22 c -1.17,0 -2.4,-1.47 -2.4,-2.92 0,-0.94 0.55,-1.6 1.32,-1.6 0.2,0 0.7,0.04 1.3,0.75 0.08,-0.42 0.43,-0.75 0.9,-0.75 0.35,0 0.58,0.23 0.74,0.55 0.17,0.36 0.3,0.97 0.3,0.99 0,0.1 -0.09,0.1 -0.12,0.1 -0.1,0 -0.11,-0.04 -0.14,-0.18 -0.17,-0.65 -0.35,-1.24 -0.76,-1.24 -0.26,0 -0.29,0.26 -0.29,0.46 0,0.22 0.02,0.3 0.13,0.74 0.11,0.42 0.13,0.52 0.22,0.89 l 0.35,1.4 c 0.07,0.28 0.07,0.3 0.07,0.34 0,0.17 -0.12,0.27 -0.29,0.27 -0.24,0 -0.38,-0.22 -0.41,-0.44 z"
           inkscape:connector-curvature="0" /><path
           id="path6971-2-9-8"
           style="font-style:normal;font-variant:normal;font-weight:normal;font-stretch:normal;letter-spacing:normal;word-spacing:normal;text-anchor:start;fill:#000000;fill-opacity:1;fill-rule:evenodd;stroke:#000000;stroke-width:0;stroke-linecap:butt;stroke-linejoin:miter;stroke-miterlimit:10.43299961;stroke-dasharray:none;stroke-dashoffset:0;stroke-opacity:1"
           word-spacing="normal"
           stroke-miterlimit="10.433"
           letter-spacing="normal"
           font-weight="normal"
           font-variant="normal"
           font-style="normal"
           font-stretch="normal"
           font-size-adjust="none"
           d="m 159.16,663.08 0.01,0 0.02,0 0.01,0 0.01,0 0.02,0 0.01,0 0.01,0 0.02,0 0.01,0 0.01,0 0.01,0 0.01,0.01 0.01,0 0.01,0 0.01,0.01 0.01,0 0.01,0.01 0.01,0 0.01,0.01 0.01,0 0.01,0.01 0.01,0.01 0,0 0,0.01 0.01,0 0,0.01 0,0 0.01,0.01 0,0 0,0.01 0,0 0,0.01 0.01,0 0,0.01 0,0.01 0,0 0,0.01 0,0.01 0,0.01 0,0 c 0,0.18 -0.16,0.18 -0.28,0.18 l -4.15,0 c -0.11,0 -0.28,0 -0.28,-0.17 0,-0.17 0.16,-0.17 0.28,-0.17 z"
           inkscape:connector-curvature="0" /><path
           id="path6973-99-8-9"
           style="font-style:normal;font-variant:normal;font-weight:normal;font-stretch:normal;letter-spacing:normal;word-spacing:normal;text-anchor:start;fill:#000000;fill-opacity:1;fill-rule:evenodd;stroke:#000000;stroke-width:0;stroke-linecap:butt;stroke-linejoin:miter;stroke-miterlimit:10.43299961;stroke-dasharray:none;stroke-dashoffset:0;stroke-opacity:1"
           word-spacing="normal"
           stroke-miterlimit="10.433"
           letter-spacing="normal"
           font-weight="normal"
           font-variant="normal"
           font-style="normal"
           font-stretch="normal"
           font-size-adjust="none"
           d="m 156.31,659.01 0,0.01 0,0.01 0,0.01 0,0.01 0,0 0,0.01 0,0.01 0,0.01 0,0 0,0.01 0,0 0,0.01 0,0.01 0,0 0,0.01 0,0 -0.01,0.01 0,0 0,0.01 0,0.01 0,0.01 -0.01,0 0,0.01 -0.01,0.01 0,0 -0.01,0.01 0,0 -0.01,0 -0.01,0.01 0,0 -0.01,0 -0.01,0 -0.01,0 0,0 -0.01,0 0,0.01 -0.01,0 -0.01,0 0,0 -0.01,0 -0.01,0 0,0 -0.01,0 -0.01,0 -0.01,0 0,0 -0.01,0 -0.01,0 -0.01,0 -0.01,0 c -0.44,-0.44 -1.08,-0.45 -1.36,-0.45 l 0,-0.25 c 0.16,0 0.62,0 1.01,0.2 l 0,-3.56 c 0,-0.23 0,-0.32 -0.7,-0.32 l -0.27,0 0,-0.25 c 0.13,0 0.99,0.02 1.24,0.02 0.22,0 1.1,-0.02 1.25,-0.02 l 0,0.25 -0.26,0 c -0.7,0 -0.7,0.09 -0.7,0.32 z"
           inkscape:connector-curvature="0" /></g>    </g>
    <g
       transform="translate(-92.423882,-201.65046)"
       id="g6264">
      <g
         id="g4160-3-5-3-8-2-7-9-3-4"
         transform="matrix(2.7350495,0,0,2.7358307,600.02279,2144.8474)"
         style="fill:#6699ff">
        <path
           d="m 118.277,36.316 c 0,3.598 -7.05,6.516 -15.75,6.516 -8.699,0 -16.132,-2.918 -16.132,-6.516 m 31.906,0.012 c 0,8.809 -7.141,15.953 -15.949,15.953 -8.809,0 -15.954,-7.144 -15.954,-15.953 0,-8.808 7.145,-15.949 15.954,-15.949 8.808,0 15.949,7.141 15.949,15.949 z"
           style="fill:#6699ff;stroke:#000000;stroke-width:1;stroke-linecap:butt;stroke-linejoin:round;stroke-miterlimit:4;stroke-dasharray:none;stroke-opacity:1"
           id="path4162-6-5-0-4-0-5-3-2-7"
           inkscape:connector-curvature="0" />
      </g>
      <g
         id="g8587-9-38-1-6"
         transform="matrix(3.5492908,0,0,-3.5503047,337.5129,4578.638)"
         xml:space="preserve"
         stroke-miterlimit="10.433"
         font-style="normal"
         font-variant="normal"
         font-weight="normal"
         font-stretch="normal"
         font-size-adjust="none"
         letter-spacing="normal"
         word-spacing="normal"
         ns0:text="$b_1$"
         ns0:preamble="/home/scott/.config/inkscape/extensions/default_packages.tex"
         style="font-style:normal;font-variant:normal;font-weight:normal;font-stretch:normal;letter-spacing:normal;word-spacing:normal;text-anchor:start;fill:#000000;fill-opacity:1;fill-rule:evenodd;stroke:#000000;stroke-linecap:butt;stroke-linejoin:miter;stroke-miterlimit:10.43299961;stroke-dasharray:none;stroke-dashoffset:0;stroke-opacity:1"><path
           inkscape:connector-curvature="0"
           d="m 151.09,664.04 0,0 0,0 0,0 0,0 0,0 0,0.01 0,0 0,0 0,0.01 0,0 0,0.01 0,0 -0.01,0.01 0,0 0,0.01 0,0 -0.01,0.01 0,0 0,0.01 -0.01,0 0,0 0,0.01 -0.01,0 0,0 0,0 0,0.01 -0.01,0 0,0 0,0 -0.01,0 0,0 0,0.01 -0.01,0 0,0 -0.01,0 0,0 -0.01,0 0,0 -0.01,0 0,0.01 -0.01,0 0,0 -0.01,0 0,0 -0.01,0 c -0.23,0 -0.95,-0.08 -1.21,-0.1 -0.08,-0.01 -0.19,-0.02 -0.19,-0.2 0,-0.12 0.09,-0.12 0.24,-0.12 0.47,0 0.49,-0.07 0.49,-0.17 0,-0.07 -0.09,-0.41 -0.14,-0.62 l -0.81,-3.25 c -0.12,-0.49 -0.16,-0.65 -0.16,-1 0,-0.95 0.53,-1.57 1.26,-1.57 l 0,0.22 c -0.34,0 -0.66,0.27 -0.66,1.01 0,0.19 0,0.38 0.15,1 l 0.22,0.92 c 0.06,0.22 0.06,0.24 0.15,0.35 0.49,0.65 0.94,0.8 1.2,0.8 0.36,0 0.63,-0.3 0.63,-0.94 0,-0.59 -0.33,-1.73 -0.51,-2.11 -0.33,-0.67 -0.79,-1.03 -1.18,-1.03 l 0,-0.22 c 1.18,0 2.4,1.49 2.4,2.92 0,0.91 -0.52,1.6 -1.32,1.6 -0.46,0 -0.87,-0.29 -1.17,-0.6 z"
           font-size-adjust="none"
           font-stretch="normal"
           font-style="normal"
           font-variant="normal"
           font-weight="normal"
           letter-spacing="normal"
           stroke-miterlimit="10.433"
           word-spacing="normal"
           style="font-style:normal;font-variant:normal;font-weight:normal;font-stretch:normal;letter-spacing:normal;word-spacing:normal;text-anchor:start;fill:#000000;fill-opacity:1;fill-rule:evenodd;stroke:#000000;stroke-width:0;stroke-linecap:butt;stroke-linejoin:miter;stroke-miterlimit:10.43299961;stroke-dasharray:none;stroke-dashoffset:0;stroke-opacity:1"
           id="path8589-6-05-5-8" /><path
           inkscape:connector-curvature="0"
           d="m 155.32,660.17 0,0.01 0,0.01 0,0.01 0,0.01 0,0.01 0,0 0,0.01 0,0.01 0,0 0,0.01 0,0.01 0,0 0,0.01 0,0 0,0.01 0,0.01 -0.01,0 0,0.01 0,0 0,0.01 0,0.01 -0.01,0.01 0,0 -0.01,0.01 0,0 -0.01,0.01 0,0 -0.01,0.01 -0.01,0 0,0 -0.01,0 -0.01,0.01 -0.01,0 0,0 -0.01,0 0,0 -0.01,0 -0.01,0 0,0 -0.01,0 -0.01,0 0,0 -0.01,0 -0.01,0 -0.01,0 0,0 -0.01,0 -0.01,0 -0.01,0 -0.01,0 c -0.44,-0.44 -1.08,-0.45 -1.37,-0.45 l 0,-0.25 c 0.17,0 0.63,0 1.02,0.2 l 0,-3.56 c 0,-0.23 0,-0.32 -0.7,-0.32 l -0.27,0 0,-0.25 c 0.13,0.01 0.99,0.03 1.25,0.03 0.21,0 1.09,-0.02 1.24,-0.03 l 0,0.25 -0.26,0 c -0.7,0 -0.7,0.09 -0.7,0.32 z"
           font-size-adjust="none"
           font-stretch="normal"
           font-style="normal"
           font-variant="normal"
           font-weight="normal"
           letter-spacing="normal"
           stroke-miterlimit="10.433"
           word-spacing="normal"
           style="font-style:normal;font-variant:normal;font-weight:normal;font-stretch:normal;letter-spacing:normal;word-spacing:normal;text-anchor:start;fill:#000000;fill-opacity:1;fill-rule:evenodd;stroke:#000000;stroke-width:0;stroke-linecap:butt;stroke-linejoin:miter;stroke-miterlimit:10.43299961;stroke-dasharray:none;stroke-dashoffset:0;stroke-opacity:1"
           id="path8591-2-6-9-9" /></g>    </g>
    <path
       sodipodi:nodetypes="csccsscscc"
       inkscape:connector-curvature="0"
       d="m 820.54634,2099.9422 c 20.3532,-11.3425 34.12021,-33.0813 34.12021,-58.0356 0,-24.5696 -13.3459,-46.0221 -33.18381,-57.5038 l -156.1444,-88.8852 c -10.17572,-6.3412 -22.19282,-10.0046 -35.06542,-10.0046 -36.6682,0 -66.39356,29.7254 -66.39356,66.3936 l 10e-5,180.3838 c 0,36.6682 29.72536,66.3936 66.39356,66.3936 12.9459,0 25.0265,-3.7053 35.23902,-10.1131 z"
       style="opacity:1;fill:none;fill-opacity:1;stroke:#000000;stroke-width:2.43000031;stroke-linecap:butt;stroke-linejoin:round;stroke-miterlimit:4;stroke-dasharray:none;stroke-dashoffset:0;stroke-opacity:1"
       id="path6271-4-8-8-9-6" />
    <g
       id="g8473">
      <g
         id="g4160-3-2-4-6-5"
         transform="matrix(2.7350495,0,0,2.7358307,349.97431,1853.0074)"
         style="fill:#ffffff">
        <path
           d="m 118.277,36.316 c 0,3.598 -7.05,6.516 -15.75,6.516 -8.699,0 -16.132,-2.918 -16.132,-6.516 m 31.906,0.012 c 0,8.809 -7.141,15.953 -15.949,15.953 -8.809,0 -15.954,-7.144 -15.954,-15.953 0,-8.808 7.145,-15.949 15.954,-15.949 8.808,0 15.949,7.141 15.949,15.949 z"
           style="fill:#ffffff;stroke:#000000;stroke-width:1;stroke-linecap:butt;stroke-linejoin:round;stroke-miterlimit:4;stroke-dasharray:none;stroke-opacity:1"
           id="path4162-6-58-0-9-40"
           inkscape:connector-curvature="0" />
      </g>
      <g
         id="g7777"
         transform="matrix(3.4318368,0,0,-3.4318368,100.17999,4210.0988)"
         xml:space="preserve"
         stroke-miterlimit="10.433"
         font-style="normal"
         font-variant="normal"
         font-weight="normal"
         font-stretch="normal"
         font-size-adjust="none"
         letter-spacing="normal"
         word-spacing="normal"
         ns0:text="$a_2^+$"
         ns0:preamble="/home/scott/.config/inkscape/extensions/default_packages.tex"
         style="font-style:normal;font-variant:normal;font-weight:normal;font-stretch:normal;letter-spacing:normal;word-spacing:normal;text-anchor:start;fill:#000000;fill-opacity:1;fill-rule:evenodd;stroke:#000000;stroke-linecap:butt;stroke-linejoin:miter;stroke-miterlimit:10.43299961;stroke-dasharray:none;stroke-dashoffset:0;stroke-opacity:1"><path
           inkscape:connector-curvature="0"
           d="m 152.43,661 -0.02,0.03 -0.02,0.04 -0.02,0.03 -0.02,0.03 -0.02,0.03 -0.02,0.03 -0.02,0.03 -0.02,0.03 -0.02,0.03 -0.03,0.03 -0.02,0.03 -0.02,0.02 -0.03,0.03 -0.03,0.02 -0.02,0.02 -0.03,0.03 -0.03,0.02 -0.03,0.02 -0.03,0.01 -0.03,0.02 -0.03,0.02 -0.04,0.01 -0.03,0.02 -0.03,0.01 -0.04,0.01 -0.03,0.01 -0.04,0.01 -0.04,0 -0.04,0.01 -0.04,0 -0.04,0.01 -0.04,0 0.01,-0.22 c 0.65,0 0.79,-0.82 0.79,-0.88 0,-0.06 -0.02,-0.12 -0.03,-0.17 l -0.5,-1.95 c -0.05,-0.18 -0.05,-0.2 -0.2,-0.37 -0.44,-0.55 -0.85,-0.71 -1.13,-0.71 -0.49,0 -0.63,0.55 -0.63,0.94 0,0.5 0.31,1.72 0.54,2.18 0.31,0.59 0.76,0.96 1.16,0.96 l -0.01,0.22 c -1.17,0 -2.4,-1.47 -2.4,-2.92 0,-0.94 0.55,-1.6 1.32,-1.6 0.2,0 0.7,0.04 1.3,0.75 0.08,-0.42 0.43,-0.75 0.9,-0.75 0.35,0 0.58,0.23 0.74,0.55 0.17,0.36 0.3,0.97 0.3,0.99 0,0.1 -0.09,0.1 -0.12,0.1 -0.1,0 -0.11,-0.04 -0.14,-0.18 -0.17,-0.65 -0.35,-1.24 -0.76,-1.24 -0.26,0 -0.29,0.26 -0.29,0.46 0,0.22 0.02,0.3 0.13,0.74 0.11,0.42 0.13,0.52 0.22,0.89 l 0.35,1.4 c 0.07,0.28 0.07,0.3 0.07,0.34 0,0.17 -0.12,0.27 -0.29,0.27 -0.24,0 -0.38,-0.22 -0.41,-0.44 z"
           font-size-adjust="none"
           font-stretch="normal"
           font-style="normal"
           font-variant="normal"
           font-weight="normal"
           letter-spacing="normal"
           stroke-miterlimit="10.433"
           word-spacing="normal"
           style="font-style:normal;font-variant:normal;font-weight:normal;font-stretch:normal;letter-spacing:normal;word-spacing:normal;text-anchor:start;fill:#000000;fill-opacity:1;fill-rule:evenodd;stroke:#000000;stroke-width:0;stroke-linecap:butt;stroke-linejoin:miter;stroke-miterlimit:10.43299961;stroke-dasharray:none;stroke-dashoffset:0;stroke-opacity:1"
           id="path7779" /><path
           inkscape:connector-curvature="0"
           d="m 157.2,663.08 2.14,0 c 0.09,0 0.26,0 0.26,0.16 0,0.18 -0.16,0.18 -0.26,0.18 l -2.14,0 0,2.14 c 0,0.09 0,0.26 -0.16,0.26 -0.18,0 -0.18,-0.16 -0.18,-0.26 l 0,-2.14 -2.14,0 c -0.09,0 -0.26,0 -0.26,-0.17 0,-0.17 0.16,-0.17 0.26,-0.17 l 2.14,0 0,-2.15 c 0,-0.09 0,-0.25 0.17,-0.25 0.17,0 0.17,0.16 0.17,0.25 z"
           font-size-adjust="none"
           font-stretch="normal"
           font-style="normal"
           font-variant="normal"
           font-weight="normal"
           letter-spacing="normal"
           stroke-miterlimit="10.433"
           word-spacing="normal"
           style="font-style:normal;font-variant:normal;font-weight:normal;font-stretch:normal;letter-spacing:normal;word-spacing:normal;text-anchor:start;fill:#000000;fill-opacity:1;fill-rule:evenodd;stroke:#000000;stroke-width:0;stroke-linecap:butt;stroke-linejoin:miter;stroke-miterlimit:10.43299961;stroke-dasharray:none;stroke-dashoffset:0;stroke-opacity:1"
           id="path7781" /><path
           inkscape:connector-curvature="0"
           d="m 157.5,655.85 -0.24,0 c -0.02,-0.16 -0.09,-0.57 -0.18,-0.64 -0.06,-0.04 -0.59,-0.04 -0.69,-0.04 l -1.29,0 c 0.74,0.65 0.98,0.84 1.4,1.17 0.52,0.41 1,0.85 1,1.51 0,0.84 -0.74,1.36 -1.63,1.36 -0.87,0 -1.46,-0.61 -1.46,-1.25 0,-0.36 0.3,-0.39 0.37,-0.39 0.17,0 0.37,0.12 0.37,0.37 0,0.12 -0.05,0.37 -0.41,0.37 0.22,0.49 0.69,0.65 1.02,0.65 0.7,0 1.06,-0.55 1.06,-1.11 0,-0.61 -0.43,-1.09 -0.66,-1.34 l -1.68,-1.66 c -0.07,-0.06 -0.07,-0.08 -0.07,-0.27 l 2.88,0 z"
           font-size-adjust="none"
           font-stretch="normal"
           font-style="normal"
           font-variant="normal"
           font-weight="normal"
           letter-spacing="normal"
           stroke-miterlimit="10.433"
           word-spacing="normal"
           style="font-style:normal;font-variant:normal;font-weight:normal;font-stretch:normal;letter-spacing:normal;word-spacing:normal;text-anchor:start;fill:#000000;fill-opacity:1;fill-rule:evenodd;stroke:#000000;stroke-width:0;stroke-linecap:butt;stroke-linejoin:miter;stroke-miterlimit:10.43299961;stroke-dasharray:none;stroke-dashoffset:0;stroke-opacity:1"
           id="path7783" /></g>    </g>
    <g
       id="g9865">
      <g
         id="g4160-3-1-2-6-4-2"
         transform="matrix(2.7350495,0,0,2.7358307,349.97431,2033.3913)"
         style="fill:#ffffff">
        <path
           d="m 118.277,36.316 c 0,3.598 -7.05,6.516 -15.75,6.516 -8.699,0 -16.132,-2.918 -16.132,-6.516 m 31.906,0.012 c 0,8.809 -7.141,15.953 -15.949,15.953 -8.809,0 -15.954,-7.144 -15.954,-15.953 0,-8.808 7.145,-15.949 15.954,-15.949 8.808,0 15.949,7.141 15.949,15.949 z"
           style="fill:#ffffff;stroke:#000000;stroke-width:1;stroke-linecap:butt;stroke-linejoin:round;stroke-miterlimit:4;stroke-dasharray:none;stroke-opacity:1"
           id="path4162-6-0-4-7-1-2"
           inkscape:connector-curvature="0" />
      </g>
      <g
         style="font-style:normal;font-variant:normal;font-weight:normal;font-stretch:normal;letter-spacing:normal;word-spacing:normal;text-anchor:start;fill:#000000;fill-opacity:1;fill-rule:evenodd;stroke:#000000;stroke-linecap:butt;stroke-linejoin:miter;stroke-miterlimit:10.43299961;stroke-dasharray:none;stroke-dashoffset:0;stroke-opacity:1"
         ns0:preamble="/home/scott/.config/inkscape/extensions/default_packages.tex"
         ns0:text="$a_2^-$"
         word-spacing="normal"
         letter-spacing="normal"
         font-size-adjust="none"
         font-stretch="normal"
         font-weight="normal"
         font-variant="normal"
         font-style="normal"
         stroke-miterlimit="10.433"
         xml:space="preserve"
         transform="matrix(3.484992,0,0,-3.484992,92.254015,4421.3938)"
         id="g9168"><path
           id="path9170"
           style="font-style:normal;font-variant:normal;font-weight:normal;font-stretch:normal;letter-spacing:normal;word-spacing:normal;text-anchor:start;fill:#000000;fill-opacity:1;fill-rule:evenodd;stroke:#000000;stroke-width:0;stroke-linecap:butt;stroke-linejoin:miter;stroke-miterlimit:10.43299961;stroke-dasharray:none;stroke-dashoffset:0;stroke-opacity:1"
           word-spacing="normal"
           stroke-miterlimit="10.433"
           letter-spacing="normal"
           font-weight="normal"
           font-variant="normal"
           font-style="normal"
           font-stretch="normal"
           font-size-adjust="none"
           d="m 152.43,661 -0.02,0.03 -0.02,0.04 -0.02,0.03 -0.02,0.03 -0.02,0.03 -0.02,0.03 -0.02,0.03 -0.02,0.03 -0.02,0.03 -0.03,0.03 -0.02,0.03 -0.02,0.02 -0.03,0.03 -0.03,0.02 -0.02,0.02 -0.03,0.03 -0.03,0.02 -0.03,0.02 -0.03,0.01 -0.03,0.02 -0.03,0.02 -0.04,0.01 -0.03,0.02 -0.03,0.01 -0.04,0.01 -0.03,0.01 -0.04,0.01 -0.04,0 -0.04,0.01 -0.04,0 -0.04,0.01 -0.04,0 0.01,-0.22 c 0.65,0 0.79,-0.82 0.79,-0.88 0,-0.06 -0.02,-0.12 -0.03,-0.17 l -0.5,-1.95 c -0.05,-0.18 -0.05,-0.2 -0.2,-0.37 -0.44,-0.55 -0.85,-0.71 -1.13,-0.71 -0.49,0 -0.63,0.55 -0.63,0.94 0,0.5 0.31,1.72 0.54,2.18 0.31,0.59 0.76,0.96 1.16,0.96 l -0.01,0.22 c -1.17,0 -2.4,-1.47 -2.4,-2.92 0,-0.94 0.55,-1.6 1.32,-1.6 0.2,0 0.7,0.04 1.3,0.75 0.08,-0.42 0.43,-0.75 0.9,-0.75 0.35,0 0.58,0.23 0.74,0.55 0.17,0.36 0.3,0.97 0.3,0.99 0,0.1 -0.09,0.1 -0.12,0.1 -0.1,0 -0.11,-0.04 -0.14,-0.18 -0.17,-0.65 -0.35,-1.24 -0.76,-1.24 -0.26,0 -0.29,0.26 -0.29,0.46 0,0.22 0.02,0.3 0.13,0.74 0.11,0.42 0.13,0.52 0.22,0.89 l 0.35,1.4 c 0.07,0.28 0.07,0.3 0.07,0.34 0,0.17 -0.12,0.27 -0.29,0.27 -0.24,0 -0.38,-0.22 -0.41,-0.44 z"
           inkscape:connector-curvature="0" /><path
           id="path9172"
           style="font-style:normal;font-variant:normal;font-weight:normal;font-stretch:normal;letter-spacing:normal;word-spacing:normal;text-anchor:start;fill:#000000;fill-opacity:1;fill-rule:evenodd;stroke:#000000;stroke-width:0;stroke-linecap:butt;stroke-linejoin:miter;stroke-miterlimit:10.43299961;stroke-dasharray:none;stroke-dashoffset:0;stroke-opacity:1"
           word-spacing="normal"
           stroke-miterlimit="10.433"
           letter-spacing="normal"
           font-weight="normal"
           font-variant="normal"
           font-style="normal"
           font-stretch="normal"
           font-size-adjust="none"
           d="m 159.16,663.08 0.01,0 0.02,0 0.01,0 0.01,0 0.02,0 0.01,0 0.01,0 0.02,0 0.01,0 0.01,0 0.01,0 0.01,0.01 0.01,0 0.01,0 0.01,0.01 0.01,0 0.01,0.01 0.01,0 0.01,0.01 0.01,0 0.01,0.01 0.01,0.01 0,0 0,0.01 0.01,0 0,0.01 0,0 0.01,0.01 0,0 0,0.01 0,0 0,0.01 0.01,0 0,0.01 0,0.01 0,0 0,0.01 0,0.01 0,0.01 0,0 c 0,0.18 -0.16,0.18 -0.28,0.18 l -4.15,0 c -0.11,0 -0.28,0 -0.28,-0.17 0,-0.17 0.16,-0.17 0.28,-0.17 z"
           inkscape:connector-curvature="0" /><path
           id="path9174"
           style="font-style:normal;font-variant:normal;font-weight:normal;font-stretch:normal;letter-spacing:normal;word-spacing:normal;text-anchor:start;fill:#000000;fill-opacity:1;fill-rule:evenodd;stroke:#000000;stroke-width:0;stroke-linecap:butt;stroke-linejoin:miter;stroke-miterlimit:10.43299961;stroke-dasharray:none;stroke-dashoffset:0;stroke-opacity:1"
           word-spacing="normal"
           stroke-miterlimit="10.433"
           letter-spacing="normal"
           font-weight="normal"
           font-variant="normal"
           font-style="normal"
           font-stretch="normal"
           font-size-adjust="none"
           d="m 157.5,655.85 -0.24,0 c -0.02,-0.16 -0.09,-0.57 -0.18,-0.64 -0.06,-0.04 -0.59,-0.04 -0.69,-0.04 l -1.29,0 c 0.74,0.65 0.98,0.84 1.4,1.17 0.52,0.41 1,0.85 1,1.51 0,0.84 -0.74,1.36 -1.63,1.36 -0.87,0 -1.46,-0.61 -1.46,-1.25 0,-0.36 0.3,-0.39 0.37,-0.39 0.17,0 0.37,0.12 0.37,0.37 0,0.12 -0.05,0.37 -0.41,0.37 0.22,0.49 0.69,0.65 1.02,0.65 0.7,0 1.06,-0.55 1.06,-1.11 0,-0.61 -0.43,-1.09 -0.66,-1.34 l -1.68,-1.66 c -0.07,-0.06 -0.07,-0.08 -0.07,-0.27 l 2.88,0 z"
           inkscape:connector-curvature="0" /></g>    </g>
  </g>
</svg>
