<?xml version="1.0" encoding="UTF-8" standalone="no"?>
<!-- Created with Inkscape (http://www.inkscape.org/) -->

<svg
   version="1.1"
   id="svg1"
   width="544"
   height="544"
   viewBox="0 0 544 543.99999"
   sodipodi:docname="d3d_logo.svg"
   inkscape:version="1.3.2 (1:1.3.2+202311252150+091e20ef0f)"
   xmlns:inkscape="http://www.inkscape.org/namespaces/inkscape"
   xmlns:sodipodi="http://sodipodi.sourceforge.net/DTD/sodipodi-0.dtd"
   xmlns="http://www.w3.org/2000/svg"
   xmlns:svg="http://www.w3.org/2000/svg">
  <defs
     id="defs1" />
  <sodipodi:namedview
     id="namedview1"
     pagecolor="#ffffff"
     bordercolor="#000000"
     borderopacity="0.25"
     inkscape:showpageshadow="2"
     inkscape:pageopacity="0.0"
     inkscape:pagecheckerboard="0"
     inkscape:deskcolor="#d1d1d1"
     inkscape:zoom="0.79381154"
     inkscape:cx="299.1894"
     inkscape:cy="265.17629"
     inkscape:window-width="1920"
     inkscape:window-height="1043"
     inkscape:window-x="0"
     inkscape:window-y="0"
     inkscape:window-maximized="1"
     inkscape:current-layer="g2" />
  <g
     inkscape:groupmode="layer"
     inkscape:label="Image"
     id="g1"
     transform="translate(-850.42875,-318.36047)">
    <g
       id="g2">
      <path
         style="fill:#ff0000;fill-opacity:1"
         d="m 1180.6357,624.18217 c 11.7574,-19.21573 102.0258,-177.15952 103.1601,-180.50056 4.1731,-12.29157 0,-25.05313 -9.8903,-30.21347 -7.1381,-3.72602 -7.5025,-3.73957 -114.7572,-4.26659 l -105.6989,-0.51938 165.6989,-27.37945 c 150.8475,-24.92547 166.0788,-27.275 169.9388,-26.21416 6.3076,1.73355 7.0115,6.76762 1.9807,14.16671 -2.5771,3.79045 -206.8153,252.23241 -209.9803,255.4269 -1.9783,1.99675 -1.979,1.99594 -0.4518,-0.5 z"
         id="path13" />
      <path
         style="fill:#000000;fill-opacity:1"
         d="M 962.34712,502.1191 C 904.87211,432.27179 856.33117,372.90336 854.47835,370.18924 c -2.12594,-3.11419 -3.55541,-6.59065 -3.87467,-9.42317 -0.44795,-3.97417 -0.16929,-4.82503 2.43221,-7.42653 1.99729,-1.99729 4.67899,-3.29678 8.37467,-4.05817 3.94024,-0.81179 66.81313,-1.04838 228.43654,-0.85963 l 223,0.26043 -165.5194,27.58156 c -147.2262,24.53324 -166.12513,27.8844 -171,30.32171 -6.98274,3.49119 -10.50327,6.8336 -13.79468,13.09673 -2.18963,4.1666 -2.63246,6.33345 -2.65675,13 -0.0252,6.91999 0.38981,8.87751 3.07425,14.5 2.15493,4.51344 96.26928,168.44263 104.05848,181.25 0.2509,0.4125 0.3171,0.73471 0.1471,0.71602 -0.1699,-0.0187 -47.334,-57.18178 -104.80898,-127.02909 z"
         id="path5" />
      <path
         style="fill:#000000;fill-opacity:1"
         d="m 1116.8471,828.75804 c -1.65,-0.74022 -4.6551,-3.08511 -6.6779,-5.21086 -2.1642,-2.27419 -48.8177,-82.0683 -113.34789,-193.86501 -113.56428,-196.7469 -112.36164,-194.65075 -110.7315,-193 0.54313,0.55 47.00299,56.8 103.24413,125 56.24116,68.2 104.11436,125.93408 106.38486,128.29795 14.9239,15.53723 36.6698,15.88693 52.1703,0.83895 3.4767,-3.37529 52.5379,-62.3869 109.0247,-131.1369 56.4868,-68.75 103.1586,-125.45 103.715,-126 1.4171,-1.40065 10.5565,-17.32106 -110.7952,193 -60.9294,105.6 -112.0743,193.65208 -113.6553,195.6713 -3.1225,3.98801 -10.016,7.85196 -13.8969,7.78956 -1.3389,-0.0215 -3.7843,-0.64478 -5.4343,-1.38499 z"
         id="path2" />
    </g>
  </g>
</svg>
