<?xml version="1.0" encoding="UTF-8" standalone="no"?>
<!-- Created with Inkscape (http://www.inkscape.org/) -->

<svg
   version="1.1"
   id="svg1"
   width="263"
   height="263"
   viewBox="0 0 263 263"
   sodipodi:docname="gcmc_sq.svg"
   inkscape:version="1.3.2 (1:1.3.2+202311252150+091e20ef0f)"
   xmlns:inkscape="http://www.inkscape.org/namespaces/inkscape"
   xmlns:sodipodi="http://sodipodi.sourceforge.net/DTD/sodipodi-0.dtd"
   xmlns="http://www.w3.org/2000/svg"
   xmlns:svg="http://www.w3.org/2000/svg">
  <defs
     id="defs1" />
  <sodipodi:namedview
     id="namedview1"
     pagecolor="#ffffff"
     bordercolor="#000000"
     borderopacity="0.25"
     inkscape:showpageshadow="2"
     inkscape:pageopacity="0.0"
     inkscape:pagecheckerboard="0"
     inkscape:deskcolor="#d1d1d1"
     inkscape:zoom="2.1563169"
     inkscape:cx="73.504967"
     inkscape:cy="131.01043"
     inkscape:window-width="1920"
     inkscape:window-height="1043"
     inkscape:window-x="0"
     inkscape:window-y="0"
     inkscape:window-maximized="1"
     inkscape:current-layer="g1">
    <inkscape:page
       x="0"
       y="0"
       inkscape:label="1"
       id="page1"
       width="263"
       height="263"
       margin="0"
       bleed="0" />
  </sodipodi:namedview>
  <g
     id="g1"
     inkscape:groupmode="layer"
     inkscape:label="1">
    <path
       id="path1"
       d="m 127.55213,166.26507 h 11.74948 V -2.5676666e-4 h -11.74948 z"
       style="fill:#4f2987;fill-opacity:1;fill-rule:nonzero;stroke:none;stroke-width:0.133333" />
    <path
       id="path2"
       d="m 153.35466,166.26507 h 8.82812 V 35.035876 h -8.82812 z"
       style="fill:#4f2987;fill-opacity:1;fill-rule:nonzero;stroke:none;stroke-width:0.133333" />
    <path
       id="path3"
       d="m 105.60933,166.26507 h 8.84375 V 35.035876 h -8.84375 z"
       style="fill:#4f2987;fill-opacity:1;fill-rule:nonzero;stroke:none;stroke-width:0.133333" />
    <path
       id="path4"
       d="m 83.463999,166.26507 h 5.87448 V 53.317209 h -5.87448 z"
       style="fill:#4f2987;fill-opacity:1;fill-rule:nonzero;stroke:none;stroke-width:0.133333" />
    <path
       id="path5"
       d="m 60.707866,166.26667 h 4.869267 V 69.854675 h -4.869267 z"
       style="fill:#4f2987;fill-opacity:1;fill-rule:nonzero;stroke:none;stroke-width:0.133333" />
    <path
       id="path6"
       d="m 202.23466,166.26667 h 4.86355 V 69.854675 h -4.86355 z"
       style="fill:#4f2987;fill-opacity:1;fill-rule:nonzero;stroke:none;stroke-width:0.133333" />
    <path
       id="path7"
       d="M 37.759893,166.26667 H 40.1974 V 80.302675 h -2.437507 z"
       style="fill:#4f2987;fill-opacity:1;fill-rule:nonzero;stroke:none;stroke-width:0.133333" />
    <path
       id="path8"
       d="m 57.161466,212.2708 v 6.0052 h 10.3692 v 12.15054 c -1.828,1.636 -5.025467,2.64173 -8.4,2.64173 -9.928066,0 -15.854626,-7.32813 -15.854626,-19.60947 0,-11.94266 6.04688,-19.36559 15.792226,-19.36559 4.071867,0 7.2344,1.38546 10.238533,4.49479 l 0.323867,0.33334 3.957333,-4.70253 -0.265067,-0.27094 c -3.958933,-4.0932 -8.806799,-6.17186 -14.421333,-6.17186 C 45.2026,187.77601 36,198.16147 36,213.62547 c 0,15.65053 8.84948,25.76 22.535999,25.76 6.24,0 11.859867,-2.1204 15.401467,-5.8172 l 0.114666,-0.1256 V 212.2708 H 57.161466"
       style="fill:#223b6f;fill-opacity:1;fill-rule:nonzero;stroke:none;stroke-width:0.133333" />
    <path
       id="path9"
       d="m 119.51613,227.35467 -0.30827,0.348 c -3.30626,3.66133 -6.81719,5.3656 -11.04639,5.3656 -9.093205,0 -14.745338,-7.51093 -14.745338,-19.60947 0,-11.76146 5.886533,-19.36559 14.990668,-19.36559 3.6036,0 6.84787,1.51093 9.64013,4.49066 l 0.3224,0.34267 3.9588,-4.69733 -0.25466,-0.2704 c -3.56827,-3.93227 -8.58961,-6.1828 -13.77614,-6.1828 -13.250398,0 -22.157198,10.38546 -22.157198,25.84946 0,15.41053 8.745333,25.76 21.761468,25.76 6.14533,0 11.16093,-2.35893 15.34893,-7.2188 l 0.23907,-0.2708 -3.97347,-4.5412"
       style="fill:#223b6f;fill-opacity:1;fill-rule:nonzero;stroke:none;stroke-width:0.133333" />
    <path
       id="path10"
       d="m 227.92666,227.35467 -0.31733,0.348 c -3.29733,3.66133 -6.812,5.3656 -11.04133,5.3656 -9.09467,0 -14.74534,-7.51093 -14.74534,-19.60947 0,-11.76146 5.89067,-19.36559 14.984,-19.36559 3.61467,0 6.85467,1.51093 9.64134,4.49066 l 0.33333,0.34267 3.948,-4.69733 -0.24,-0.2704 c -3.572,-3.93227 -8.604,-6.1828 -13.78667,-6.1828 -13.25466,0 -22.15066,10.38546 -22.15066,25.84946 0,15.41053 8.75066,25.76 21.76,25.76 6.136,0 11.16133,-2.35893 15.34933,-7.2188 l 0.224,-0.2708 -3.95867,-4.5412"
       style="fill:#71b9e9;fill-opacity:1;fill-rule:nonzero;stroke:none;stroke-width:0.133333" />
    <path
       id="path11"
       d="m 226.99466,166.26667 h 2.43698 V 80.302675 h -2.43698 z"
       style="fill:#4f2987;fill-opacity:1;fill-rule:nonzero;stroke:none;stroke-width:0.133333" />
    <path
       id="path12"
       d="m 170.88533,188.43747 -9.3332,26.33333 c -0.6256,1.75054 -1.2084,3.56254 -1.77093,5.3172 -0.43747,1.3708 -0.89574,2.75054 -1.35987,4.1256 -0.42653,-1.26053 -0.85307,-2.5256 -1.2812,-3.79226 -0.64013,-1.9 -1.28027,-3.79587 -1.93227,-5.65627 l -9.4428,-26.3276 h -8.1812 v 49.58907 h 6.45214 v -27.26147 c 0,-3.6036 -0.348,-8.40107 -0.64014,-12.35307 l 3.19734,9.19734 9.22973,25.224 0.1036,0.2708 h 4.6932 l 9.2816,-25.5 2.50533,-7.19734 0.0307,-11.96933 h -1.54667"
       style="fill:#4f2987;fill-opacity:1;fill-rule:nonzero;stroke:none;stroke-width:0.133333" />
    <path
       id="path13"
       d="m 184.09866,246.58387 h 0.032 V 53.317342 h -5.88 V 240.3172 c -3.428,-0.79066 -7.73466,0.13587 -11.496,2.84427 -5.83746,4.20787 -8.10933,11.04113 -5.052,15.27031 3.03747,4.22447 10.24,4.24531 16.07867,0.0417 4.45333,-3.21354 6.80267,-7.9427 6.32267,-11.88957"
       style="fill:#4f2987;fill-opacity:1;fill-rule:nonzero;stroke:none;stroke-width:0.133333" />
  </g>
</svg>
