<?xml version="1.0" encoding="UTF-8" standalone="no"?>
<!-- Generator: Adobe Illustrator 26.4.1, SVG Export Plug-In . SVG Version: 6.00 Build 0)  -->

<svg
   version="1.0"
   id="katman_1"
   x="0px"
   y="0px"
   viewBox="0 0 181 180.99999"
   xml:space="preserve"
   sodipodi:docname="physna_sq.svg"
   width="181"
   height="181"
   inkscape:version="1.3.2 (1:1.3.2+202311252150+091e20ef0f)"
   xmlns:inkscape="http://www.inkscape.org/namespaces/inkscape"
   xmlns:sodipodi="http://sodipodi.sourceforge.net/DTD/sodipodi-0.dtd"
   xmlns="http://www.w3.org/2000/svg"
   xmlns:svg="http://www.w3.org/2000/svg"><defs
   id="defs3" /><sodipodi:namedview
   id="namedview3"
   pagecolor="#ffffff"
   bordercolor="#000000"
   borderopacity="0.25"
   inkscape:showpageshadow="2"
   inkscape:pageopacity="0.0"
   inkscape:pagecheckerboard="0"
   inkscape:deskcolor="#d1d1d1"
   inkscape:zoom="2.4089916"
   inkscape:cx="46.700038"
   inkscape:cy="86.965848"
   inkscape:window-width="1920"
   inkscape:window-height="1043"
   inkscape:window-x="0"
   inkscape:window-y="0"
   inkscape:window-maximized="1"
   inkscape:current-layer="katman_1" />
<style
   type="text/css"
   id="style1">
	.st0{fill:#0E0E0E;}
	.st1{fill:#387856;}
</style>
<path
   d="M 59.59,178.48 H 92.43 V 133.01 L 59.59,119.64 Z"
   id="path10" /><path
   d="M 152.47,12.43 C 143.44,8.17 132.75,6.02 120.38,6.02 H 43.16 v 30.3 h 75.97 c 5.85,0 10.9,0.9 15.17,2.71 4.26,1.81 7.48,4.48 9.65,8.01 2.17,3.53 3.26,7.68 3.26,12.44 0,4.77 -1.09,8.91 -3.26,12.44 -2.17,3.53 -5.39,6.2 -9.65,8.01 -4.26,1.81 -9.32,2.71 -15.17,2.71 H 92.43 V 56.37 L 59.59,43 V 82.63 H 43.17 v 30.31 h 77.22 c 12.19,0 22.85,-2.13 31.96,-6.41 9.11,-4.26 16.09,-10.42 20.93,-18.47 4.85,-8.04 7.27,-17.57 7.27,-28.57 0,-11 -2.42,-20.52 -7.27,-28.57 -4.85,-8.05 -11.79,-14.21 -20.81,-18.49 z"
   id="path9" />
<path
   class="st1"
   d="M 0,21.18 C 0,11.69 7.82,4 17.48,4 c 9.65,0 17.48,7.69 17.48,17.18 0,9.49 -7.82,17.18 -17.48,17.18 C 7.82,38.36 0,30.68 0,21.18 Z"
   id="path2" />
<path
   class="st1"
   d="M 0,97.89 C 0,88.4 7.82,80.71 17.48,80.71 c 9.65,0 17.48,7.69 17.48,17.18 0,9.49 -7.82,17.18 -17.48,17.18 C 7.82,115.07 0,107.38 0,97.89 Z"
   id="path3" />
</svg>
