<?xml version="1.0" encoding="UTF-8" standalone="no"?>
<!-- Created with Inkscape (http://www.inkscape.org/) -->

<svg
   version="1.1"
   id="svg1"
   width="140"
   height="140"
   viewBox="0 0 140 140"
   sodipodi:docname="thangs_sq.svg"
   xml:space="preserve"
   inkscape:version="1.3.2 (1:1.3.2+202311252150+091e20ef0f)"
   xmlns:inkscape="http://www.inkscape.org/namespaces/inkscape"
   xmlns:sodipodi="http://sodipodi.sourceforge.net/DTD/sodipodi-0.dtd"
   xmlns="http://www.w3.org/2000/svg"
   xmlns:svg="http://www.w3.org/2000/svg"><defs
     id="defs1" /><sodipodi:namedview
     id="namedview1"
     pagecolor="#ffffff"
     bordercolor="#000000"
     borderopacity="0.25"
     inkscape:showpageshadow="2"
     inkscape:pageopacity="0.0"
     inkscape:pagecheckerboard="0"
     inkscape:deskcolor="#d1d1d1"
     showguides="true"
     showgrid="true"
     inkscape:zoom="4.005"
     inkscape:cx="67.790262"
     inkscape:cy="40.82397"
     inkscape:window-width="1920"
     inkscape:window-height="1043"
     inkscape:window-x="0"
     inkscape:window-y="0"
     inkscape:window-maximized="1"
     inkscape:current-layer="g1"><inkscape:grid
       id="grid4"
       units="px"
       originx="-30.000002"
       originy="-30"
       spacingx="1"
       spacingy="1"
       empcolor="#0099e5"
       empopacity="0.30196078"
       color="#0099e5"
       opacity="0.14901961"
       empspacing="5"
       dotted="false"
       gridanglex="30"
       gridanglez="30"
       visible="true" /></sodipodi:namedview><g
     inkscape:groupmode="layer"
     inkscape:label="Image"
     id="g1"
     transform="translate(-30.000002,-30)"><path
       id="path4-3-5-4"
       style="fill:#474654;fill-opacity:1;stroke:none;stroke-width:1.51181"
       d="M 97.499998,30.000001 C 109.9264,30.000001 120,40.073594 120,52.500001 V 74.999999 H 52.499993 c -12.42641,0 -22.499991,-10.07359 -22.499991,-22.499998 0,-12.426407 10.073581,-22.5 22.499991,-22.5 h 45.000005"
       sodipodi:nodetypes="ccccssc" /><path
       id="path4-36-7"
       style="fill:#ffbc01;fill-opacity:1;stroke:none;stroke-width:1.51181"
       d="M 147.5,75 C 159.92641,75 170,64.926407 170,52.5 170,40.073593 159.92641,30 147.5,30 135.07359,30 125,40.073593 125,52.5 V 75 Z"
       sodipodi:nodetypes="cssc" /><circle
       style="fill:#ffffff;fill-opacity:1;stroke-width:1.51181"
       id="path5"
       cx="97.5"
       cy="52.5"
       r="12.5" /><path
       id="path4-3-5"
       style="fill:#7c7b80;fill-opacity:1;stroke:none;stroke-width:1.51181"
       d="M 75,102.5 C 75,90.073593 85.073593,80 97.5,80 H 120 v 67.5 C 120,159.92641 109.92641,170 97.5,170 85.073593,170 75,159.92641 75,147.5 v -45"
       sodipodi:nodetypes="ccccssc" /><circle
       style="fill:#ffffff;fill-opacity:1;stroke-width:1.51181"
       id="path5-2"
       cx="52.5"
       cy="52.5"
       r="12.5" /><circle
       style="fill:#ffffff;fill-opacity:1;stroke-width:1.51181"
       id="path5-4"
       cx="97.5"
       cy="102.5"
       r="12.5" /><circle
       style="fill:#ffffff;fill-opacity:1;stroke-width:1.51181"
       id="path5-6"
       cx="97.5"
       cy="147.5"
       r="12.5" /><circle
       style="fill:#ffffff;fill-opacity:1;stroke-width:1.51181"
       id="path5-1"
       cx="147.5"
       cy="52.5"
       r="12.5" /></g></svg>
