<?xml version="1.0" encoding="UTF-8" standalone="no"?>
<!-- Created with Inkscape (http://www.inkscape.org/) -->

<svg
   xmlns:dc="http://purl.org/dc/elements/1.1/"
   xmlns:cc="http://creativecommons.org/ns#"
   xmlns:rdf="http://www.w3.org/1999/02/22-rdf-syntax-ns#"
   xmlns:svg="http://www.w3.org/2000/svg"
   xmlns="http://www.w3.org/2000/svg"
   xmlns:sodipodi="http://sodipodi.sourceforge.net/DTD/sodipodi-0.dtd"
   xmlns:inkscape="http://www.inkscape.org/namespaces/inkscape"
   width="45.653896mm"
   height="45.264584mm"
   viewBox="0 0 45.653896 45.264584"
   version="1.1"
   id="svg5517"
   inkscape:version="0.92.5 (2060ec1f9f, 2020-04-08)"
   sodipodi:docname="sozi_icon.svg">
  <defs
     id="defs5511">
    <inkscape:path-effect
       effect="spiro"
       id="path-effect4173"
       is_visible="true" />
  </defs>
  <sodipodi:namedview
     id="base"
     pagecolor="#ffffff"
     bordercolor="#666666"
     borderopacity="1.0"
     inkscape:pageopacity="0.0"
     inkscape:pageshadow="2"
     inkscape:zoom="2.8"
     inkscape:cx="122.61153"
     inkscape:cy="39.4925"
     inkscape:document-units="mm"
     inkscape:current-layer="layer1"
     showgrid="false"
     fit-margin-top="0"
     fit-margin-left="0"
     fit-margin-right="0"
     fit-margin-bottom="0"
     inkscape:window-width="1848"
     inkscape:window-height="1136"
     inkscape:window-x="72"
     inkscape:window-y="27"
     inkscape:window-maximized="1" />
  <metadata
     id="metadata5514">
    <rdf:RDF>
      <cc:Work
         rdf:about="">
        <dc:format>image/svg+xml</dc:format>
        <dc:type
           rdf:resource="http://purl.org/dc/dcmitype/StillImage" />
        <dc:title></dc:title>
      </cc:Work>
    </rdf:RDF>
  </metadata>
  <g
     inkscape:label="Layer 1"
     inkscape:groupmode="layer"
     id="layer1"
     transform="translate(-32.357575,-89.169787)">
    <g
       id="g4523"
       transform="matrix(0.13551778,0.2475567,-0.2475567,0.13551778,71.827145,101.09787)">
      <g
         id="g4183"
         transform="matrix(0.10294126,-0.17829949,0.17829949,0.10294126,-61.671213,42.512831)">
        <path
           transform="translate(-76.645324,-6.9447988)"
           inkscape:connector-curvature="0"
           d="m 358.8567,30.214096 c 1.32232,-2.554297 3.82321,-4.467233 6.63458,-5.07481 2.3437,-0.506506 4.77838,-0.140002 7.17432,-0.234637 1.63026,-0.06439 3.24615,-0.34314 4.87616,-0.413572 1.63001,-0.07043 3.31613,0.08188 4.7689,0.824405 1.35183,0.690925 2.43254,1.877021 3.05094,3.263525 0.6184,1.386504 0.78065,2.962647 0.51812,4.457936 -0.31351,1.78569 -1.21962,3.441933 -2.45297,4.770775 -1.23336,1.328841 -2.78394,2.340526 -4.44326,3.071021 -4.10689,1.808003 -8.94931,1.870132 -13.10124,0.168091 -1.75958,-0.511626 -3.37041,-1.524448 -4.59402,-2.888511 -1.2236,-1.364063 -2.05611,-3.075065 -2.37427,-4.879683 -0.17811,-1.010257 -0.19752,-2.048331 -0.0573,-3.06454 z"
           id="path4171"
           inkscape:original-d="m 358.8567,30.214096 c 0.98962,-2.828003 3.8072,-4.538561 6.63458,-5.07481 2.35741,-0.523903 4.78695,-0.41928 7.17432,-0.234637 3.20392,0.06906 6.5713,-0.86566 9.64506,0.410833 2.80953,1.305604 4.21308,4.762172 3.56906,7.721461 -0.7266,3.589007 -3.51894,6.545882 -6.89623,7.841796 -4.08425,1.870185 -8.99087,2.07294 -13.10124,0.168091 -3.69183,-0.746839 -6.45359,-4.111375 -6.96829,-7.768194 -0.11892,-1.011313 -0.3554,-2.061572 -0.0573,-3.06454 z"
           inkscape:path-effect="#path-effect4173"
           style="fill:#dfafef;fill-opacity:1;fill-rule:evenodd;stroke:none;stroke-width:1px;stroke-linecap:butt;stroke-linejoin:miter;stroke-opacity:1" />
        <path
           sodipodi:nodetypes="csssssssssssssssssscsssssssssssscssssscsssscsssscssssscsssssssssssssccsssssscssscsssssscsssscssscsssscssscsssssscsssssscsscssscssss"
           inkscape:connector-curvature="0"
           id="path4161"
           d="m -162.44424,721.29833 c -2.0625,-0.29793 -9.9375,-1.39718 -17.5,-2.44278 -36.45366,-5.04011 -97.34445,-21.99517 -147.40146,-41.04397 -11.82744,-4.50084 -12.35707,-5.06199 -11.65673,-12.35054 1.01871,-10.60192 1.59596,-10.66909 22.87694,-2.66169 39.8155,14.98139 86.96138,29.36253 118.05625,36.0113 28.32703,6.05694 41.78086,7.564 66.875,7.49117 26.12738,-0.0759 35.605463,-1.7474 50.2156,-8.85603 9.305212,-4.52749 20.2993,-15.37116 24.642425,-24.30529 5.42315,-11.15577 8.134175,-30.0723 6.264638,-43.71215 -0.743913,-5.42736 -0.847988,-5.52815 -9.276888,-8.98262 -10.2239,-4.19013 -27.954163,-15.13636 -37.454838,-23.1237 -51.562897,-43.34961 -81.519907,-116.96378 -88.709387,-217.9879 -0.7186,-10.09759 -1.30655,-22.53105 -1.30655,-27.62994 0,-8.54091 -0.53024,-10.44127 -6.73565,-24.14076 -18.07987,-39.91433 -32.88672,-87.76795 -40.3625,-130.4458 -3.83686,-21.90396 -5.3294,-60.46453 -3.01385,-77.86479 4.65891,-35.009598 18.39821,-59.939689 38.70453,-70.229674 21.54516,-10.917761 49.96412,-10.745177 83.18491,0.505171 6.13385,2.07725 11.22936,3.639165 11.32336,3.470924 2.81006,-5.029063 20.419863,-25.812541 29.38505,-34.680894 19.253275,-19.04532125 39.120088,-31.327592 61.88915,-38.261785 9.86855,-3.005412 13.3989125,-3.437132 28.75,-3.515775 14.689363,-0.07525 19.085013,0.368808 27.368788,2.764865 45.619487,13.1952862 86.250402,54.129441 119.622242,120.515033 6.99767,13.920235 3.79667,12.403435 31.13397,14.752825 26.79707,2.30295 71.62804,9.84895 82.04701,13.81024 5.0021,1.9018 5.45299,1.5045 5.45299,-4.80483 0,-7.63677 3.18618,-32.00986 6.03809,-46.18923 1.55551,-7.733788 2.7351,-10.946343 4.01928,-10.946343 2.18096,0 2.14919,1.029224 -0.57878,18.75 -1.16419,7.5625 -2.44901,21.101023 -2.85516,30.085613 l -0.73847,16.33561 9.87001,3.48339 c 14.37405,5.07297 35.53774,16.22219 45.20815,23.81604 15.411,12.10173 24.80644,26.725 28.52977,44.40435 1.67841,7.96956 1.74801,11.06032 0.46429,20.61696 -4.00919,29.84617 -17.28177,53.09929 -46.41758,81.32201 l -14.26089,13.81398 3.32599,10.56102 c 12.711,40.36121 29.43639,71.01315 49.78189,91.23325 19.18969,19.07141 35.55573,26.3707 59.94592,26.73601 12.34923,0.18497 14.4338,0.52225 15.9375,2.5787 2.18736,2.99139 2.17745,4.54969 -0.0482,7.58665 -1.58993,2.16943 -3.34412,2.422 -16.5625,2.3848 -13.04687,-0.0367 -15.70654,-0.42531 -22.63271,-3.30673 -13.68831,-5.69459 -21.73944,-11.30899 -34.63377,-24.15165 -22.4267,-22.33683 -42.73671,-57.72653 -56.31353,-98.125 -1.96393,-5.84375 -3.65723,-10.77518 -3.76289,-10.95872 -0.10562,-0.18355 -7.4467,5.08103 -16.3134,11.69905 -15.56861,11.62028 -61.0862,42.3526 -64.89056,43.81247 -1.4092,0.54076 -1.86265,2.88741 -1.86345,9.64343 -5.7e-4,4.91082 -0.58082,15.11627 -1.28946,22.67877 -4.45956,47.59212 -15.05734,89.13002 -31.35879,122.91043 -4.11429,8.52578 -7.2802,15.70174 -7.03535,15.94658 0.24484,0.24485 9.11193,1.86747 19.70463,3.60585 33.3692,5.47621 75.01207,9.5678 139.78725,13.73467 20.95767,1.34818 28.68262,2.28852 30.9375,3.76597 3.58138,2.34661 3.8659,5.74517 0.71934,8.59276 -4.1643,3.76864 -59.28295,2.55784 -109.54997,-2.4065 -30.04341,-2.96706 -78.74864,-11.21984 -88.65839,-15.02258 -0.79734,-0.30596 -4.75154,3.95803 -8.78712,9.47553 -23.27105,31.81652 -58.05333,53.68274 -99.858078,62.77675 -16.947162,3.68661 -57.445937,4.0173 -75.722412,0.61831 -10.178325,-1.89292 -29.90865,-6.91782 -35.2537,-8.97839 -1.455963,-0.56128 -1.691238,1.47788 -1.364213,11.82352 1.340488,42.40585 -18.907262,70.12278 -58.520187,80.10767 -8.46334,2.13328 -15.20265,2.75626 -33.125,3.0621 -12.375,0.21119 -24.1875,0.14021 -26.25,-0.15771 z M 30.417522,628.24617 c 46.733113,-5.09059 83.393278,-19.91703 108.897578,-44.04134 8.54692,-8.08448 19.73146,-20.33294 21.38066,-23.41449 1.07111,-2.00139 0.20626,-2.60756 -7.21146,-5.05455 C 126.89436,546.9642 104.95622,532.75035 95.650598,518.265 74.794785,485.80035 94.741235,458.7445 188.68685,392.06837 l 27.29906,-19.375 -0.71103,-28.125 c -0.77241,-30.5532 -2.16558,-47.98962 -5.84273,-73.125 -7.14561,-48.8444 -20.19607,-96.5241 -38.01174,-138.87552 l -5.83691,-13.87552 -13.27083,-0.81198 c -7.29895,-0.4466 -26.33318,-0.81198 -42.29831,-0.81198 -24.277275,0 -29.282137,-0.30684 -30.5836,-1.875 -1.246588,-1.50204 -1.222588,-2.27688 0.120625,-3.89538 1.496588,-1.80329 5.105825,-1.9346 33.590545,-1.2221 17.55259,0.43905 35.79404,1.13243 40.53654,1.54084 l 8.62274,0.74257 -7.17556,-13.582971 C 124.33375,40.488827 84.63036,3.2822632 42.480685,-6.7847517 27.849373,-10.279292 2.7185225,-9.6741318 -11.81924,-5.4771905 -38.893015,2.3388033 -65.425815,20.211172 -87.586877,45.559538 l -9.299625,10.637134 10.430487,4.64411 c 13.539613,6.028419 33.989,17.065914 35.9126,19.38371 1.212925,1.461475 1.052963,1.976188 -0.82255,2.646825 -1.28055,0.457887 -2.680512,1.017213 -3.111037,1.242925 -0.430513,0.225712 -10.631351,-4.642262 -22.668513,-10.81774 -12.037175,-6.175474 -22.444675,-11.228135 -23.127775,-11.228135 -2.4895,0 -19.94339,28.034862 -30.17592,48.469313 -26.74253,53.40495 -46.49345,135.55632 -49.64319,206.48422 l -0.80696,18.17147 4.72278,8.75 c 5.666,10.49752 7.41577,13.4059 25.94523,43.125 59.965248,96.17726 93.189622,168.55652 103.42241,225.30558 l 1.520175,8.43059 8.297263,2.59814 c 17.429,5.45756 44.1474245,7.37734 67.409024,4.84349 z M -51.81924,615.86678 c 0,-0.66089 -1.136425,-6.14526 -2.525387,-12.1875 -10.783563,-46.91064 -41.931025,-111.76976 -92.918183,-193.48591 -6.8635,-11 -17.21958,-27.875 -23.0135,-37.5 l -10.5344,-17.5 0.69725,19.375 c 1.89142,52.55945 14.23723,106.09485 33.82755,146.68708 20.08597,41.61928 49.96942,73.89837 85.09167,91.91313 8.131675,4.17086 9.375,4.5287 9.375,2.6982 z M 229.8628,363.07063 c 15.33796,-10.68859 62.4115,-45.57764 66.67431,-49.41636 l 5.23134,-4.7109 -4.27339,-16.25 c -10.89285,-41.42122 -16.8143,-89.01078 -16.8143,-135.13334 v -22.8953 l -5.14212,-1.38464 c -22.37833,-6.02585 -57.93364,-11.49549 -85.2005,-13.10676 -7.0303,-0.41544 -14.01852,-1.00608 -15.52935,-1.31253 l -2.74698,-0.55717 3.04405,6.88314 c 27.19211,61.48617 47.99951,157.96933 48.09196,223.00062 0.0161,11.33711 0.77408,17.63098 2.12327,17.63098 0.32931,0 2.37308,-1.23649 4.54171,-2.74774 z"
           style="fill:#a0a0a0" />
        <path
           inkscape:connector-curvature="0"
           id="path4159"
           d="m -163.06924,720.62733 c -39.20074,-3.99208 -90.14709,-16.71379 -144.375,-36.0516 -31.8079,-11.34279 -30.44228,-10.71911 -31.34476,-14.3149 -1.13361,-4.51664 1.02194,-12.47105 3.5093,-12.95008 1.14112,-0.21976 12.08967,3.24825 24.33011,7.70668 79.42325,28.92897 135.06613,42.0484 178.65455,42.12301 17.30663,0.0296 27.91164,-1.20341 39.2258,-4.56079 22.2939,-6.61551 37.351362,-22.3953 41.9134,-43.92402 1.875512,-8.85076 2.46365,-31.25944 0.879963,-33.52745 -0.505101,-0.72336 -6.824613,-4.18474 -14.043363,-7.69194 -56.93982,-27.66406 -96.42906,-89.18561 -112.98581,-176.0242 -1.70075,-8.92027 -3.40213,-18.6555 -3.78083,-21.63385 -2.51722,-19.7966 -3.29645,-28.72777 -4.54425,-52.08482 l -1.40235,-26.25 -6.66964,-15 c -19.89603,-44.7461 -34.67371,-94.28917 -41.38625,-138.75 -3.10708,-20.57997 -3.21428,-61.61777 -0.20261,-77.56753 4.4371,-23.498861 11.22533,-37.983149 23.67339,-50.512761 12.52349,-12.60553 28.00067,-18.159143 50.42335,-18.093182 15.36691,0.0452 27.88677,2.285335 45.50637,8.14228 6.40843,2.130226 12.05124,3.402451 12.53959,2.827165 0.48836,-0.575286 4.56734,-5.827225 9.064402,-11.670975 C -83.761253,27.404532 -62.78929,7.2025745 -50.190303,-1.463618 -13.55444,-26.663538 28.16486,-30.522723 64.956022,-12.115066 79.282735,-4.947003 91.80661,4.4215845 106.4548,18.928437 c 21.21422,21.009517 37.97131,44.81325 54.78808,77.82743 l 8.43663,16.562503 h 5.36711 c 6.8118,0 36.98887,3.17148 54.26934,5.7035 10.75149,1.57535 28.82136,5.27187 49.63104,10.15293 2.4765,0.58089 2.69676,-0.0308 3.5314,-9.80595 1.75708,-20.578746 6.77251,-51.287299 8.6895,-53.204286 2.13008,-2.130085 2.23864,2.223993 0.37313,14.96734 -2.14465,14.65025 -3.23871,26.537636 -3.85063,41.838376 l -0.361,9.02691 8.23817,2.67589 c 4.531,1.47175 14.42569,5.65059 21.98819,9.28631 41.32216,19.86595 60.01951,49.97208 53.16729,85.60898 -5.22115,27.15411 -17.34564,47.54288 -43.95504,73.91568 l -15.93234,15.79068 2.57021,8.58432 c 7.30255,24.38997 20.95953,54.14427 33.00235,71.90184 22.61299,33.34368 49.38449,49.26434 81.35892,48.3831 11.52056,-0.31751 13.32173,0.52368 12.69883,5.93064 -0.56131,4.87231 -4.76951,6.70292 -15.4601,6.72531 -28.81463,0.0604 -56.31638,-18.94237 -80.96857,-55.94634 -9.55641,-14.34458 -24.24251,-44.36468 -31.63236,-64.66023 -3.25424,-8.9375 -6.07195,-16.45787 -6.26158,-16.71192 -0.18962,-0.25405 -7.26191,4.74418 -15.71619,11.10717 -13.65352,10.27611 -57.32597,39.83256 -64.2619,43.49087 -2.39871,1.26519 -2.72093,2.85636 -3.51925,17.37829 -1.65222,30.05574 -6.72211,62.4663 -13.78897,88.14979 -5.79525,21.06195 -9.62104,31.35168 -18.79229,50.54318 l -7.86467,16.45739 11.27211,2.07153 c 28.49175,5.23606 78.94372,10.75158 125.95855,13.77006 5.84375,0.37519 14,0.94216 18.125,1.25995 4.125,0.31779 13.40625,0.93227 20.625,1.36554 7.21875,0.43325 14.03911,1.26613 15.15636,1.85086 2.9695,1.5541 3.60056,5.57614 1.37374,8.75537 l -1.94356,2.77482 -33.85577,-0.87112 c -38.43017,-0.98881 -42.37081,-1.22873 -75.10577,-4.57265 -27.32478,-2.79126 -56.01132,-7.30377 -75.09244,-11.81236 -7.28982,-1.72247 -13.41801,-3.13177 -13.61821,-3.13177 -0.20019,0 -2.78675,3.23437 -5.7479,7.1875 -12.58654,16.80296 -26.83186,30.63626 -42.42675,41.19962 -8.73736,5.91835 -27.077288,14.71836 -38.1147,18.28853 -37.91935,12.26535 -82.186625,12.30635 -122.5645,0.1135 -5.535487,-1.67153 -10.462275,-3.03915 -10.948425,-3.03915 -0.48615,0 -0.529388,3.01643 -0.09612,6.70318 1.090663,9.27983 -1.63455,30.98009 -5.158962,41.07968 -5.215238,14.94489 -15.896975,27.82841 -29.533663,35.62137 -7.36235,4.20737 -22.92025,9.0979 -34.59043,10.8733 -11.82505,1.79895 -34.15713,2.04124 -48.98294,0.53143 z m 204.375,-93.47309 c 46.147863,-6.82309 76.12463,-20.65167 103.1537,-47.58587 5.86434,-5.84375 12.46895,-12.94747 14.67693,-15.78602 l 4.01449,-5.16102 -11.45935,-4.00158 C 111.2304,540.4908 88.757548,519.24489 88.833323,495.19337 c 0.02437,-7.753 0.591412,-9.81822 4.975974,-18.125 3.898975,-7.38682 8.399703,-12.84015 21.222433,-25.71437 17.29488,-17.36431 32.76349,-29.77676 70.40718,-56.49672 12.85176,-9.12234 25.01374,-17.86921 27.0266,-19.4375 l 3.65975,-2.85141 -0.20376,-21.1875 c -0.59355,-61.71803 -11.19448,-125.26894 -30.42007,-182.36365 -5.89984,-17.52093 -17.83492,-47.70855 -19.64873,-49.69794 -1.52105,-1.66829 -10.98862,-2.11316 -47.31154,-2.22313 -32.164412,-0.0974 -36.760187,-0.35615 -38.576112,-2.17207 -3.6215,-3.62149 0.56155,-5.19791 12.360162,-4.65808 21.30553,0.97484 69.60555,1.76283 69.60555,1.13558 0,-2.62053 -15.19139,-29.150776 -25.3217,-44.221832 C 115.91267,36.389339 88.133923,11.04451 62.455485,-0.4766255 47.43236,-7.2170405 35.60876,-9.693423 18.80576,-9.6187955 -10.173602,-9.4900867 -36.757052,0.451407 -62.084565,20.631994 c -8.725188,6.952111 -34.795725,33.249129 -34.678137,34.979409 0.03112,0.45758 10.2961,5.894464 22.811112,12.081964 14.990662,7.411472 22.89295,11.996375 23.160125,13.4375 0.7791,4.202513 -6.722163,2.525162 -18.566275,-4.151605 -12.218787,-6.887975 -28.983112,-14.910895 -31.15711,-14.910895 -2.25879,0 -19.3972,27.17355 -28.69264,45.493173 -16.45251,32.42494 -29.02324,69.51631 -38.80775,114.50683 -7.27037,33.4302 -12.6735,77.38193 -12.63549,102.7836 0.0145,9.67032 0.4513,11.77027 3.84823,18.49956 3.59716,7.12594 14.64179,25.54022 29.9694,49.96684 19.22719,30.64112 43.81416,73.82853 56.575048,99.375 18.643225,37.32251 35.642062,83.18312 41.4583,111.84905 1.721362,8.48385 3.574287,15.8287 4.117625,16.32191 2.315387,2.10175 16.3048,5.59512 31.612887,7.89424 9.7711375,1.46752 39.53895,0.58922 54.375,-1.60433 z M -53.31459,606.75587 C -63.910777,557.46458 -96.926927,489.15 -153.44744,399.56837 c -10.76404,-17.06035 -21.34841,-34.76995 -24.53922,-41.05864 -1.51634,-2.98849 -2.99742,-5.1932 -3.29127,-4.89934 -0.92863,0.92863 1.80982,42.19521 3.8378,57.83298 7.25617,55.95232 23.03544,102.11685 47.4255,138.75 18.4918,27.77413 40.272653,48.05968 67.020565,62.41948 5.8024,3.11507 10.913263,5.67314 11.35745,5.68463 0.4442,0.0113 -0.310887,-5.18224 -1.677975,-11.54161 z m 299.67483,-255.0317 c 26.85758,-19.26382 43.44071,-31.77108 50.31978,-37.95198 l 5.37427,-4.82882 -3.75119,-14.375 c -6.54858,-25.09495 -12.86165,-60.81094 -14.5825,-82.5 -0.46365,-5.84375 -1.0869,-11.0431 -1.38502,-11.55413 -0.2981,-0.51101 -0.80565,-15.40239 -1.12787,-33.09195 -0.32223,-17.68956 -0.99448,-32.53614 -1.4939,-32.99239 -0.99446,-0.90851 -12.23145,-3.77285 -25.90805,-6.60405 -7.77353,-1.6092 -27.09523,-4.45163 -43.125,-6.34415 -10.93619,-1.29115 -37.91955,-3.16045 -38.41853,-2.66148 -0.27823,0.27823 0.58595,2.66977 1.9204,5.31451 3.81248,7.55595 13.78873,34.43185 19.64879,52.93364 14.1596,44.70555 25.13086,101.54312 27.62719,143.125 0.454,7.5625 0.98417,14.59375 1.17816,15.625 0.19399,1.03125 0.39575,8.48437 0.44835,16.5625 0.0526,8.07812 0.51751,14.67323 1.03314,14.6558 0.51562,-0.0174 10.52451,-6.90805 22.24197,-15.3125 z M 283.80576,40.303812 c -2.0625,-0.916685 -5.09282,-3.122473 -6.73406,-4.90175 -2.41784,-2.621216 -2.84375,-4.09963 -2.24463,-7.791586 1.05524,-6.502709 4.16597,-10.780078 7.49519,-10.306195 2.13034,0.303232 3.06916,1.749218 4.25468,6.553122 1.78077,7.215945 3.40697,9.150518 8.49556,10.106574 8.30722,1.560782 16.62306,-8.84482 19.89758,-24.8978637 1.01953,-4.998105 2.16277,-7.6227463 3.32029,-7.6227463 2.27279,0 1.73488,5.96626 -1.46055,16.199983 -4.02837,12.901342 -9.85757,19.682546 -19.77309,23.002388 -5.42611,1.81673 -8.57702,1.735425 -13.25097,-0.341926 z"
           style="fill:#fbca01" />
        <path
           inkscape:connector-curvature="0"
           id="path4157"
           d="m -163.06924,720.62733 c -39.20074,-3.99208 -90.14709,-16.71379 -144.375,-36.0516 -31.8079,-11.34279 -30.44228,-10.71911 -31.34476,-14.3149 -1.13361,-4.51664 1.02194,-12.47105 3.5093,-12.95008 1.14112,-0.21976 12.08967,3.24825 24.33011,7.70668 79.42325,28.92897 135.06613,42.0484 178.65455,42.12301 17.30663,0.0296 27.91164,-1.20341 39.2258,-4.56079 22.2939,-6.61551 37.351362,-22.3953 41.9134,-43.92402 1.875512,-8.85076 2.46365,-31.25944 0.879963,-33.52745 -0.505101,-0.72336 -6.824613,-4.18474 -14.043363,-7.69194 -56.93982,-27.66406 -96.42906,-89.18561 -112.98581,-176.0242 -1.70075,-8.92027 -3.40213,-18.6555 -3.78083,-21.63385 -2.51722,-19.7966 -3.29645,-28.72777 -4.54425,-52.08482 l -1.40235,-26.25 -6.66964,-15 c -19.89603,-44.7461 -34.67371,-94.28917 -41.38625,-138.75 -3.10708,-20.57997 -3.21428,-61.61777 -0.20261,-77.56753 4.4371,-23.498861 11.22533,-37.983149 23.67339,-50.512761 12.52349,-12.60553 28.00067,-18.159143 50.42335,-18.093182 15.36691,0.0452 27.88677,2.285335 45.50637,8.14228 6.40843,2.130226 12.05124,3.402451 12.53959,2.827165 0.48836,-0.575286 4.56734,-5.827225 9.064402,-11.670975 C -83.761253,27.404532 -62.78929,7.2025745 -50.190303,-1.463618 -13.55444,-26.663538 28.16486,-30.522723 64.956022,-12.115066 79.282735,-4.947003 91.80661,4.4215845 106.4548,18.928437 c 21.21422,21.009517 37.97131,44.81325 54.78808,77.82743 l 8.43663,16.562503 h 5.36711 c 6.8118,0 36.98887,3.17148 54.26934,5.7035 10.75149,1.57535 28.82136,5.27187 49.63104,10.15293 2.4765,0.58089 2.69676,-0.0308 3.5314,-9.80595 1.75708,-20.578746 6.77251,-51.287299 8.6895,-53.204286 2.13008,-2.130085 2.23864,2.223993 0.37313,14.96734 -2.14465,14.65025 -3.23871,26.537636 -3.85063,41.838376 l -0.361,9.02691 8.23817,2.67589 c 4.531,1.47175 14.42569,5.65059 21.98819,9.28631 41.32216,19.86595 60.01951,49.97208 53.16729,85.60898 -5.22115,27.15411 -17.34564,47.54288 -43.95504,73.91568 l -15.93234,15.79068 2.57021,8.58432 c 7.30255,24.38997 20.95953,54.14427 33.00235,71.90184 22.61299,33.34368 49.38449,49.26434 81.35892,48.3831 11.52056,-0.31751 13.32173,0.52368 12.69883,5.93064 -0.56131,4.87231 -4.76951,6.70292 -15.4601,6.72531 -28.81463,0.0604 -56.31638,-18.94237 -80.96857,-55.94634 -9.55641,-14.34458 -24.24251,-44.36468 -31.63236,-64.66023 -3.25424,-8.9375 -6.07195,-16.45787 -6.26158,-16.71192 -0.18962,-0.25405 -7.26191,4.74418 -15.71619,11.10717 -13.65352,10.27611 -57.32597,39.83256 -64.2619,43.49087 -2.39871,1.26519 -2.72093,2.85636 -3.51925,17.37829 -1.65222,30.05574 -6.72211,62.4663 -13.78897,88.14979 -5.79525,21.06195 -9.62104,31.35168 -18.79229,50.54318 l -7.86467,16.45739 11.27211,2.07153 c 28.49175,5.23606 78.94372,10.75158 125.95855,13.77006 5.84375,0.37519 14,0.94216 18.125,1.25995 4.125,0.31779 13.40625,0.93227 20.625,1.36554 7.21875,0.43325 14.03911,1.26613 15.15636,1.85086 2.9695,1.5541 3.60056,5.57614 1.37374,8.75537 l -1.94356,2.77482 -33.85577,-0.87112 c -38.43017,-0.98881 -42.37081,-1.22873 -75.10577,-4.57265 -27.32478,-2.79126 -56.01132,-7.30377 -75.09244,-11.81236 -7.28982,-1.72247 -13.41801,-3.13177 -13.61821,-3.13177 -0.20019,0 -2.78675,3.23437 -5.7479,7.1875 -12.58654,16.80296 -26.83186,30.63626 -42.42675,41.19962 -8.73736,5.91835 -27.077288,14.71836 -38.1147,18.28853 -37.91935,12.26535 -82.186625,12.30635 -122.5645,0.1135 -5.535487,-1.67153 -10.462275,-3.03915 -10.948425,-3.03915 -0.48615,0 -0.529388,3.01643 -0.09612,6.70318 1.090663,9.27983 -1.63455,30.98009 -5.158962,41.07968 -5.215238,14.94489 -15.896975,27.82841 -29.533663,35.62137 -7.36235,4.20737 -22.92025,9.0979 -34.59043,10.8733 -11.82505,1.79895 -34.15713,2.04124 -48.98294,0.53143 z m 204.375,-93.47309 c 46.147863,-6.82309 76.12463,-20.65167 103.1537,-47.58587 5.86434,-5.84375 12.46895,-12.94747 14.67693,-15.78602 l 4.01449,-5.16102 -11.45935,-4.00158 C 111.2304,540.4908 88.757548,519.24489 88.833323,495.19337 c 0.02437,-7.753 0.591412,-9.81822 4.975974,-18.125 3.898975,-7.38682 8.399703,-12.84015 21.222433,-25.71437 17.29488,-17.36431 32.76349,-29.77676 70.40718,-56.49672 12.85176,-9.12234 25.01374,-17.86921 27.0266,-19.4375 l 3.65975,-2.85141 -0.20376,-21.1875 c -0.59355,-61.71803 -11.19448,-125.26894 -30.42007,-182.36365 -5.89984,-17.52093 -17.83492,-47.70855 -19.64873,-49.69794 -1.52105,-1.66829 -10.98862,-2.11316 -47.31154,-2.22313 -32.164412,-0.0974 -36.760187,-0.35615 -38.576112,-2.17207 -3.6215,-3.62149 0.56155,-5.19791 12.360162,-4.65808 21.30553,0.97484 69.60555,1.76283 69.60555,1.13558 0,-2.62053 -15.19139,-29.150776 -25.3217,-44.221832 C 115.91267,36.389339 88.133923,11.04451 62.455485,-0.4766255 47.43236,-7.2170405 35.60876,-9.693423 18.80576,-9.6187955 -10.173602,-9.4900867 -36.757052,0.451407 -62.084565,20.631994 c -8.725188,6.952111 -34.795725,33.249129 -34.678137,34.979409 0.03112,0.45758 10.2961,5.894464 22.811112,12.081964 14.990662,7.411472 22.89295,11.996375 23.160125,13.4375 0.7791,4.202513 -6.722163,2.525162 -18.566275,-4.151605 -12.218787,-6.887975 -28.983112,-14.910895 -31.15711,-14.910895 -2.25879,0 -19.3972,27.17355 -28.69264,45.493173 -16.45251,32.42494 -29.02324,69.51631 -38.80775,114.50683 -7.27037,33.4302 -12.6735,77.38193 -12.63549,102.7836 0.0145,9.67032 0.4513,11.77027 3.84823,18.49956 3.59716,7.12594 14.64179,25.54022 29.9694,49.96684 19.22719,30.64112 43.81416,73.82853 56.575048,99.375 18.643225,37.32251 35.642062,83.18312 41.4583,111.84905 1.721362,8.48385 3.574287,15.8287 4.117625,16.32191 2.315387,2.10175 16.3048,5.59512 31.612887,7.89424 9.7711375,1.46752 39.53895,0.58922 54.375,-1.60433 z M -53.31459,606.75587 C -63.910777,557.46458 -96.926927,489.15 -153.44744,399.56837 c -10.76404,-17.06035 -21.34841,-34.76995 -24.53922,-41.05864 -1.51634,-2.98849 -2.99742,-5.1932 -3.29127,-4.89934 -0.92863,0.92863 1.80982,42.19521 3.8378,57.83298 7.25617,55.95232 23.03544,102.11685 47.4255,138.75 18.4918,27.77413 40.272653,48.05968 67.020565,62.41948 5.8024,3.11507 10.913263,5.67314 11.35745,5.68463 0.4442,0.0113 -0.310887,-5.18224 -1.677975,-11.54161 z m 299.67483,-255.0317 c 26.85758,-19.26382 43.44071,-31.77108 50.31978,-37.95198 l 5.37427,-4.82882 -3.75119,-14.375 c -6.54858,-25.09495 -12.86165,-60.81094 -14.5825,-82.5 -0.46365,-5.84375 -1.0869,-11.0431 -1.38502,-11.55413 -0.2981,-0.51101 -0.80565,-15.40239 -1.12787,-33.09195 -0.32223,-17.68956 -0.99448,-32.53614 -1.4939,-32.99239 -0.99446,-0.90851 -12.23145,-3.77285 -25.90805,-6.60405 -7.77353,-1.6092 -27.09523,-4.45163 -43.125,-6.34415 -10.93619,-1.29115 -37.91955,-3.16045 -38.41853,-2.66148 -0.27823,0.27823 0.58595,2.66977 1.9204,5.31451 3.81248,7.55595 13.78873,34.43185 19.64879,52.93364 14.1596,44.70555 25.13086,101.54312 27.62719,143.125 0.454,7.5625 0.98417,14.59375 1.17816,15.625 0.19399,1.03125 0.39575,8.48437 0.44835,16.5625 0.0526,8.07812 0.51751,14.67323 1.03314,14.6558 0.51562,-0.0174 10.52451,-6.90805 22.24197,-15.3125 z m 84.38302,-69.21572 c 33.60911,-34.4881 42.24746,-56.41378 33.68239,-85.492 -7.12738,-24.1972 -31.47719,-44.99783 -66.69995,-56.97786 -9.34589,-3.17874 -10.78796,-3.02312 -10.69637,1.15423 1.13002,51.53377 6.17444,99.18608 14.91294,140.87555 5.25291,25.06055 4.31534,23.246 9.76994,18.90821 2.52645,-2.00916 11.09043,-10.31983 19.03105,-18.46813 z M 283.80576,40.303812 c -2.0625,-0.916685 -5.09282,-3.122473 -6.73406,-4.90175 -2.41784,-2.621216 -2.84375,-4.09963 -2.24463,-7.791586 1.05524,-6.502709 4.16597,-10.780078 7.49519,-10.306195 2.13034,0.303232 3.06916,1.749218 4.25468,6.553122 1.78077,7.215945 3.40697,9.150518 8.49556,10.106574 8.30722,1.560782 16.62306,-8.84482 19.89758,-24.8978637 1.01953,-4.998105 2.16277,-7.6227463 3.32029,-7.6227463 2.27279,0 1.73488,5.96626 -1.46055,16.199983 -4.02837,12.901342 -9.85757,19.682546 -19.77309,23.002388 -5.42611,1.81673 -8.57702,1.735425 -13.25097,-0.341926 z"
           style="fill:#00cafc" />
        <path
           inkscape:connector-curvature="0"
           id="path4155"
           d="m -163.06924,720.62733 c -39.20074,-3.99208 -90.14709,-16.71379 -144.375,-36.0516 -31.8079,-11.34279 -30.44228,-10.71911 -31.34476,-14.3149 -1.13361,-4.51664 1.02194,-12.47105 3.5093,-12.95008 1.14112,-0.21976 12.08967,3.24825 24.33011,7.70668 79.42325,28.92897 135.06613,42.0484 178.65455,42.12301 17.30663,0.0296 27.91164,-1.20341 39.2258,-4.56079 22.2939,-6.61551 37.351362,-22.3953 41.9134,-43.92402 1.875512,-8.85076 2.46365,-31.25944 0.879963,-33.52745 -0.505101,-0.72336 -6.824613,-4.18474 -14.043363,-7.69194 -56.93982,-27.66406 -96.42906,-89.18561 -112.98581,-176.0242 -1.70075,-8.92027 -3.40213,-18.6555 -3.78083,-21.63385 -2.51722,-19.7966 -3.29645,-28.72777 -4.54425,-52.08482 l -1.40235,-26.25 -6.66964,-15 c -19.89603,-44.7461 -34.67371,-94.28917 -41.38625,-138.75 -3.10708,-20.57997 -3.21428,-61.61777 -0.20261,-77.56753 4.4371,-23.498861 11.22533,-37.983149 23.67339,-50.512761 12.52349,-12.60553 28.00067,-18.159143 50.42335,-18.093182 15.36691,0.0452 27.88677,2.285335 45.50637,8.14228 6.40843,2.130226 12.05124,3.402451 12.53959,2.827165 0.48836,-0.575286 4.56734,-5.827225 9.064402,-11.670975 C -83.761253,27.404532 -62.78929,7.2025745 -50.190303,-1.463618 -13.55444,-26.663538 28.16486,-30.522723 64.956022,-12.115066 79.282735,-4.947003 91.80661,4.4215845 106.4548,18.928437 c 21.21422,21.009517 37.97131,44.81325 54.78808,77.82743 l 8.43663,16.562503 h 5.36711 c 6.8118,0 36.98887,3.17148 54.26934,5.7035 10.75149,1.57535 28.82136,5.27187 49.63104,10.15293 2.4765,0.58089 2.69676,-0.0308 3.5314,-9.80595 1.75708,-20.578746 6.77251,-51.287299 8.6895,-53.204286 2.13008,-2.130085 2.23864,2.223993 0.37313,14.96734 -2.14465,14.65025 -3.23871,26.537636 -3.85063,41.838376 l -0.361,9.02691 8.23817,2.67589 c 4.531,1.47175 14.42569,5.65059 21.98819,9.28631 41.32216,19.86595 60.01951,49.97208 53.16729,85.60898 -5.22115,27.15411 -17.34564,47.54288 -43.95504,73.91568 l -15.93234,15.79068 2.57021,8.58432 c 7.30255,24.38997 20.95953,54.14427 33.00235,71.90184 22.61299,33.34368 49.38449,49.26434 81.35892,48.3831 11.52056,-0.31751 13.32173,0.52368 12.69883,5.93064 -0.56131,4.87231 -4.76951,6.70292 -15.4601,6.72531 -28.81463,0.0604 -56.31638,-18.94237 -80.96857,-55.94634 -9.55641,-14.34458 -24.24251,-44.36468 -31.63236,-64.66023 -3.25424,-8.9375 -6.07195,-16.45787 -6.26158,-16.71192 -0.18962,-0.25405 -7.26191,4.74418 -15.71619,11.10717 -13.65352,10.27611 -57.32597,39.83256 -64.2619,43.49087 -2.39871,1.26519 -2.72093,2.85636 -3.51925,17.37829 -1.65222,30.05574 -6.72211,62.4663 -13.78897,88.14979 -5.79525,21.06195 -9.62104,31.35168 -18.79229,50.54318 l -7.86467,16.45739 11.27211,2.07153 c 28.49175,5.23606 78.94372,10.75158 125.95855,13.77006 5.84375,0.37519 14,0.94216 18.125,1.25995 4.125,0.31779 13.40625,0.93227 20.625,1.36554 7.21875,0.43325 14.03911,1.26613 15.15636,1.85086 2.9695,1.5541 3.60056,5.57614 1.37374,8.75537 l -1.94356,2.77482 -33.85577,-0.87112 c -38.43017,-0.98881 -42.37081,-1.22873 -75.10577,-4.57265 -27.32478,-2.79126 -56.01132,-7.30377 -75.09244,-11.81236 -7.28982,-1.72247 -13.41801,-3.13177 -13.61821,-3.13177 -0.20019,0 -2.78675,3.23437 -5.7479,7.1875 -12.58654,16.80296 -26.83186,30.63626 -42.42675,41.19962 -8.73736,5.91835 -27.077288,14.71836 -38.1147,18.28853 -37.91935,12.26535 -82.186625,12.30635 -122.5645,0.1135 -5.535487,-1.67153 -10.462275,-3.03915 -10.948425,-3.03915 -0.48615,0 -0.529388,3.01643 -0.09612,6.70318 1.090663,9.27983 -1.63455,30.98009 -5.158962,41.07968 -5.215238,14.94489 -15.896975,27.82841 -29.533663,35.62137 -7.36235,4.20737 -22.92025,9.0979 -34.59043,10.8733 -11.82505,1.79895 -34.15713,2.04124 -48.98294,0.53143 z m 204.375,-93.47309 c 46.147863,-6.82309 76.12463,-20.65167 103.1537,-47.58587 5.86434,-5.84375 12.46895,-12.94747 14.67693,-15.78602 l 4.01449,-5.16102 -11.45935,-4.00158 C 111.2304,540.4908 88.757548,519.24489 88.833323,495.19337 c 0.02437,-7.753 0.591412,-9.81822 4.975974,-18.125 3.898975,-7.38682 8.399703,-12.84015 21.222433,-25.71437 17.29488,-17.36431 32.76349,-29.77676 70.40718,-56.49672 12.85176,-9.12234 25.01374,-17.86921 27.0266,-19.4375 l 3.65975,-2.85141 -0.20376,-21.1875 c -0.59355,-61.71803 -11.19448,-125.26894 -30.42007,-182.36365 -5.89984,-17.52093 -17.83492,-47.70855 -19.64873,-49.69794 -1.52105,-1.66829 -10.98862,-2.11316 -47.31154,-2.22313 -32.164412,-0.0974 -36.760187,-0.35615 -38.576112,-2.17207 -3.6215,-3.62149 0.56155,-5.19791 12.360162,-4.65808 21.30553,0.97484 69.60555,1.76283 69.60555,1.13558 0,-2.62053 -15.19139,-29.150776 -25.3217,-44.221832 C 115.91267,36.389339 88.133923,11.04451 62.455485,-0.4766255 47.43236,-7.2170405 35.60876,-9.693423 18.80576,-9.6187955 -10.173602,-9.4900867 -36.757052,0.451407 -62.084565,20.631994 c -8.725188,6.952111 -34.795725,33.249129 -34.678137,34.979409 0.03112,0.45758 10.2961,5.894464 22.811112,12.081964 14.990662,7.411472 22.89295,11.996375 23.160125,13.4375 0.7791,4.202513 -6.722163,2.525162 -18.566275,-4.151605 -12.218787,-6.887975 -28.983112,-14.910895 -31.15711,-14.910895 -2.25879,0 -19.3972,27.17355 -28.69264,45.493173 -16.45251,32.42494 -29.02324,69.51631 -38.80775,114.50683 -7.27037,33.4302 -12.6735,77.38193 -12.63549,102.7836 0.0145,9.67032 0.4513,11.77027 3.84823,18.49956 3.59716,7.12594 14.64179,25.54022 29.9694,49.96684 19.22719,30.64112 43.81416,73.82853 56.575048,99.375 18.643225,37.32251 35.642062,83.18312 41.4583,111.84905 1.721362,8.48385 3.574287,15.8287 4.117625,16.32191 2.315387,2.10175 16.3048,5.59512 31.612887,7.89424 9.7711375,1.46752 39.53895,0.58922 54.375,-1.60433 z M -53.31459,606.75587 C -63.910777,557.46458 -96.926927,489.15 -153.44744,399.56837 c -10.76404,-17.06035 -21.34841,-34.76995 -24.53922,-41.05864 -1.51634,-2.98849 -2.99742,-5.1932 -3.29127,-4.89934 -0.92863,0.92863 1.80982,42.19521 3.8378,57.83298 7.25617,55.95232 23.03544,102.11685 47.4255,138.75 18.4918,27.77413 40.272653,48.05968 67.020565,62.41948 5.8024,3.11507 10.913263,5.67314 11.35745,5.68463 0.4442,0.0113 -0.310887,-5.18224 -1.677975,-11.54161 z m 231.13976,-72.1875 c 17.35676,-31.54385 30.95624,-79.31442 35.22953,-123.75 1.59832,-16.62009 2.19182,-25 1.77061,-25 -1.16511,0 -46.97152,30.27466 -61.64455,40.7425 -80.458987,57.39997 -79.916037,93.02617 1.78945,117.4177 15.12344,4.5148 15.21316,4.47786 22.85496,-9.4102 z m 68.53507,-182.8442 c 26.85758,-19.26382 43.44071,-31.77108 50.31978,-37.95198 l 5.37427,-4.82882 -3.75119,-14.375 c -6.54858,-25.09495 -12.86165,-60.81094 -14.5825,-82.5 -0.46365,-5.84375 -1.0869,-11.0431 -1.38502,-11.55413 -0.2981,-0.51101 -0.80565,-15.40239 -1.12787,-33.09195 -0.32223,-17.68956 -0.99448,-32.53614 -1.4939,-32.99239 -0.99446,-0.90851 -12.23145,-3.77285 -25.90805,-6.60405 -7.77353,-1.6092 -27.09523,-4.45163 -43.125,-6.34415 -10.93619,-1.29115 -37.91955,-3.16045 -38.41853,-2.66148 -0.27823,0.27823 0.58595,2.66977 1.9204,5.31451 3.81248,7.55595 13.78873,34.43185 19.64879,52.93364 14.1596,44.70555 25.13086,101.54312 27.62719,143.125 0.454,7.5625 0.98417,14.59375 1.17816,15.625 0.19399,1.03125 0.39575,8.48437 0.44835,16.5625 0.0526,8.07812 0.51751,14.67323 1.03314,14.6558 0.51562,-0.0174 10.52451,-6.90805 22.24197,-15.3125 z m 84.38302,-69.21572 c 33.60911,-34.4881 42.24746,-56.41378 33.68239,-85.492 -7.12738,-24.1972 -31.47719,-44.99783 -66.69995,-56.97786 -9.34589,-3.17874 -10.78796,-3.02312 -10.69637,1.15423 1.13002,51.53377 6.17444,99.18608 14.91294,140.87555 5.25291,25.06055 4.31534,23.246 9.76994,18.90821 2.52645,-2.00916 11.09043,-10.31983 19.03105,-18.46813 z M 283.80576,40.303812 c -2.0625,-0.916685 -5.09282,-3.122473 -6.73406,-4.90175 -2.41784,-2.621216 -2.84375,-4.09963 -2.24463,-7.791586 1.05524,-6.502709 4.16597,-10.780078 7.49519,-10.306195 2.13034,0.303232 3.06916,1.749218 4.25468,6.553122 1.78077,7.215945 3.40697,9.150518 8.49556,10.106574 8.30722,1.560782 16.62306,-8.84482 19.89758,-24.8978637 1.01953,-4.998105 2.16277,-7.6227463 3.32029,-7.6227463 2.27279,0 1.73488,5.96626 -1.46055,16.199983 -4.02837,12.901342 -9.85757,19.682546 -19.77309,23.002388 -5.42611,1.81673 -8.57702,1.735425 -13.25097,-0.341926 z"
           style="fill:#fb6400" />
        <path
           inkscape:connector-curvature="0"
           id="path4153"
           d="m -163.06924,720.62733 c -39.20074,-3.99208 -90.14709,-16.71379 -144.375,-36.0516 -31.8079,-11.34279 -30.44228,-10.71911 -31.34476,-14.3149 -1.13361,-4.51664 1.02194,-12.47105 3.5093,-12.95008 1.14112,-0.21976 12.08967,3.24825 24.33011,7.70668 79.42325,28.92897 135.06613,42.0484 178.65455,42.12301 17.30663,0.0296 27.91164,-1.20341 39.2258,-4.56079 22.2939,-6.61551 37.351362,-22.3953 41.9134,-43.92402 1.875512,-8.85076 2.46365,-31.25944 0.879963,-33.52745 -0.505101,-0.72336 -6.824613,-4.18474 -14.043363,-7.69194 -56.93982,-27.66406 -96.42906,-89.18561 -112.98581,-176.0242 -1.70075,-8.92027 -3.40213,-18.6555 -3.78083,-21.63385 -2.51722,-19.7966 -3.29645,-28.72777 -4.54425,-52.08482 l -1.40235,-26.25 -6.66964,-15 c -19.89603,-44.7461 -34.67371,-94.28917 -41.38625,-138.75 -3.10708,-20.57997 -3.21428,-61.61777 -0.20261,-77.56753 4.4371,-23.498861 11.22533,-37.983149 23.67339,-50.512761 12.52349,-12.60553 28.00067,-18.159143 50.42335,-18.093182 15.36691,0.0452 27.88677,2.285335 45.50637,8.14228 6.40843,2.130226 12.05124,3.402451 12.53959,2.827165 0.48836,-0.575286 4.56734,-5.827225 9.064402,-11.670975 C -83.761253,27.404532 -62.78929,7.2025745 -50.190303,-1.463618 -13.55444,-26.663538 28.16486,-30.522723 64.956022,-12.115066 79.282735,-4.947003 91.80661,4.4215845 106.4548,18.928437 c 21.21422,21.009517 37.97131,44.81325 54.78808,77.82743 l 8.43663,16.562503 h 5.36711 c 6.8118,0 36.98887,3.17148 54.26934,5.7035 10.75149,1.57535 28.82136,5.27187 49.63104,10.15293 2.4765,0.58089 2.69676,-0.0308 3.5314,-9.80595 1.75708,-20.578746 6.77251,-51.287299 8.6895,-53.204286 2.13008,-2.130085 2.23864,2.223993 0.37313,14.96734 -2.14465,14.65025 -3.23871,26.537636 -3.85063,41.838376 l -0.361,9.02691 8.23817,2.67589 c 4.531,1.47175 14.42569,5.65059 21.98819,9.28631 41.32216,19.86595 60.01951,49.97208 53.16729,85.60898 -5.22115,27.15411 -17.34564,47.54288 -43.95504,73.91568 l -15.93234,15.79068 2.57021,8.58432 c 7.30255,24.38997 20.95953,54.14427 33.00235,71.90184 22.61299,33.34368 49.38449,49.26434 81.35892,48.3831 11.52056,-0.31751 13.32173,0.52368 12.69883,5.93064 -0.56131,4.87231 -4.76951,6.70292 -15.4601,6.72531 -28.81463,0.0604 -56.31638,-18.94237 -80.96857,-55.94634 -9.55641,-14.34458 -24.24251,-44.36468 -31.63236,-64.66023 -3.25424,-8.9375 -6.07195,-16.45787 -6.26158,-16.71192 -0.18962,-0.25405 -7.26191,4.74418 -15.71619,11.10717 -13.65352,10.27611 -57.32597,39.83256 -64.2619,43.49087 -2.39871,1.26519 -2.72093,2.85636 -3.51925,17.37829 -1.65222,30.05574 -6.72211,62.4663 -13.78897,88.14979 -5.79525,21.06195 -9.62104,31.35168 -18.79229,50.54318 l -7.86467,16.45739 11.27211,2.07153 c 28.49175,5.23606 78.94372,10.75158 125.95855,13.77006 5.84375,0.37519 14,0.94216 18.125,1.25995 4.125,0.31779 13.40625,0.93227 20.625,1.36554 7.21875,0.43325 14.03911,1.26613 15.15636,1.85086 2.9695,1.5541 3.60056,5.57614 1.37374,8.75537 l -1.94356,2.77482 -33.85577,-0.87112 c -38.43017,-0.98881 -42.37081,-1.22873 -75.10577,-4.57265 -27.32478,-2.79126 -56.01132,-7.30377 -75.09244,-11.81236 -7.28982,-1.72247 -13.41801,-3.13177 -13.61821,-3.13177 -0.20019,0 -2.78675,3.23437 -5.7479,7.1875 -12.58654,16.80296 -26.83186,30.63626 -42.42675,41.19962 -8.73736,5.91835 -27.077288,14.71836 -38.1147,18.28853 -37.91935,12.26535 -82.186625,12.30635 -122.5645,0.1135 -5.535487,-1.67153 -10.462275,-3.03915 -10.948425,-3.03915 -0.48615,0 -0.529388,3.01643 -0.09612,6.70318 1.090663,9.27983 -1.63455,30.98009 -5.158962,41.07968 -5.215238,14.94489 -15.896975,27.82841 -29.533663,35.62137 -7.36235,4.20737 -22.92025,9.0979 -34.59043,10.8733 -11.82505,1.79895 -34.15713,2.04124 -48.98294,0.53143 z m 204.375,-93.47309 c 46.147863,-6.82309 76.12463,-20.65167 103.1537,-47.58587 5.86434,-5.84375 12.46895,-12.94747 14.67693,-15.78602 l 4.01449,-5.16102 -11.45935,-4.00158 C 111.2304,540.4908 88.757548,519.24489 88.833323,495.19337 c 0.02437,-7.753 0.591412,-9.81822 4.975974,-18.125 3.898975,-7.38682 8.399703,-12.84015 21.222433,-25.71437 17.29488,-17.36431 32.76349,-29.77676 70.40718,-56.49672 12.85176,-9.12234 25.01374,-17.86921 27.0266,-19.4375 l 3.65975,-2.85141 -0.20376,-21.1875 c -0.59355,-61.71803 -11.19448,-125.26894 -30.42007,-182.36365 -5.89984,-17.52093 -17.83492,-47.70855 -19.64873,-49.69794 -1.52105,-1.66829 -10.98862,-2.11316 -47.31154,-2.22313 -32.164412,-0.0974 -36.760187,-0.35615 -38.576112,-2.17207 -3.6215,-3.62149 0.56155,-5.19791 12.360162,-4.65808 21.30553,0.97484 69.60555,1.76283 69.60555,1.13558 0,-2.62053 -15.19139,-29.150776 -25.3217,-44.221832 C 115.91267,36.389339 88.133923,11.04451 62.455485,-0.4766255 47.43236,-7.2170405 35.60876,-9.693423 18.80576,-9.6187955 -10.173602,-9.4900867 -36.757052,0.451407 -62.084565,20.631994 c -8.725188,6.952111 -34.795725,33.249129 -34.678137,34.979409 0.03112,0.45758 10.2961,5.894464 22.811112,12.081964 14.990662,7.411472 22.89295,11.996375 23.160125,13.4375 0.7791,4.202513 -6.722163,2.525162 -18.566275,-4.151605 -12.218787,-6.887975 -28.983112,-14.910895 -31.15711,-14.910895 -2.25879,0 -19.3972,27.17355 -28.69264,45.493173 -16.45251,32.42494 -29.02324,69.51631 -38.80775,114.50683 -7.27037,33.4302 -12.6735,77.38193 -12.63549,102.7836 0.0145,9.67032 0.4513,11.77027 3.84823,18.49956 3.59716,7.12594 14.64179,25.54022 29.9694,49.96684 19.22719,30.64112 43.81416,73.82853 56.575048,99.375 18.643225,37.32251 35.642062,83.18312 41.4583,111.84905 1.721362,8.48385 3.574287,15.8287 4.117625,16.32191 2.315387,2.10175 16.3048,5.59512 31.612887,7.89424 9.7711375,1.46752 39.53895,0.58922 54.375,-1.60433 z M -53.31459,606.75587 C -63.910777,557.46458 -96.926927,489.15 -153.44744,399.56837 c -10.76404,-17.06035 -21.34841,-34.76995 -24.53922,-41.05864 -1.51634,-2.98849 -2.99742,-5.1932 -3.29127,-4.89934 -0.92863,0.92863 1.80982,42.19521 3.8378,57.83298 7.25617,55.95232 23.03544,102.11685 47.4255,138.75 18.4918,27.77413 40.272653,48.05968 67.020565,62.41948 5.8024,3.11507 10.913263,5.67314 11.35745,5.68463 0.4442,0.0113 -0.310887,-5.18224 -1.677975,-11.54161 z m 231.13976,-72.1875 c 17.35676,-31.54385 30.95624,-79.31442 35.22953,-123.75 1.59832,-16.62009 2.19182,-25 1.77061,-25 -1.16511,0 -46.97152,30.27466 -61.64455,40.7425 -80.458987,57.39997 -79.916037,93.02617 1.78945,117.4177 15.12344,4.5148 15.21316,4.47786 22.85496,-9.4102 z m 68.53507,-182.8442 c 26.85758,-19.26382 43.44071,-31.77108 50.31978,-37.95198 l 5.37427,-4.82882 -3.75119,-14.375 c -6.54858,-25.09495 -12.86165,-60.81094 -14.5825,-82.5 -0.46365,-5.84375 -1.0869,-11.0431 -1.38502,-11.55413 -0.2981,-0.51101 -0.80565,-15.40239 -1.12787,-33.09195 -0.32223,-17.68956 -0.99448,-32.53614 -1.4939,-32.99239 -0.99446,-0.90851 -12.23145,-3.77285 -25.90805,-6.60405 -7.77353,-1.6092 -27.09523,-4.45163 -43.125,-6.34415 -10.93619,-1.29115 -37.91955,-3.16045 -38.41853,-2.66148 -0.27823,0.27823 0.58595,2.66977 1.9204,5.31451 3.81248,7.55595 13.78873,34.43185 19.64879,52.93364 14.1596,44.70555 25.13086,101.54312 27.62719,143.125 0.454,7.5625 0.98417,14.59375 1.17816,15.625 0.19399,1.03125 0.39575,8.48437 0.44835,16.5625 0.0526,8.07812 0.51751,14.67323 1.03314,14.6558 0.51562,-0.0174 10.52451,-6.90805 22.24197,-15.3125 z m -429.40513,-65.2808 c 7.66185,-76.35743 33.71848,-158.81185 68.0867,-215.455785 3.90631,-6.43818 6.63249,-12.160507 6.05816,-12.71628 -1.84495,-1.785383 -23.93716,-8.562595 -34.35297,-10.538442 -12.49532,-2.37032 -30.82718,-2.4477 -39.39574,-0.166291 -24.72728,6.583724 -41.1717,26.772234 -46.74669,57.390018 -9.35488,51.3769 4.82273,129.22335 37.69974,207.00175 l 5.50145,13.01498 0.88483,-12.38998 c 0.48665,-6.81449 1.50568,-18.57747 2.26452,-26.13997 z m 508.16631,2.30595 c 30.25204,-29.72205 42.15964,-49.92373 42.25134,-71.68095 0.13764,-32.65658 -21.97096,-58.66032 -63.7853,-75.02308 -6.99506,-2.73731 -13.60444,-4.97692 -14.6875,-4.97692 -2.39829,0 -2.45135,2.68982 -0.70269,35.625 2.47097,46.53968 9.43235,96.97536 17.54183,127.09165 1.67595,6.22398 2.00632,6.03588 19.38232,-11.0357 z M 283.80576,40.303812 c -2.0625,-0.916685 -5.09282,-3.122473 -6.73406,-4.90175 -2.41784,-2.621216 -2.84375,-4.09963 -2.24463,-7.791586 1.05524,-6.502709 4.16597,-10.780078 7.49519,-10.306195 2.13034,0.303232 3.06916,1.749218 4.25468,6.553122 1.78077,7.215945 3.40697,9.150518 8.49556,10.106574 8.30722,1.560782 16.62306,-8.84482 19.89758,-24.8978637 1.01953,-4.998105 2.16277,-7.6227463 3.32029,-7.6227463 2.27279,0 1.73488,5.96626 -1.46055,16.199983 -4.02837,12.901342 -9.85757,19.682546 -19.77309,23.002388 -5.42611,1.81673 -8.57702,1.735425 -13.25097,-0.341926 z"
           style="fill:#616161" />
        <path
           inkscape:connector-curvature="0"
           id="path4151"
           d="m -158.69424,720.6955 c -35.91976,-2.93976 -76.6448,-12.3421 -129.375,-29.86928 -43.152,-14.34344 -49.59886,-16.98942 -50.54107,-20.74348 -1.05358,-4.19779 1.43218,-13.01437 3.66929,-13.01437 0.98003,0 10.66147,3.3051 21.51432,7.34466 55.91805,20.81339 108.17967,35.21797 147.85746,40.75315 19.20589,2.67929 50.06361,2.68786 62.98485,0.0175 29.5627,-6.10954 46.4081,-21.26505 51.852338,-46.65065 1.977412,-9.22036 1.872875,-33.52675 -0.149688,-34.80334 -0.859375,-0.54242 -5.5,-2.7243 -10.3125,-4.84862 -36.3625,-16.05105 -67.54124,-48.53043 -88.73605,-92.43772 -20.76187,-43.0104 -33.33686,-99.76921 -35.17126,-158.75 l -0.73868,-23.75 -6.00632,-13.75 c -26.88585,-61.54853 -41.52469,-115.25101 -45.2559,-166.02095 -2.54433,-34.62012 1.63594,-63.9313 12.15569,-85.233383 12.64796,-25.611603 32.97026,-37.480743 63.75252,-37.234351 15.19805,0.12165 28.1041,2.414878 44.75863,7.952998 6.05473,2.013392 11.47096,3.660703 12.03603,3.660703 0.56509,0 4.29728,-4.344371 8.29374,-9.654157 19.6263,-26.075897 46.439212,-48.328393 70.368688,-58.400169 16.523912,-6.954818 36.639174,-10.0184 53.3286,-8.122018 C 77.35731,-17.20319 122.66671,23.105378 160.1302,95.052379 l 9.33365,17.924871 10.92095,0.84452 c 31.11916,2.40641 63.5481,7.1916 85.92096,12.6784 6.875,1.68605 13.15835,3.06615 13.96301,3.06687 0.89394,8.1e-4 1.77465,-3.28062 2.26421,-8.43617 2.18113,-22.969178 6.83428,-51.915676 8.63492,-53.716306 2.00071,-2.000713 1.92582,1.927799 -0.34185,17.93424 -1.35149,9.539513 -2.83047,23.860486 -3.2866,31.824386 l -0.82937,14.47983 9.79784,3.51206 c 15.50428,5.55755 37.79205,17.41207 46.96426,24.97956 28.46802,23.48743 35.43044,53.18533 21.11313,90.057 -7.27055,18.72399 -18.85584,34.68174 -40.53946,55.83965 l -13.67958,13.34793 4.69915,14.15207 c 18.30661,55.13273 43.37605,91.27854 73.85451,106.48548 11.65607,5.81568 22.67555,8.2916 36.90319,8.2916 7.55594,0 12.4018,0.54416 13.35764,1.5 2.14581,2.14581 1.85075,6.65276 -0.56691,8.65945 -2.78394,2.31068 -22.80162,2.28106 -31.05809,-0.046 -37.61891,-10.60263 -72.78845,-55.47695 -96.86854,-123.59877 l -4.54592,-12.86026 -9.29276,7.32571 c -12.53353,9.88049 -35.65805,26.0418 -56.37178,39.39723 l -17.06428,11.0024 -0.83004,13.3726 c -3.76273,60.61922 -16.44399,112.24684 -36.80498,149.83937 -2.11041,3.89647 -3.62028,7.30132 -3.35525,7.56634 0.88964,0.88964 27.23725,5.31576 46.2733,7.77341 23.92893,3.08937 52.34809,5.71017 88.86025,8.19467 59.27046,4.0331 58.64536,3.91976 57.8757,10.49381 -0.63869,5.45525 -4.00786,5.7558 -46.33746,4.13356 -56.58569,-2.1686 -105.34758,-7.73104 -139.4508,-15.90764 -7.10191,-1.70272 -13.35207,-3.09588 -13.88923,-3.09588 -0.53716,0 -4.13395,4.12211 -7.99285,9.16025 -15.6989,20.49631 -39.16898,39.89105 -60.10138,49.66538 -41.889842,19.56037 -95.874168,22.22318 -143.398718,7.07324 l -9.54475,-3.04269 -0.069,15.75942 c -0.213687,48.82883 -24.905412,74.69271 -76.466512,80.09652 -13.33551,1.39763 -18.91684,1.38475 -36.875,-0.085 z m 206.25,-94.14451 c 45.560763,-8.49171 70.60958,-20.69992 97.59745,-47.5667 6.9286,-6.89751 13.80129,-14.29006 15.27264,-16.4279 l 2.67519,-3.88699 -14.12971,-5.23613 c -35.53464,-13.16834 -58.10767,-33.42772 -60.455682,-54.25925 -1.521813,-13.50147 6.998412,-28.6191 27.613762,-48.99574 15.9216,-15.73723 32.33249,-28.709 71.59152,-56.58863 24.43734,-17.35405 27.76247,-20.12331 28.49903,-23.7348 0.93296,-4.57455 0.0141,-33.4086 -1.88139,-59.03648 -3.67981,-49.75323 -15.46635,-106.45207 -31.18194,-150 -7.18408,-19.90713 -16.62327,-41.37473 -18.67506,-42.4728 -1.12578,-0.60252 -20.58215,-1.37983 -43.23635,-1.72737 -22.654198,-0.34753 -41.330085,-0.66968 -41.50196,-0.71586 -0.171875,-0.0463 -0.3125,-1.29941 -0.3125,-2.78496 v -2.70099 l 41.25,0.78346 c 22.6875,0.4309 41.25,0.42932 41.25,-0.004 0,-2.17673 -15.0654,-28.928658 -23.09091,-41.002733 C 120.8827,43.177502 97.55221,19.134157 77.791985,7.2802158 68.592185,1.7613557 53.230485,-4.808443 43.18076,-7.5221017 30.929135,-10.830328 5.95001,-10.530438 -8.619165,-6.9002117 c -20.13625,5.0173837 -39.988,15.872945 -60.282712,32.9644727 -10.069913,8.480541 -27.292363,27.307248 -27.292363,29.834617 0,0.714706 5.026575,3.537513 11.17015,6.272904 15.784438,7.027912 34.587488,17.620235 34.070638,19.19301 -1.074313,3.269087 -6.845625,1.3178 -27.613388,-9.336135 l -22.22425,-11.401124 -3.58679,4.877279 c -41.24725,56.087538 -69.53941,147.894238 -76.236,247.382118 l -1.44338,21.44355 7.15467,12.93145 c 3.93506,7.11229 14.02154,23.90019 22.41439,37.30644 58.27921,93.09187 91.09541,162.45221 103.042498,217.79068 1.44455,6.69114 2.626462,13.52069 2.626462,15.17679 0,2.31453 1.08435,3.44256 4.6875,4.87634 6.9123,2.75056 22.05515,5.86955 33.4375,6.88716 13.614725,1.21719 42.562087,-0.19716 56.25,-2.74835 z m -98.6939,-11.04512 c -5.973375,-27.24943 -9.011587,-37.25755 -18.49905,-60.9375 -16.659025,-41.57957 -41.95925,-88.20755 -88.51121,-163.125 -6.40795,-10.3125 -14.39559,-23.53125 -17.75031,-29.375 l -6.0995,-10.625 0.77121,17.5 c 3.8695,87.80507 26.86257,156.393 68.67832,204.86611 12.69469,14.71577 33.34224,30.78177 51.369978,39.97135 10.36735,5.28471 10.838637,5.36569 10.040562,1.72504 z m 234.3926,-91.45253 c 15.19197,-31.84512 25.82221,-71.52466 29.83359,-111.35997 2.72696,-27.08023 2.73019,-27.19523 0.74168,-26.43218 -3.28328,1.25993 -55.92725,36.30035 -68.48387,45.58366 -40.16705,29.69614 -56.536563,53.2706 -50.919775,73.3318 4.237037,15.13324 26.612075,29.43985 60.553015,38.71764 l 15.0557,4.11549 3.00566,-4.42324 c 1.65312,-2.43277 6.24942,-11.22272 10.214,-19.5332 z m 63.0513,-172.04281 c 30.38057,-21.58399 55.59935,-41.14645 55.61476,-43.14093 0.006,-0.72806 -1.92752,-8.88431 -4.29588,-18.125 -10.4769,-40.87778 -15.74979,-82.55466 -16.26734,-128.57718 l -0.31518,-28.02595 -5.42884,-1.60295 c -8.57758,-2.53267 -36.7005,-7.76237 -52.43252,-9.75028 -18.40135,-2.32522 -49.91384,-4.9727 -50.63271,-4.25384 -0.30374,0.30375 2.29526,7.55128 5.77556,16.10562 26.17618,64.33922 41.64714,138.17138 44.43445,212.05475 l 0.813,21.55001 5.74235,-4.12083 c 3.15829,-2.26645 10.80485,-7.71748 16.99235,-12.11342 z m -429.35065,-65.56716 c 7.65225,-76.26167 33.78786,-158.97184 68.08195,-215.455785 3.90893,-6.43818 6.63724,-12.160507 6.06291,-12.71628 -1.84495,-1.785383 -23.93716,-8.562595 -34.35297,-10.538442 -12.49531,-2.37032 -30.82718,-2.4477 -39.39574,-0.166291 -24.72727,6.583724 -41.1717,26.772234 -46.74669,57.390018 -9.35488,51.3769 4.82273,129.22335 37.69974,207.00175 l 5.50145,13.01498 0.88483,-12.38998 c 0.48665,-6.81449 1.50568,-18.57747 2.26452,-26.13997 z m 510.2834,0.27106 c 18.35571,-18.30036 26.5107,-28.87149 34.26745,-44.42013 6.91743,-13.86617 8.16781,-23.63048 4.9624,-38.75137 -4.83388,-22.80274 -19.0001,-39.6092 -45.08165,-53.48381 -10.4667,-5.56797 -29.10369,-12.99075 -32.61694,-12.99075 -1.48639,0 -1.83901,2.22117 -1.83901,11.58383 0,24.52792 3.26844,64.79233 7.68446,94.66617 2.21943,15.0142 10.14363,55.51958 11.68739,59.7414 0.9999,2.73448 4.68105,-0.13952 20.9359,-16.34534 z M 285.05576,40.139986 c -7.16666,-2.464225 -11.06683,-7.36468 -10.18521,-12.797437 0.92786,-5.717763 4.05623,-10.274182 7.05411,-10.274182 1.879,0 2.89583,1.580834 4.4454,6.911195 2.42855,8.353909 5.99124,11.255266 12.35484,10.061448 7.43256,-1.394358 13.9661,-11.444455 16.92535,-26.035143 1.53678,-7.57717125 3.78051,-9.6954637 3.78051,-3.5691687 0,5.3428112 -4.75948,20.0748637 -8.1979,25.3750737 -3.22646,4.973459 -11.37277,10.291014 -17.4271,11.375636 -2.0625,0.369494 -6,-0.10185 -8.75,-1.047422 z"
           style="fill:#323232" />
        <path
           inkscape:connector-curvature="0"
           id="path4149"
           d="m -164.94424,719.97522 c -38.12725,-4.76407 -73.01575,-12.85563 -115.625,-26.81648 -25.50794,-8.35762 -53.97952,-18.62127 -55.9375,-20.16476 -2.18769,-1.72456 -2.0104,-12.74778 0.23499,-14.61129 1.43424,-1.19031 5.66548,-0.0562 20.9375,5.6116 121.63961,45.1438 202.35374,55.46406 240.575123,30.76039 17.955675,-11.60531 25.439887,-28.03536 25.439887,-55.84804 v -15.13647 l -9.524787,-4.18584 C -134.61054,586.2874 -180.60048,493.64359 -185.12795,365.19337 l -0.79305,-22.5 -6.17232,-13.75 c -32.17569,-71.67754 -49.55947,-149.93305 -44.72829,-201.35072 3.02848,-32.231846 10.5311,-52.312809 25.01627,-66.956743 14.44585,-14.604175 29.25385,-19.416627 55.9952,-18.197886 16.02575,0.730375 29.66531,3.59709 45.20099,9.500185 l 6.73051,2.55739 1.9422,-2.776115 c 7.256275,-10.371824 23.152863,-28.617624 31.938263,-36.658115 28.451275,-26.038914 56.0457,-37.992999 87.701787,-37.992999 51.67175,0 100.016,39.198641 139.51871,113.125 5.14314,9.625 9.73268,18.708833 10.19899,20.186313 0.74649,2.36524 2.07511,2.78346 11.11614,3.49917 32.13917,2.54425 72.36558,8.56775 91.51831,13.70397 6.1875,1.6593 11.43672,2.83251 11.66495,2.60711 0.22823,-0.22539 0.89682,-5.94183 1.48577,-12.70319 2.03613,-23.375323 6.77116,-50.418373 8.82785,-50.418373 1.47162,0 1.471,0.01125 -0.66131,12.127463 -2.09426,11.899962 -4.8785,44.36109 -4.24802,49.52745 0.39372,3.22639 1.50562,3.9357 12.93076,8.24895 32.62677,12.31734 53.14589,27.56356 63.41585,47.11962 11.73951,22.35437 10.85238,45.30404 -2.85197,73.77904 -7.89705,16.40854 -17.45707,28.933 -35.60717,46.64851 l -14.67747,14.32604 2.76535,9.42396 c 6.98697,23.81069 20.67069,53.65918 33.29451,72.62582 7.83865,11.77717 26.52083,30.54305 35.85896,36.01962 13.68055,8.0233 22.39206,10.46133 39.67694,11.10413 8.59375,0.31958 16.32813,1.14906 17.1875,1.84328 2.5445,2.05552 1.84001,6.96159 -1.25,8.70493 -1.7445,0.98421 -7.08448,1.54502 -14.0625,1.47684 -20.93444,-0.20454 -36.53986,-7.79332 -56.2434,-27.35065 -22.80514,-22.63592 -41.917,-55.56005 -56.20077,-96.81748 -2.48827,-7.18711 -4.74555,-13.28892 -5.0162,-13.55957 -0.27065,-0.27065 -4.32779,2.53277 -9.01587,6.22983 -13.94835,10.99982 -24.81061,18.69247 -47.89876,33.92193 -12.03125,7.93609 -22.87922,15.17085 -24.10661,16.07726 -1.85021,1.36638 -2.44295,4.74565 -3.46824,19.77303 -3.88309,56.9136 -14.46965,100.47857 -33.75655,138.91221 -4.56725,9.1013 -5.94357,12.95432 -4.86539,13.62067 2.36442,1.46129 39.57297,7.19604 64.32179,9.91357 20.20504,2.2186 61.67118,5.54203 107.81642,8.6413 17.43362,1.1709 20.30858,2.18256 20.30858,7.14632 0,5.2905 -3.29726,5.8265 -30.46035,4.95163 -64.7115,-2.08425 -111.5118,-6.93652 -152.02806,-15.76229 -9.27488,-2.02038 -17.43113,-3.66675 -18.125,-3.6586 -0.69388,0.009 -3.40007,3.09526 -6.01377,6.86026 -6.94866,10.00946 -23.51151,27.06713 -33.80255,34.81239 -18.65158,14.0376 -38.875433,23.34767 -63.32027,29.14961 -10.48055,2.48754 -17.707225,3.25386 -35.86765,3.80344 -26.78425,0.81056 -45.226625,-1.28773 -67.56985,-7.68778 l -14.0625,-4.0281 v 14.70597 c 0,18.06855 -2.383763,30.03866 -8.356475,41.96225 -9.9061,19.77595 -29.246075,32.57847 -56.355905,37.30602 -9.74792,1.6999 -44.06126,2.33264 -54.66262,1.00798 z m 190.044188,-90.4587 c 39.0375,-3.16995 72.408762,-13.85628 98.609252,-31.5772 13.51137,-9.13854 41.05895,-37.4102 38.61813,-39.63323 -0.56186,-0.51174 -4.11532,-1.9265 -7.89657,-3.14394 -20.33274,-6.54643 -42.44441,-19.20455 -52.38434,-29.98808 -7.698922,-8.35235 -13.255047,-20.72335 -13.184372,-29.3557 0.13595,-16.603 16.275892,-38.40225 46.824792,-63.24345 12.14493,-9.8758 43.61955,-33.1822 64.86715,-48.03299 l 16.74822,-11.70599 -0.83708,-26.32129 C 213.82867,263.6127 198.53473,192.57359 168.34615,123.00587 l -2.57655,-5.9375 -12.23191,-0.17192 c -6.72757,-0.0945 -26.00652,-0.51642 -42.84212,-0.9375 -27.80566,-0.69543 -30.648585,-0.96601 -31.02916,-2.95308 -0.386287,-2.01689 1.221225,-2.17849 20.6102,-2.0719 11.56603,0.0636 30.3104,0.51891 41.65415,1.01183 11.34375,0.49293 20.80245,0.77908 21.01935,0.63589 0.61391,-0.40531 -6.58089,-14.264161 -13.70375,-26.396586 C 125.02077,44.921453 93.370623,12.833223 63.81721,-0.4264955 49.362298,-6.911973 38.928485,-9.3415192 22.55576,-10.034348 10.358673,-10.550479 5.40921,-10.193171 -3.93164,-8.1221818 -35.414252,-1.1420792 -65.112077,17.742572 -89.33069,46.182506 l -8.466237,9.941907 23.662512,11.888472 c 13.014388,6.53866 23.455925,12.51667 23.203438,13.284482 -1.024425,3.11515 -6.367263,1.963613 -15.6075,-3.363847 -5.310663,-3.061874 -15.21785,-8.217765 -22.015963,-11.457538 l -12.3602,-5.890495 -2.85521,3.55394 c -6.05316,7.534465 -18.90884,29.324565 -27.53954,46.678943 -27.33212,54.95866 -46.09152,132.8778 -50.00826,207.71463 l -0.829,15.83964 6.24922,11.66036 c 3.43707,6.4132 14.68718,25.16037 25.00025,41.66037 59.619253,95.38552 92.861078,167.26297 102.49104,221.6122 2.369763,13.37438 1.337,12.42176 18.1122,16.70683 8.825888,2.2545 23.50315,4.2065 34.855675,4.63564 2.4782875,0.0936 11.720488,-0.41551 20.538213,-1.13152 z M -50.59629,617.38087 c -0.114125,-3.95262 -5.915387,-26.23402 -10.170562,-39.0625 -14.194088,-42.79227 -43.222998,-100.12227 -83.547368,-165 -24.7689,-39.8506 -26.80452,-43.20779 -32.21218,-53.125 l -5.4528,-10 0.70804,20.28848 c 1.6128,46.21404 10.62196,92.9451 25.01536,129.75622 20.76941,53.11772 51.30921,90.10928 93.27996,112.98606 9.042325,4.92865 12.434687,6.06772 12.37955,4.15674 z M 175.01455,540.8862 c 20.67501,-34.03473 35.84189,-88.82465 40.12145,-144.93756 0.75137,-9.85187 0.61562,-11.58152 -0.84225,-10.73209 -8.45445,4.92603 -59.76435,39.40735 -71.09568,47.77779 -20.54727,15.17825 -39.63677,34.80118 -45.60731,46.88175 -3.8012,7.69119 -4.66,10.79934 -4.66,16.86534 0,20.34374 19.35298,35.11541 62.75,47.89561 6.53125,1.92341 12.5374,3.53856 13.347,3.58923 0.80959,0.0506 3.50365,-3.25238 5.98679,-7.34007 z m 66.29121,-184.94465 c 35.25446,-24.99077 60.625,-44.73923 60.625,-47.1906 0,-0.89033 -1.9349,-9.36752 -4.29978,-18.8382 -4.3864,-17.56631 -8.26395,-37.31208 -10.62271,-54.09438 -3.36834,-23.96545 -4.21013,-35.48875 -4.92974,-67.48338 l -0.77277,-34.35837 -8.125,-2.21377 c -19.82201,-5.40078 -58.51839,-11.1053 -88.00976,-12.97416 -13.04259,-0.82651 -13.60223,-0.76047 -12.88538,1.52031 0.41218,1.3114 3.60317,9.39594 7.09109,17.96564 25.39259,62.38868 39.87598,132.9699 43.2887,210.9568 0.59376,13.56854 1.23636,18.79461 2.23673,18.19061 0.772,-0.46611 8.15362,-5.63233 16.40362,-11.4805 z m -425.6364,-48.30575 c 6.01104,-78.72605 23.80898,-146.36538 54.96845,-208.902246 5.42334,-10.8846 12.66088,-24.289908 16.08343,-29.789568 4.2791,-6.876069 5.77172,-10.292748 4.77866,-10.9386 -4.14376,-2.694967 -30.39691,-10.078945 -41.95058,-11.799052 -60.58872,-9.020426 -90.50263,36.956495 -80.76288,124.130516 4.58692,41.05458 18.4902,92.665 36.37225,135.01769 3.15558,7.47385 6.3667,15.11424 7.1358,16.97861 0.7691,1.86439 1.54341,3.24474 1.72071,3.06744 0.1773,-0.1773 0.92167,-8.17145 1.65416,-17.76479 z m 518.84178,-27.63911 c 12.57069,-13.0458 21.45823,-25.30567 28.12307,-38.79427 4.19048,-8.48085 4.8675,-11.08497 5.29504,-20.36663 1.40462,-30.49451 -14.38814,-54.3531 -47.56944,-71.8645 -8.15554,-4.30407 -30.29201,-13.15292 -32.90365,-13.15292 -2.07695,0 0.39794,53.95512 3.89512,84.9178 3.14678,27.86015 12.517,79.82596 15.17995,84.18561 0.78253,1.2811 14.52034,-10.95683 27.9799,-24.92509 z M 281.15657,38.431381 c -4.10717,-2.504458 -7.09086,-8.706288 -5.93472,-12.335734 3.50043,-10.988765 9.36745,-11.68695 11.11841,-1.323111 1.10066,6.514818 4.40639,9.795831 9.86959,9.795831 8.50841,0 16.4961,-10.81394 19.62031,-26.5625 1.32472,-6.6776687 3.6006,-9.8885612 3.6006,-5.0798613 0,3.863005 -4.03971,18.4556313 -6.40966,23.1535673 -6.42547,12.737145 -21.59154,18.61605 -31.86453,12.351808 z"
           style="fill:#020202" />
      </g>
      <g
         id="text4193"
         style="font-style:normal;font-variant:normal;font-weight:500;font-stretch:normal;font-size:7.42317057px;line-height:125%;font-family:'CMU Serif';-inkscape-font-specification:'CMU Serif, Medium';text-align:start;letter-spacing:0px;word-spacing:0px;writing-mode:lr-tb;text-anchor:start;fill:#000000;fill-opacity:1;stroke:none;stroke-width:1px;stroke-linecap:butt;stroke-linejoin:miter;stroke-opacity:1">
        <path
           inkscape:connector-curvature="0"
           id="path4641"
           style="font-style:normal;font-variant:normal;font-weight:normal;font-stretch:normal;font-size:5.70017815px;line-height:125%;font-family:Comfortaa;-inkscape-font-specification:'Comfortaa, Normal';text-align:start;writing-mode:lr-tb;text-anchor:start"
           d="m -18.584522,105.34274 q -0.09154,0.007 -0.163317,-0.0509 -0.06922,-0.0614 -0.07667,-0.15293 -0.0075,-0.0915 0.05116,-0.16055 0.06116,-0.072 0.152707,-0.0794 l 2.885083,-0.23479 q 0.09155,-0.007 0.160769,0.0539 0.07177,0.0584 0.07922,0.14993 0.0075,0.0916 -0.05371,0.16355 -0.05861,0.069 -0.150158,0.0764 l -1.220612,0.0993 0.307034,3.7728 q 0.0074,0.0915 -0.05371,0.16354 -0.05861,0.069 -0.150158,0.0765 -0.09155,0.007 -0.163318,-0.0509 -0.06922,-0.0614 -0.07667,-0.15293 l -0.307034,-3.7728 -1.220613,0.0993 z" />
        <path
           inkscape:connector-curvature="0"
           id="path4643"
           style="font-style:normal;font-variant:normal;font-weight:normal;font-stretch:normal;font-size:5.70017815px;line-height:125%;font-family:Comfortaa;-inkscape-font-specification:'Comfortaa, Normal';text-align:start;writing-mode:lr-tb;text-anchor:start"
           d="m -14.960156,104.83565 q -0.0056,-0.0917 0.05444,-0.15946 0.06262,-0.0707 0.154301,-0.0763 0.09168,-0.006 0.159631,0.0572 0.07056,0.0598 0.07613,0.15153 l 0.09205,1.51409 q 0.392233,-0.42817 0.975646,-0.46364 0.597305,-0.0363 1.045428,0.36307 0.450732,0.39644 0.487047,0.99375 l 0.08783,1.44464 q 0.0056,0.0917 -0.05705,0.16241 -0.06001,0.0678 -0.151692,0.0733 -0.09168,0.006 -0.16224,-0.0543 -0.06795,-0.0628 -0.07353,-0.15447 l -0.08783,-1.44464 q -0.02517,-0.41394 -0.337388,-0.68775 -0.309611,-0.27675 -0.723556,-0.25158 -0.413946,0.0252 -0.690527,0.33756 -0.273972,0.30944 -0.248805,0.72338 l 0.08783,1.44465 q 0.0056,0.0917 -0.05705,0.16241 -0.06001,0.0678 -0.151692,0.0733 -0.09168,0.006 -0.16224,-0.0543 -0.06795,-0.0628 -0.07353,-0.15447 l -0.243227,-4.00055 z" />
        <path
           inkscape:connector-curvature="0"
           id="path4645"
           style="font-style:normal;font-variant:normal;font-weight:normal;font-stretch:normal;font-size:5.70017815px;line-height:125%;font-family:Comfortaa;-inkscape-font-specification:'Comfortaa, Normal';text-align:start;writing-mode:lr-tb;text-anchor:start"
           d="m -10.829349,105.04666 q 0.0057,0.11397 -0.07348,0.20156 -0.07656,0.0847 -0.190534,0.0904 -0.113971,0.006 -0.201415,-0.0707 -0.08481,-0.0794 -0.09053,-0.19332 -0.0057,-0.11397 0.07084,-0.19863 0.0792,-0.0876 0.193174,-0.0933 0.113971,-0.006 0.198775,0.0736 0.08745,0.0764 0.09317,0.19039 z m -0.455658,0.91468 q -0.0046,-0.0917 0.05611,-0.15888 0.06336,-0.0701 0.155095,-0.0747 0.09173,-0.005 0.159021,0.0589 0.06993,0.0606 0.07454,0.15232 l 0.13411,2.66859 q 0.0046,0.0917 -0.05875,0.1618 -0.06072,0.0671 -0.152454,0.0718 -0.09173,0.005 -0.161661,-0.056 -0.06729,-0.0635 -0.0719,-0.15523 l -0.134111,-2.66859 z" />
        <path
           inkscape:connector-curvature="0"
           id="path4647"
           style="font-style:normal;font-variant:normal;font-weight:normal;font-stretch:normal;font-size:5.70017815px;line-height:125%;font-family:Comfortaa;-inkscape-font-specification:'Comfortaa, Normal';text-align:start;writing-mode:lr-tb;text-anchor:start"
           d="m -9.5461665,107.21502 q -0.2570024,-0.084 -0.3614047,-0.18271 -0.2055598,-0.18643 -0.2170408,-0.46174 -0.01148,-0.2753 0.1857215,-0.48967 0.3833981,-0.42549 1.0285607,-0.45239 0.6979991,-0.0291 1.2190854,0.50909 0.046697,0.051 0.047164,0.12896 0.00383,0.0918 -0.060131,0.16129 -0.061293,0.0666 -0.1530615,0.0705 -0.091769,0.004 -0.1498217,-0.0523 -0.058053,-0.0561 -0.084124,-0.0801 -0.3389307,-0.31179 -0.8005556,-0.29254 -0.4616249,0.0192 -0.7248704,0.31994 -0.063378,0.0834 -0.058739,0.19466 0.013793,0.13036 0.1436848,0.1723 l 1.3870927,0.39622 q 0.2570024,0.084 0.3614048,0.18272 0.2055599,0.18642 0.2170409,0.46173 0.011481,0.27531 -0.1857217,0.48967 -0.3833981,0.42549 -1.0285606,0.4524 -0.70078,0.0292 -1.2190855,-0.50909 -0.044148,-0.0567 -0.047163,-0.12896 -0.0038,-0.0918 0.057466,-0.1584 0.063958,-0.0695 0.1557265,-0.0734 0.091769,-0.004 0.1498216,0.0523 0.058053,0.0561 0.084124,0.0801 0.3389307,0.3118 0.8005556,0.29255 0.4616249,-0.0193 0.7248705,-0.31995 0.063378,-0.0834 0.058739,-0.19466 -0.013793,-0.13035 -0.1436849,-0.17229 z" />
        <path
           inkscape:connector-curvature="0"
           id="path4649"
           style="font-style:normal;font-variant:normal;font-weight:normal;font-stretch:normal;font-size:5.70017815px;line-height:125%;font-family:Comfortaa;-inkscape-font-specification:'Comfortaa, Normal';text-align:start;writing-mode:lr-tb;text-anchor:start"
           d="m -4.7933471,104.81981 q 0.00315,0.11407 -0.07801,0.19984 -0.078456,0.0829 -0.1925272,0.0861 -0.1140714,0.003 -0.1997671,-0.0752 -0.08299,-0.0812 -0.086141,-0.19531 -0.00315,-0.11407 0.075305,-0.19699 0.081161,-0.0858 0.1952325,-0.0889 0.1140714,-0.003 0.1970617,0.0781 0.085696,0.0784 0.088847,0.19245 z m -0.4762073,0.90414 q -0.00254,-0.0918 0.059687,-0.15757 0.064929,-0.0686 0.1567425,-0.0711 0.091814,-0.003 0.1576494,0.0625 0.068541,0.0621 0.071077,0.15396 l 0.073782,2.67094 q 0.00254,0.0918 -0.062393,0.16043 -0.062224,0.0658 -0.1540372,0.0683 -0.091813,0.003 -0.1603547,-0.0596 -0.065836,-0.065 -0.068372,-0.15682 l -0.073782,-2.67094 z" />
        <path
           inkscape:connector-curvature="0"
           id="path4651"
           style="font-style:normal;font-variant:normal;font-weight:normal;font-stretch:normal;font-size:5.70017815px;line-height:125%;font-family:Comfortaa;-inkscape-font-specification:'Comfortaa, Normal';text-align:start;writing-mode:lr-tb;text-anchor:start"
           d="m -3.557024,107.01603 q -0.2551246,-0.0895 -0.3573663,-0.1905 -0.2014775,-0.19083 -0.2069983,-0.46632 -0.00552,-0.27549 0.1962747,-0.48554 0.3925158,-0.41709 1.0381094,-0.43003 0.6984656,-0.014 1.2077834,0.53535 0.045583,0.052 0.044362,0.12996 0.00184,0.0918 -0.063607,0.15995 -0.06272,0.0653 -0.1545504,0.0671 -0.09183,0.002 -0.1486558,-0.0555 -0.056826,-0.0573 -0.082372,-0.0819 -0.3321041,-0.31906 -0.7940376,-0.3098 -0.4619334,0.009 -0.7316242,0.30418 -0.065168,0.082 -0.062938,0.19335 0.010969,0.13062 0.1399229,0.17536 l 1.3781936,0.42615 q 0.2551246,0.0895 0.3573662,0.19049 0.2014776,0.19083 0.2069984,0.46632 0.00552,0.2755 -0.1962747,0.48554 -0.3925158,0.4171 -1.0381095,0.43003 -0.7012483,0.0141 -1.2077834,-0.53535 -0.042912,-0.0576 -0.044362,-0.12995 -0.00184,-0.0918 0.06088,-0.15711 0.065447,-0.0681 0.1572773,-0.07 0.09183,-0.002 0.1486559,0.0555 0.056826,0.0573 0.082372,0.0819 0.3321041,0.31905 0.7940375,0.3098 0.4619334,-0.009 0.7316242,-0.30419 0.065168,-0.082 0.062938,-0.19334 -0.010969,-0.13062 -0.1399229,-0.17536 l -1.3781936,-0.42615 z" />
        <path
           inkscape:connector-curvature="0"
           id="path4653"
           style="font-style:normal;font-variant:normal;font-weight:normal;font-stretch:normal;font-size:5.70017815px;line-height:125%;font-family:Comfortaa;-inkscape-font-specification:'Comfortaa, Normal';text-align:start;writing-mode:lr-tb;text-anchor:start"
           d="m 0.53397506,105.61439 q -2.7694e-4,-0.0918 0.0635454,-0.15605 0.0665973,-0.067 0.1584454,-0.0673 0.0918482,-2.8e-4 0.15606495,0.0663 0.0669917,0.0638 0.0672686,0.15566 l 5.4548e-4,0.18091 q 0.41627481,-0.40483 1.00076311,-0.40659 0.5984046,-0.002 1.0227468,0.42276 0.427117,0.42177 0.4289213,1.02018 l 0.00436,1.4473 q 2.769e-4,0.0919 -0.06632,0.15885 -0.063822,0.0642 -0.1556706,0.0645 -0.091848,2.7e-4 -0.1588398,-0.0635 -0.064217,-0.0666 -0.064494,-0.15845 l -0.00436,-1.44731 q -0.00125,-0.41471 -0.297159,-0.70606 -0.2931337,-0.29415 -0.707842,-0.2929 -0.4147083,0.001 -0.7088462,0.29717 -0.291363,0.29313 -0.29011259,0.70783 l 0.004364,1.44731 q 2.7694e-4,0.0919 -0.0663203,0.15885 -0.0638224,0.0642 -0.15567052,0.0645 -0.0918482,2.8e-4 -0.15883984,-0.0635 -0.0642168,-0.0666 -0.0644937,-0.15845 l -0.008056,-2.67195 z" />
        <path
           inkscape:connector-curvature="0"
           id="path4655"
           style="font-size:5.70017815px;fill:#ff6600"
           d="m 7.0194386,106.97228 q -0.00622,0.64569 -0.4670591,1.09773 -0.4608368,0.45204 -1.1065302,0.44582 -0.6456933,-0.006 -1.0977332,-0.46706 -0.4520399,-0.46084 -0.4458177,-1.10653 0.00622,-0.64569 0.4670591,-1.09773 0.4608369,-0.45204 1.1065302,-0.44582 0.6456933,0.006 1.0977332,0.46706 0.4520399,0.46084 0.4458177,1.10653 z M 5.4715965,105.844 q -0.4620047,-0.004 -0.7907725,0.31803 -0.3287677,0.3225 -0.3332198,0.7845 -0.00445,0.46201 0.3180397,0.79077 0.3224919,0.32877 0.7844966,0.33322 0.4620047,0.004 0.7907725,-0.31804 0.3287678,-0.32249 0.3332199,-0.78449 0.00445,-0.46201 -0.3180398,-0.79077 -0.3224919,-0.32877 -0.7844966,-0.33322 z" />
        <path
           inkscape:connector-curvature="0"
           id="path4657"
           style="font-style:normal;font-variant:normal;font-weight:normal;font-stretch:normal;font-size:5.70017815px;line-height:125%;font-family:Comfortaa;-inkscape-font-specification:'Comfortaa, Normal';text-align:start;writing-mode:lr-tb;text-anchor:start"
           d="m 9.0168536,108.1283 q 0.091829,0.002 0.1544419,0.07 0.065454,0.0654 0.063545,0.15722 -0.00191,0.0918 -0.070082,0.15723 -0.065333,0.0627 -0.1571613,0.0608 -1.1130755,-0.0232 -1.0899322,-1.13622 l 0.032401,-1.55831 -0.222615,-0.005 q -0.091829,-0.002 -0.1572826,-0.0673 -0.062613,-0.0681 -0.060704,-0.15995 0.00191,-0.0918 0.067242,-0.1545 0.068173,-0.0654 0.1600019,-0.0635 l 0.2226151,0.005 0.023143,-1.11307 q 0.00191,-0.0918 0.067242,-0.1545 0.068173,-0.0654 0.1600019,-0.0635 0.091829,0.002 0.1544419,0.07 0.065454,0.0654 0.063544,0.15722 l -0.023143,1.11307 0.4480129,0.009 q 0.091829,0.002 0.154442,0.07 0.065454,0.0654 0.063545,0.15722 -0.00191,0.0918 -0.070082,0.15722 -0.065333,0.0627 -0.1571613,0.0608 l -0.4480129,-0.009 -0.0324,1.55831 q -0.013886,0.66784 0.6539593,0.68173 z" />
        <path
           inkscape:connector-curvature="0"
           id="path4659"
           style="font-style:normal;font-variant:normal;font-weight:normal;font-stretch:normal;font-size:5.70017815px;line-height:125%;font-family:Comfortaa;-inkscape-font-specification:'Comfortaa, Normal';text-align:start;writing-mode:lr-tb;text-anchor:start"
           d="m 13.009679,106.0276 q -0.461655,-0.0185 -0.800078,0.29385 -0.338423,0.31234 -0.356923,0.774 -0.0185,0.46165 0.293844,0.80007 0.312345,0.33843 0.774001,0.35693 0.461655,0.0185 0.800078,-0.29385 0.338423,-0.31234 0.356923,-0.774 0.0185,-0.46165 -0.293844,-0.80008 -0.312345,-0.33842 -0.774001,-0.35692 z m 1.024158,2.24718 q -0.48594,0.44849 -1.131146,0.42264 -0.645205,-0.0259 -1.083022,-0.50023 -0.437816,-0.47437 -0.411961,-1.11958 0.02586,-0.6452 0.500227,-1.08302 0.47437,-0.43781 1.119576,-0.41196 0.645205,0.0259 1.083021,0.50023 0.437817,0.47437 0.411961,1.11957 l -0.05349,1.33491 q -0.0037,0.0918 -0.0731,0.15585 -0.06653,0.0614 -0.158303,0.0577 -0.09178,-0.004 -0.155957,-0.0703 -0.06129,-0.0693 -0.05761,-0.16108 l 0.0098,-0.24473 z" />
        <path
           inkscape:connector-curvature="0"
           id="path4661"
           style="font-style:normal;font-variant:normal;font-weight:normal;font-stretch:normal;font-size:5.70017815px;line-height:125%;font-family:Comfortaa;-inkscape-font-specification:'Comfortaa, Normal';text-align:start;writing-mode:lr-tb;text-anchor:start"
           d="m 17.222477,107.35129 q -0.246709,-0.11064 -0.340116,-0.21982 -0.184749,-0.20707 -0.167127,-0.48205 0.01762,-0.27498 0.236336,-0.46735 0.426139,-0.38268 1.070541,-0.34138 0.697175,0.0447 1.158586,0.63484 0.04106,0.0556 0.0333,0.13321 -0.0059,0.0917 -0.07681,0.15405 -0.06798,0.0598 -0.159639,0.0539 -0.09166,-0.006 -0.143475,-0.0678 -0.05181,-0.0619 -0.07521,-0.0885 -0.304152,-0.34581 -0.765233,-0.37535 -0.46108,-0.0296 -0.754574,0.2417 -0.07182,0.0763 -0.07894,0.18738 -3.3e-5,0.13108 0.12471,0.18648 l 1.337562,0.54033 q 0.246708,0.11063 0.340116,0.21981 0.184749,0.20707 0.167127,0.48205 -0.01762,0.27499 -0.236336,0.46736 -0.42614,0.38267 -1.070541,0.34137 -0.699953,-0.0448 -1.158587,-0.63483 -0.03793,-0.061 -0.0333,-0.13322 0.0059,-0.0917 0.07385,-0.15145 0.07093,-0.0624 0.162595,-0.0565 0.09166,0.006 0.143474,0.0678 0.05181,0.0619 0.07521,0.0885 0.304153,0.3458 0.765233,0.37535 0.46108,0.0296 0.754574,-0.2417 0.07182,-0.0763 0.07894,-0.18738 3.4e-5,-0.13108 -0.12471,-0.18649 l -1.337561,-0.54032 z" />
        <path
           inkscape:connector-curvature="0"
           id="path4663"
           style="font-style:normal;font-variant:normal;font-weight:normal;font-stretch:normal;font-size:5.70017815px;line-height:125%;font-family:Comfortaa;-inkscape-font-specification:'Comfortaa, Normal';text-align:start;writing-mode:lr-tb;text-anchor:start"
           d="m 19.8373,104.84883 q 0.007,-0.0916 0.07564,-0.15057 0.07167,-0.0616 0.163251,-0.0546 0.09158,0.007 0.150358,0.0784 0.06176,0.0689 0.0548,0.16048 l -0.286652,3.7744 0.222024,0.0169 q 0.09159,0.007 0.150358,0.0784 0.06176,0.0689 0.0548,0.16048 -0.007,0.0916 -0.07862,0.15313 -0.06868,0.059 -0.160265,0.052 l -0.444047,-0.0337 q -0.09159,-0.007 -0.153345,-0.0758 -0.05877,-0.0714 -0.05182,-0.16304 l 0.303513,-3.99643 z" />
        <path
           inkscape:connector-curvature="0"
           id="path4665"
           style="font-style:normal;font-variant:normal;font-weight:normal;font-stretch:normal;font-size:5.70017815px;line-height:125%;font-family:Comfortaa;-inkscape-font-specification:'Comfortaa, Normal';text-align:start;writing-mode:lr-tb;text-anchor:start"
           d="m 21.886481,105.45866 q -0.0095,0.11372 -0.09974,0.18994 -0.08719,0.0737 -0.2009,0.0641 -0.113714,-0.01 -0.190168,-0.097 -0.07345,-0.09 -0.0639,-0.20368 0.0095,-0.11371 0.09673,-0.18739 0.09019,-0.0762 0.203906,-0.0667 0.113715,0.01 0.187162,0.0995 0.07645,0.0874 0.06691,0.20113 z m -0.573749,0.84562 q 0.0077,-0.0915 0.07683,-0.14996 0.07215,-0.061 0.16368,-0.0533 0.09153,0.008 0.14973,0.0796 0.06121,0.0694 0.05353,0.16091 l -0.223539,2.66259 q -0.0077,0.0915 -0.07984,0.1525 -0.06915,0.0584 -0.160674,0.0507 -0.09153,-0.008 -0.152735,-0.0771 -0.0582,-0.0719 -0.05052,-0.16345 l 0.223538,-2.66259 z" />
        <path
           inkscape:connector-curvature="0"
           id="path4667"
           style="font-style:normal;font-variant:normal;font-weight:normal;font-stretch:normal;font-size:5.70017815px;line-height:125%;font-family:Comfortaa;-inkscape-font-specification:'Comfortaa, Normal';text-align:start;writing-mode:lr-tb;text-anchor:start"
           d="m 24.9946,107.99137 q 0.04606,-0.45972 -0.245508,-0.81621 -0.291563,-0.35648 -0.751288,-0.40254 -0.459725,-0.0461 -0.816209,0.24551 -0.356483,0.29157 -0.402537,0.75129 -0.04605,0.45973 0.245508,0.81621 0.291563,0.35648 0.751288,0.40254 0.459725,0.0461 0.816208,-0.24551 0.356484,-0.29156 0.402538,-0.75129 z m 0.266895,-2.66419 q 0.0092,-0.0914 0.07923,-0.14871 0.07313,-0.0598 0.164516,-0.0507 0.09139,0.009 0.148429,0.082 0.06008,0.0704 0.05093,0.16175 l -0.266894,2.66419 q -0.06437,0.64251 -0.564052,1.05119 -0.499685,0.40869 -1.142193,0.34433 -0.642507,-0.0644 -1.051194,-0.56406 -0.408686,-0.49968 -0.344321,-1.14219 0.06437,-0.64251 0.564051,-1.05119 0.499686,-0.40869 1.142194,-0.34432 0.642507,0.0644 1.051193,0.56405 0.005,0.006 0.01,0.0122 l 0.15814,-1.57857 z" />
        <path
           inkscape:connector-curvature="0"
           id="path4669"
           style="font-style:normal;font-variant:normal;font-weight:normal;font-stretch:normal;font-size:5.70017815px;line-height:125%;font-family:Comfortaa;-inkscape-font-specification:'Comfortaa, Normal';text-align:start;writing-mode:lr-tb;text-anchor:start"
           d="m 28.583043,108.20382 q -0.0202,-0.32526 -0.232131,-0.59924 -0.281776,-0.36427 -0.740081,-0.42279 -0.458305,-0.0585 -0.822574,0.22325 -0.27398,0.21194 -0.375261,0.52168 z m -0.364407,0.98603 q 0.09111,0.0116 0.146148,0.086 0.05815,0.072 0.04652,0.16307 -0.01163,0.0911 -0.08359,0.14927 -0.475528,0.31807 -1.055311,0.24404 -0.640523,-0.0818 -1.03549,-0.59239 -0.394968,-0.5106 -0.313179,-1.15112 0.08179,-0.64052 0.592387,-1.03549 0.510599,-0.39497 1.151122,-0.31318 0.640522,0.0818 1.03549,0.59239 0.394967,0.5106 0.313179,1.15112 -0.01163,0.0911 -0.08636,0.14891 -0.07161,0.0554 -0.162717,0.0438 l -2.410242,-0.30777 q 0.0202,0.32526 0.232131,0.59924 0.281776,0.36427 0.740081,0.42279 0.414131,0.0529 0.745796,-0.17133 0.06673,-0.0392 0.144037,-0.0293 z" />
        <path
           inkscape:connector-curvature="0"
           id="path4671"
           style="font-style:normal;font-variant:normal;font-weight:normal;font-stretch:normal;font-size:5.70017815px;line-height:125%;font-family:Comfortaa;-inkscape-font-specification:'Comfortaa, Normal';text-align:start;writing-mode:lr-tb;text-anchor:start"
           d="m 30.048214,108.64188 q -0.235321,-0.13316 -0.318143,-0.25057 -0.16464,-0.22339 -0.121459,-0.49553 0.04318,-0.27214 0.278876,-0.44329 0.459958,-0.34128 1.097703,-0.24009 0.689975,0.10948 1.094358,0.74009 0.03569,0.0592 0.02073,0.13574 -0.01439,0.0907 -0.09083,0.14622 -0.07326,0.0532 -0.163971,0.0388 -0.09071,-0.0144 -0.136532,-0.0808 -0.04582,-0.0665 -0.06663,-0.0951 -0.27059,-0.37266 -0.726908,-0.44506 -0.456317,-0.0724 -0.77382,0.1703 -0.07862,0.0692 -0.09607,0.17921 -0.01225,0.1305 0.106781,0.1973 l 1.281364,0.66266 q 0.23532,0.13316 0.318143,0.25057 0.16464,0.22339 0.121459,0.49553 -0.04318,0.27214 -0.278876,0.44329 -0.459958,0.34128 -1.097704,0.24008 -0.692723,-0.10991 -1.094357,-0.74008 -0.03207,-0.0643 -0.02073,-0.13574 0.01439,-0.0907 0.08765,-0.1439 0.07644,-0.0555 0.167156,-0.0411 0.09071,0.0144 0.136532,0.0808 0.04582,0.0665 0.06663,0.0951 0.27059,0.37266 0.726907,0.44506 0.456318,0.0724 0.773821,-0.1703 0.07862,-0.0692 0.09607,-0.17921 0.01225,-0.1305 -0.106781,-0.1973 l -1.281364,-0.66266 z" />
        <path
           inkscape:connector-curvature="0"
           id="path4673"
           style="font-style:normal;font-variant:normal;font-weight:normal;font-stretch:normal;font-size:5.70017815px;line-height:125%;font-family:Comfortaa;-inkscape-font-specification:'Comfortaa, Normal';text-align:start;writing-mode:lr-tb;text-anchor:start"
           d="m 32.991167,106.40754 q 0.01774,-0.0901 0.09292,-0.14057 0.07844,-0.0526 0.168563,-0.0349 0.09012,0.0177 0.140025,0.0957 0.05318,0.0757 0.03543,0.16583 l -0.293012,1.48832 q 0.487588,-0.31533 1.061071,-0.20242 0.587137,0.11559 0.919971,0.61513 0.336102,0.49735 0.220511,1.08449 l -0.279571,1.42005 q -0.01774,0.0901 -0.09619,0.14276 -0.07517,0.0504 -0.165294,0.0327 -0.09012,-0.0177 -0.143294,-0.0935 -0.04991,-0.0779 -0.03217,-0.16803 l 0.279571,-1.42005 q 0.08011,-0.4069 -0.152913,-0.75063 -0.229752,-0.34593 -0.636652,-0.42603 -0.4069,-0.0801 -0.753361,0.15237 -0.343193,0.23029 -0.423301,0.63719 l -0.27957,1.42005 q -0.01774,0.0901 -0.09619,0.14276 -0.07518,0.0504 -0.165295,0.0327 -0.09012,-0.0177 -0.143294,-0.0935 -0.04991,-0.0779 -0.03216,-0.16803 l 0.774195,-3.93245 z" />
        <path
           inkscape:connector-curvature="0"
           id="path4675"
           style="font-size:5.70017815px;fill:#ff6600"
           d="m 38.855938,110.46037 q -0.158677,0.62593 -0.713308,0.95622 -0.554631,0.3303 -1.180555,0.17162 -0.625923,-0.15868 -0.956218,-0.71331 -0.330296,-0.55463 -0.171619,-1.18055 0.158676,-0.62593 0.713307,-0.95622 0.554632,-0.3303 1.180555,-0.17162 0.625924,0.15868 0.956219,0.71331 0.330295,0.55463 0.171619,1.18055 z m -1.23727,-1.46219 q -0.447859,-0.11353 -0.843541,0.1221 -0.395682,0.23564 -0.509218,0.6835 -0.113536,0.44786 0.122102,0.84354 0.235637,0.39568 0.683497,0.50922 0.447859,0.11353 0.843541,-0.1221 0.395682,-0.23564 0.509217,-0.6835 0.113536,-0.44786 -0.122101,-0.84354 -0.235638,-0.39568 -0.683497,-0.50922 z" />
        <path
           inkscape:connector-curvature="0"
           id="path4677"
           style="font-style:normal;font-variant:normal;font-weight:normal;font-stretch:normal;font-size:5.70017815px;line-height:125%;font-family:Comfortaa;-inkscape-font-specification:'Comfortaa, Normal';text-align:start;writing-mode:lr-tb;text-anchor:start"
           d="m 41.680724,109.8048 q 0.08181,-0.0388 0.168313,-0.008 0.0865,0.0309 0.127891,0.11363 0.02435,0.056 0.02042,0.11664 l -0.04594,2.13211 1.340842,-1.71123 q 0.02696,-0.0258 0.06608,-0.0444 0.08181,-0.0388 0.168314,-0.008 0.0865,0.0309 0.124334,0.11531 0.04139,0.0828 0.01051,0.16925 -0.01497,0.0419 -0.04474,0.0756 l -1.73263,2.21268 q -0.02976,0.0337 -0.07432,0.0592 -0.0835,0.0352 -0.169999,0.004 -0.0865,-0.0309 -0.126205,-0.11007 -0.02098,-0.0489 -0.02267,-0.0938 l 0.0465,-2.15851 -1.330921,1.7 q -0.02976,0.0337 -0.07432,0.0592 -0.0835,0.0352 -0.169999,0.004 -0.0865,-0.0309 -0.126205,-0.11007 -0.02098,-0.0489 -0.02267,-0.0938 l 0.06026,-2.80969 q -0.0017,-0.0449 0.01328,-0.0869 0.03088,-0.0865 0.112691,-0.12527 0.08537,-0.0405 0.171871,-0.01 0.0865,0.0309 0.127891,0.11362 0.01592,0.0382 0.02042,0.0753 l -0.04593,2.1735 1.314634,-1.67922 q 0.038,-0.0485 0.09229,-0.0764 z" />
      </g>
      <path
         style="fill:none;fill-rule:evenodd;stroke:none;stroke-width:1px;stroke-linecap:butt;stroke-linejoin:miter;stroke-opacity:1"
         d="m -18.687822,109.3848 c 13.131983,-1.26269 48.739858,-2.14657 62.376918,4.54569"
         id="path4201"
         inkscape:connector-curvature="0" />
      <rect
         style="opacity:1;fill:none;fill-opacity:1;stroke:#cccccc;stroke-width:0.44836137;stroke-linecap:round;stroke-linejoin:round;stroke-miterlimit:4;stroke-dasharray:none;stroke-dashoffset:0;stroke-opacity:1"
         id="rect4221"
         width="14.194495"
         height="8.9266376"
         x="-20.483644"
         y="102.11481" />
      <rect
         style="opacity:1;fill:none;fill-opacity:1;stroke:#cccccc;stroke-width:0.29923534;stroke-linecap:round;stroke-linejoin:round;stroke-miterlimit:4;stroke-dasharray:none;stroke-dashoffset:0;stroke-opacity:1"
         id="rect4221-5"
         width="6.2186213"
         height="9.0757637"
         x="-6.852849"
         y="102.12952" />
      <rect
         style="opacity:1;fill:none;fill-opacity:1;stroke:#cccccc;stroke-width:0.43998584;stroke-linecap:round;stroke-linejoin:round;stroke-miterlimit:4;stroke-dasharray:none;stroke-dashoffset:0;stroke-opacity:1"
         id="rect4221-5-8"
         width="13.131442"
         height="9.2921562"
         x="-1.5592592"
         y="102.28918" />
      <rect
         style="opacity:1;fill:none;fill-opacity:1;stroke:#cccccc;stroke-width:0.28738332;stroke-linecap:round;stroke-linejoin:round;stroke-miterlimit:4;stroke-dasharray:none;stroke-dashoffset:0;stroke-opacity:1"
         id="rect4221-5-8-5"
         width="5.962616"
         height="8.7304726"
         x="10.105511"
         y="102.7486" />
      <rect
         style="opacity:1;fill:none;fill-opacity:1;stroke:#cccccc;stroke-width:0.77699947;stroke-linecap:round;stroke-linejoin:round;stroke-miterlimit:4;stroke-dasharray:none;stroke-dashoffset:0;stroke-opacity:1"
         id="rect4221-5-8-5-0"
         width="30.152458"
         height="12.620315"
         x="30.209936"
         y="96.508438"
         transform="matrix(0.9894769,0.14469096,-0.13963158,0.99020353,0,0)" />
      <rect
         style="opacity:1;fill:none;fill-opacity:1;stroke:#cccccc;stroke-width:0.2;stroke-linecap:round;stroke-linejoin:round;stroke-miterlimit:4;stroke-dasharray:none;stroke-dashoffset:0;stroke-opacity:1"
         id="rect4298"
         width="71.071426"
         height="26.964285"
         x="-22.806038"
         y="98.09597" />
    </g>
  </g>
</svg>
