<?xml version="1.0" encoding="UTF-8" standalone="no"?>
<!-- Created with Inkscape (http://www.inkscape.org/) -->

<svg
   xmlns:ns0="http://www.iki.fi/pav/software/textext/"
   xmlns:dc="http://purl.org/dc/elements/1.1/"
   xmlns:cc="http://creativecommons.org/ns#"
   xmlns:rdf="http://www.w3.org/1999/02/22-rdf-syntax-ns#"
   xmlns:svg="http://www.w3.org/2000/svg"
   xmlns="http://www.w3.org/2000/svg"
   xmlns:sodipodi="http://sodipodi.sourceforge.net/DTD/sodipodi-0.dtd"
   xmlns:inkscape="http://www.inkscape.org/namespaces/inkscape"
   inkscape:version="0.92.5 (2060ec1f9f, 2020-04-08)"
   version="1.1"
   id="svg2"
   viewBox="0 0 611.82005 611.82005"
   height="6.7980003in"
   width="6.7980003in"
   sodipodi:docname="thesis_sq.svg">
  <sodipodi:namedview
     inkscape:window-maximized="1"
     inkscape:window-y="27"
     inkscape:window-x="72"
     inkscape:window-height="1136"
     inkscape:window-width="1848"
     showguides="false"
     objecttolerance="10000"
     showgrid="false"
     inkscape:current-layer="layer1"
     inkscape:document-units="in"
     inkscape:cy="368.07729"
     inkscape:cx="314.1169"
     inkscape:zoom="1"
     inkscape:pageshadow="2"
     inkscape:pageopacity="0.0"
     borderopacity="1.0"
     bordercolor="#666666"
     pagecolor="#ffffff"
     id="base"
     units="in"
     fit-margin-top="0"
     fit-margin-left="0"
     fit-margin-right="0"
     fit-margin-bottom="0">
    <inkscape:grid
       snapvisiblegridlinesonly="true"
       id="grid4666"
       type="xygrid"
       originx="-1213.7447"
       originy="1050.9642"
       spacingx="22.500002"
       spacingy="22.500001" />
  </sodipodi:namedview>
  <defs
     id="defs4" />
  <metadata
     id="metadata7">
    <rdf:RDF>
      <cc:Work
         rdf:about="">
        <dc:format>image/svg+xml</dc:format>
        <dc:type
           rdf:resource="http://purl.org/dc/dcmitype/StillImage" />
        <dc:title></dc:title>
      </cc:Work>
    </rdf:RDF>
  </metadata>
  <g
     id="layer1"
     inkscape:groupmode="layer"
     inkscape:label="Layer 1"
     transform="translate(-1213.7447,-1491.506)">
    <path
       id="path1494-1-7"
       style="opacity:1;vector-effect:none;fill:#ffcc00;fill-opacity:1;stroke:#000000;stroke-width:2.43000007;stroke-linecap:butt;stroke-linejoin:round;stroke-miterlimit:4;stroke-dasharray:none;stroke-dashoffset:0;stroke-opacity:1"
       d="m 1822.5001,1884.8619 c 0,49.7056 -40.2944,90 -90,90 h -225 c -49.7056,0 -90,-40.2944 -90,-90 0,-49.7056 40.2944,-90 90,-90 h 45 c 49.7056,0 90,-40.2944 90,-90 0,-49.7056 40.2944,-90 90,-90 49.7056,0 90,40.2944 90,90 z"
       inkscape:connector-curvature="0"
       sodipodi:nodetypes="cccscccscc" />
    <path
       id="path1458-1"
       style="opacity:1;vector-effect:none;fill:#ff9900;fill-opacity:1;stroke:#000000;stroke-width:2.43000007;stroke-linecap:butt;stroke-linejoin:round;stroke-miterlimit:4;stroke-dasharray:none;stroke-dashoffset:0;stroke-opacity:1"
       d="m 1507.5001,1952.3619 c -37.2792,0 -67.5,-30.2208 -67.5,-67.5 0,-37.2792 30.2208,-67.5 67.5,-67.5 h 225 c 37.2792,0 67.5,30.2208 67.5,67.5 0,37.2792 -30.2208,67.5 -67.5,67.5 z"
       inkscape:connector-curvature="0"
       sodipodi:nodetypes="csccscc" />
    <path
       id="path5668-3-5-7"
       style="fill:#99cc33;fill-opacity:1;stroke:#000000;stroke-width:2.43000007;stroke-linecap:butt;stroke-linejoin:round;stroke-miterlimit:4;stroke-dasharray:none;stroke-dashoffset:0;stroke-opacity:1"
       d="m 1395.0001,1884.8617 c 0,49.7056 -40.2944,90 -90,90 -49.7057,0 -90,-40.2944 -90,-90 m 0,2e-4 v -180.0002 c 0,-49.7056 40.2943,-90 90,-90 49.7056,0 90,40.2944 90,90 v 180.0002"
       inkscape:connector-curvature="0" />
    <path
       id="path1713"
       style="opacity:1;vector-effect:none;fill:#6699ff;fill-opacity:1;stroke:#000000;stroke-width:2.43000031;stroke-linecap:butt;stroke-linejoin:round;stroke-miterlimit:4;stroke-dasharray:none;stroke-dashoffset:0;stroke-opacity:1"
       d="m 1602.6864,1826.7373 c 0,27.8722 -22.8884,50.4671 -51.1742,50.459 -13.1568,-0.01 -23.3458,-0.01 -23.3458,-0.01 v 21.1501 c 0,0 10.2194,0 23.3751,0.2478 40.357,0.2473 73.055,-32.0309 73.0553,-71.8483 -2e-4,-39.8174 -32.6982,-72.0957 -72.5651,-71.6728 -14.0086,0.4132 -40.8145,-0.411 -66.3554,5.5722 -22.0426,5.1637 -43.143,14.9614 -54.563,19.5697 -30.8641,12.4547 -62.4608,32.8977 -85.7473,52.299 -25.9992,-19.9068 -63.1758,-18.7884 -87.7202,4.2135 -27.2013,25.4918 -28.5871,68.2081 -3.0954,95.4094 25.4918,27.2008 68.208,28.5866 95.4093,3.0951 24.254,-22.7295 27.9837,-59.1533 10.1726,-86.6504 21.4753,-18.5501 50.7443,-37.1749 79.2857,-48.9155 9.9432,-4.0902 29.0983,-13.4151 49.3207,-18.302 24.5284,-5.9274 50.6269,-5.2175 63.293,-5.1635 27.7663,0.08 50.6547,22.6745 50.6547,50.5467 z"
       inkscape:connector-curvature="0"
       sodipodi:nodetypes="sccccccsccscsccccs" />
    <path
       id="rect10521-4-6-4-6-4"
       style="fill:#6699ff;fill-opacity:1;stroke:#000000;stroke-width:2.43000031;stroke-linecap:butt;stroke-linejoin:round;stroke-miterlimit:4;stroke-dasharray:none;stroke-dashoffset:0;stroke-opacity:1"
       d="m 1509.3739,1722.0916 -7.9371,-23.1038 -130.2786,-0.3025 c -2.7329,-32.3971 -28.6982,-59.0269 -62.2414,-61.5521 -37.174,-2.7985 -69.5781,25.0685 -72.3766,62.2425 -2.7985,37.1738 25.0684,69.5782 62.2425,72.3766 33.1462,2.4951 62.5001,-19.3896 70.5971,-50.7187 z"
       inkscape:connector-curvature="0"
       sodipodi:nodetypes="cccssscc"
       inkscape:transform-center-x="-38.900338"
       inkscape:transform-center-y="0.14123029" />
    <path
       style="color:#000000;font-style:normal;font-variant:normal;font-weight:normal;font-stretch:normal;font-size:medium;line-height:normal;font-family:sans-serif;text-indent:0;text-align:start;text-decoration:none;text-decoration-line:none;text-decoration-style:solid;text-decoration-color:#000000;letter-spacing:normal;word-spacing:normal;text-transform:none;writing-mode:lr-tb;direction:ltr;baseline-shift:baseline;text-anchor:start;white-space:normal;clip-rule:nonzero;display:inline;overflow:visible;visibility:visible;opacity:1;isolation:auto;mix-blend-mode:normal;color-interpolation:sRGB;color-interpolation-filters:linearRGB;solid-color:#000000;solid-opacity:1;fill:#6699ff;fill-opacity:1;fill-rule:evenodd;stroke:#000000;stroke-width:2.43000031;stroke-linecap:butt;stroke-linejoin:miter;stroke-miterlimit:4;stroke-dasharray:none;stroke-dashoffset:0;stroke-opacity:1;color-rendering:auto;image-rendering:auto;shape-rendering:auto;text-rendering:auto;enable-background:accumulate"
       d="m 1509.1075,1694.3965 -1.4942,10.4668 v 0 0 h -10.5742 c 0,5.0813 -8.0629,20.8361 -20.1777,37.7969 -12.1148,16.9608 -27.1334,36.1498 -37.6211,55.627 -10.4877,19.4771 -17.3249,40.8911 -7.4824,60.1074 9.8425,19.2163 33.5207,31.1031 74.3613,36.9375 l 1.4941,-10.4688 v 0 h 10.5742 c 0,-5.0811 8.0629,-20.838 20.1778,-37.7988 12.1148,-16.9607 21.5084,-36.1478 31.9961,-55.625 10.4877,-19.4772 17.3268,-40.8931 7.4843,-60.1094 -9.8424,-19.2163 -27.8976,-31.1011 -68.7382,-36.9355 z m 22.6523,26.2597 c 19.7533,5.6833 23.6475,13.262 27.2617,20.3184 4.9232,9.6119 1.9167,23.3541 -7.2831,40.4395 -9.1998,17.0853 -18.0875,35.867 -30.5821,53.3593 -6.8617,9.6064 -13.384,18.5169 -17.9394,27.4825 -4.5369,-8.2184 -5.1936,-15.4848 -4.1192,-23.0059 1.684,-11.7879 9.1446,-24.8828 17.5821,-38.9453 8.4375,-14.0625 17.8519,-29.0926 20.3867,-46.8359 1.4927,-10.4494 -0.07,-21.6141 -5.3067,-32.8126 z m -19.7519,6.8184 c 4.5361,8.2178 5.1955,15.4833 4.1211,23.0039 -1.684,11.7879 -9.1465,24.8828 -17.584,38.9453 -8.4375,14.0625 -17.85,29.0926 -20.3848,46.836 -1.4928,10.4499 0.069,21.6152 5.3067,32.8144 -19.7545,-5.6833 -29.2724,-13.2636 -32.8868,-20.3203 -4.9231,-9.6118 -1.9185,-23.3541 7.2813,-40.4394 9.1998,-17.0854 23.7125,-35.8651 36.207,-53.3575 6.8611,-9.6055 13.3841,-18.5176 17.9395,-27.4824 z"
       id="path5643-5-1"
       inkscape:connector-curvature="0"
       sodipodi:nodetypes="cccccscscccccscccccccccsccccsccsccc" />
    <g
       id="g4160-3-92-7-8"
       transform="matrix(2.7350495,0,0,2.7358306,1026.1292,1606.9752)"
       style="fill:#ffffff">
      <path
         d="m 118.277,36.316 c 0,3.598 -7.05,6.516 -15.75,6.516 -8.699,0 -16.132,-2.918 -16.132,-6.516 m 31.906,0.012 c 0,8.809 -7.141,15.953 -15.949,15.953 -8.809,0 -15.954,-7.144 -15.954,-15.953 0,-8.808 7.145,-15.949 15.954,-15.949 8.808,0 15.949,7.141 15.949,15.949 z"
         style="fill:#ffffff;stroke:#000000;stroke-width:1;stroke-linecap:butt;stroke-linejoin:round;stroke-miterlimit:4;stroke-dasharray:none;stroke-opacity:1"
         id="path4162-6-2-0-4"
         inkscape:connector-curvature="0" />
    </g>
    <g
       style="font-style:normal;font-variant:normal;font-weight:normal;font-stretch:normal;letter-spacing:normal;word-spacing:normal;text-anchor:start;fill:#000000;fill-opacity:1;fill-rule:evenodd;stroke:#000000;stroke-linecap:butt;stroke-linejoin:miter;stroke-miterlimit:10.43299961;stroke-dasharray:none;stroke-dashoffset:0;stroke-opacity:1"
       ns0:preamble="/home/scott/.config/inkscape/extensions/default_packages.tex"
       ns0:text="$a_1^+$"
       word-spacing="normal"
       letter-spacing="normal"
       font-size-adjust="none"
       font-stretch="normal"
       font-weight="normal"
       font-variant="normal"
       font-style="normal"
       stroke-miterlimit="10.433"
       xml:space="preserve"
       transform="matrix(3.4318366,0,0,-3.4328167,776.33492,3964.7136)"
       id="content-4-9-5"><path
         id="path5750-7-3-0"
         style="font-style:normal;font-variant:normal;font-weight:normal;font-stretch:normal;letter-spacing:normal;word-spacing:normal;text-anchor:start;fill:#000000;fill-opacity:1;fill-rule:evenodd;stroke:#000000;stroke-width:0;stroke-linecap:butt;stroke-linejoin:miter;stroke-miterlimit:10.43299961;stroke-dasharray:none;stroke-dashoffset:0;stroke-opacity:1"
         word-spacing="normal"
         stroke-miterlimit="10.433"
         letter-spacing="normal"
         font-weight="normal"
         font-variant="normal"
         font-style="normal"
         font-stretch="normal"
         font-size-adjust="none"
         d="m 152.43,661 -0.02,0.03 -0.02,0.04 -0.02,0.03 -0.02,0.03 -0.02,0.03 -0.02,0.03 -0.02,0.03 -0.02,0.03 -0.02,0.03 -0.03,0.03 -0.02,0.03 -0.02,0.02 -0.03,0.03 -0.03,0.02 -0.02,0.02 -0.03,0.03 -0.03,0.02 -0.03,0.02 -0.03,0.01 -0.03,0.02 -0.03,0.02 -0.04,0.01 -0.03,0.02 -0.03,0.01 -0.04,0.01 -0.03,0.01 -0.04,0.01 h -0.04 l -0.04,0.01 h -0.04 l -0.04,0.01 h -0.04 l 0.01,-0.22 c 0.65,0 0.79,-0.82 0.79,-0.88 0,-0.06 -0.02,-0.12 -0.03,-0.17 l -0.5,-1.95 c -0.05,-0.18 -0.05,-0.2 -0.2,-0.37 -0.44,-0.55 -0.85,-0.71 -1.13,-0.71 -0.49,0 -0.63,0.55 -0.63,0.94 0,0.5 0.31,1.72 0.54,2.18 0.31,0.59 0.76,0.96 1.16,0.96 l -0.01,0.22 c -1.17,0 -2.4,-1.47 -2.4,-2.92 0,-0.94 0.55,-1.6 1.32,-1.6 0.2,0 0.7,0.04 1.3,0.75 0.08,-0.42 0.43,-0.75 0.9,-0.75 0.35,0 0.58,0.23 0.74,0.55 0.17,0.36 0.3,0.97 0.3,0.99 0,0.1 -0.09,0.1 -0.12,0.1 -0.1,0 -0.11,-0.04 -0.14,-0.18 -0.17,-0.65 -0.35,-1.24 -0.76,-1.24 -0.26,0 -0.29,0.26 -0.29,0.46 0,0.22 0.02,0.3 0.13,0.74 0.11,0.42 0.13,0.52 0.22,0.89 l 0.35,1.4 c 0.07,0.28 0.07,0.3 0.07,0.34 0,0.17 -0.12,0.27 -0.29,0.27 -0.24,0 -0.38,-0.22 -0.41,-0.44 z"
         inkscape:connector-curvature="0" /><path
         id="path5752-7-6-3"
         style="font-style:normal;font-variant:normal;font-weight:normal;font-stretch:normal;letter-spacing:normal;word-spacing:normal;text-anchor:start;fill:#000000;fill-opacity:1;fill-rule:evenodd;stroke:#000000;stroke-width:0;stroke-linecap:butt;stroke-linejoin:miter;stroke-miterlimit:10.43299961;stroke-dasharray:none;stroke-dashoffset:0;stroke-opacity:1"
         word-spacing="normal"
         stroke-miterlimit="10.433"
         letter-spacing="normal"
         font-weight="normal"
         font-variant="normal"
         font-style="normal"
         font-stretch="normal"
         font-size-adjust="none"
         d="m 157.2,663.08 h 2.14 c 0.09,0 0.26,0 0.26,0.16 0,0.18 -0.16,0.18 -0.26,0.18 h -2.14 v 2.14 c 0,0.09 0,0.26 -0.16,0.26 -0.18,0 -0.18,-0.16 -0.18,-0.26 v -2.14 h -2.14 c -0.09,0 -0.26,0 -0.26,-0.17 0,-0.17 0.16,-0.17 0.26,-0.17 h 2.14 v -2.15 c 0,-0.09 0,-0.25 0.17,-0.25 0.17,0 0.17,0.16 0.17,0.25 z"
         inkscape:connector-curvature="0" /><path
         id="path5754-5-0-6"
         style="font-style:normal;font-variant:normal;font-weight:normal;font-stretch:normal;letter-spacing:normal;word-spacing:normal;text-anchor:start;fill:#000000;fill-opacity:1;fill-rule:evenodd;stroke:#000000;stroke-width:0;stroke-linecap:butt;stroke-linejoin:miter;stroke-miterlimit:10.43299961;stroke-dasharray:none;stroke-dashoffset:0;stroke-opacity:1"
         word-spacing="normal"
         stroke-miterlimit="10.433"
         letter-spacing="normal"
         font-weight="normal"
         font-variant="normal"
         font-style="normal"
         font-stretch="normal"
         font-size-adjust="none"
         d="m 156.31,659.01 v 0.01 0.01 0.01 0.01 0 0.01 0.01 0.01 0 0.01 0 0.01 0.01 0 0.01 0 l -0.01,0.01 v 0 0.01 0.01 0.01 h -0.01 v 0.01 l -0.01,0.01 v 0 l -0.01,0.01 v 0 h -0.01 l -0.01,0.01 v 0 h -0.01 -0.01 -0.01 v 0 h -0.01 v 0.01 h -0.01 -0.01 v 0 h -0.01 -0.01 v 0 h -0.01 -0.01 -0.01 v 0 h -0.01 -0.01 -0.01 -0.01 c -0.44,-0.44 -1.08,-0.45 -1.36,-0.45 v -0.25 c 0.16,0 0.62,0 1.01,0.2 v -3.56 c 0,-0.23 0,-0.32 -0.7,-0.32 h -0.27 v -0.25 c 0.13,0 0.99,0.02 1.24,0.02 0.22,0 1.1,-0.02 1.25,-0.02 v 0.25 h -0.26 c -0.7,0 -0.7,0.09 -0.7,0.32 z"
         inkscape:connector-curvature="0" /></g>    <g
       id="g4160-3-1-4-6-1"
       transform="matrix(2.7350495,0,0,2.7358306,1026.1292,1786.9752)"
       style="fill:#ffffff">
      <path
         d="m 118.277,36.316 c 0,3.598 -7.05,6.516 -15.75,6.516 -8.699,0 -16.132,-2.918 -16.132,-6.516 m 31.906,0.012 c 0,8.809 -7.141,15.953 -15.949,15.953 -8.809,0 -15.954,-7.144 -15.954,-15.953 0,-8.808 7.145,-15.949 15.954,-15.949 8.808,0 15.949,7.141 15.949,15.949 z"
         style="fill:#ffffff;stroke:#000000;stroke-width:1;stroke-linecap:butt;stroke-linejoin:round;stroke-miterlimit:4;stroke-dasharray:none;stroke-opacity:1"
         id="path4162-6-0-8-2-0"
         inkscape:connector-curvature="0" />
    </g>
    <g
       style="font-style:normal;font-variant:normal;font-weight:normal;font-stretch:normal;letter-spacing:normal;word-spacing:normal;text-anchor:start;fill:#000000;fill-opacity:1;fill-rule:evenodd;stroke:#000000;stroke-linecap:butt;stroke-linejoin:miter;stroke-miterlimit:10.43299961;stroke-dasharray:none;stroke-dashoffset:0;stroke-opacity:1"
       ns0:preamble="/home/scott/.config/inkscape/extensions/default_packages.tex"
       ns0:text="$a_1^-$"
       word-spacing="normal"
       letter-spacing="normal"
       font-size-adjust="none"
       font-stretch="normal"
       font-weight="normal"
       font-variant="normal"
       font-style="normal"
       stroke-miterlimit="10.433"
       xml:space="preserve"
       transform="matrix(3.4849918,0,0,-3.4859871,768.40893,4175.6333)"
       id="g6967-1-6-6"><path
         id="path6969-2-1-3"
         style="font-style:normal;font-variant:normal;font-weight:normal;font-stretch:normal;letter-spacing:normal;word-spacing:normal;text-anchor:start;fill:#000000;fill-opacity:1;fill-rule:evenodd;stroke:#000000;stroke-width:0;stroke-linecap:butt;stroke-linejoin:miter;stroke-miterlimit:10.43299961;stroke-dasharray:none;stroke-dashoffset:0;stroke-opacity:1"
         word-spacing="normal"
         stroke-miterlimit="10.433"
         letter-spacing="normal"
         font-weight="normal"
         font-variant="normal"
         font-style="normal"
         font-stretch="normal"
         font-size-adjust="none"
         d="m 152.43,661 -0.02,0.03 -0.02,0.04 -0.02,0.03 -0.02,0.03 -0.02,0.03 -0.02,0.03 -0.02,0.03 -0.02,0.03 -0.02,0.03 -0.03,0.03 -0.02,0.03 -0.02,0.02 -0.03,0.03 -0.03,0.02 -0.02,0.02 -0.03,0.03 -0.03,0.02 -0.03,0.02 -0.03,0.01 -0.03,0.02 -0.03,0.02 -0.04,0.01 -0.03,0.02 -0.03,0.01 -0.04,0.01 -0.03,0.01 -0.04,0.01 h -0.04 l -0.04,0.01 h -0.04 l -0.04,0.01 h -0.04 l 0.01,-0.22 c 0.65,0 0.79,-0.82 0.79,-0.88 0,-0.06 -0.02,-0.12 -0.03,-0.17 l -0.5,-1.95 c -0.05,-0.18 -0.05,-0.2 -0.2,-0.37 -0.44,-0.55 -0.85,-0.71 -1.13,-0.71 -0.49,0 -0.63,0.55 -0.63,0.94 0,0.5 0.31,1.72 0.54,2.18 0.31,0.59 0.76,0.96 1.16,0.96 l -0.01,0.22 c -1.17,0 -2.4,-1.47 -2.4,-2.92 0,-0.94 0.55,-1.6 1.32,-1.6 0.2,0 0.7,0.04 1.3,0.75 0.08,-0.42 0.43,-0.75 0.9,-0.75 0.35,0 0.58,0.23 0.74,0.55 0.17,0.36 0.3,0.97 0.3,0.99 0,0.1 -0.09,0.1 -0.12,0.1 -0.1,0 -0.11,-0.04 -0.14,-0.18 -0.17,-0.65 -0.35,-1.24 -0.76,-1.24 -0.26,0 -0.29,0.26 -0.29,0.46 0,0.22 0.02,0.3 0.13,0.74 0.11,0.42 0.13,0.52 0.22,0.89 l 0.35,1.4 c 0.07,0.28 0.07,0.3 0.07,0.34 0,0.17 -0.12,0.27 -0.29,0.27 -0.24,0 -0.38,-0.22 -0.41,-0.44 z"
         inkscape:connector-curvature="0" /><path
         id="path6971-8-8-2"
         style="font-style:normal;font-variant:normal;font-weight:normal;font-stretch:normal;letter-spacing:normal;word-spacing:normal;text-anchor:start;fill:#000000;fill-opacity:1;fill-rule:evenodd;stroke:#000000;stroke-width:0;stroke-linecap:butt;stroke-linejoin:miter;stroke-miterlimit:10.43299961;stroke-dasharray:none;stroke-dashoffset:0;stroke-opacity:1"
         word-spacing="normal"
         stroke-miterlimit="10.433"
         letter-spacing="normal"
         font-weight="normal"
         font-variant="normal"
         font-style="normal"
         font-stretch="normal"
         font-size-adjust="none"
         d="m 159.16,663.08 h 0.01 0.02 0.01 0.01 0.02 0.01 0.01 0.02 0.01 0.01 0.01 l 0.01,0.01 h 0.01 0.01 l 0.01,0.01 h 0.01 l 0.01,0.01 h 0.01 l 0.01,0.01 h 0.01 l 0.01,0.01 0.01,0.01 v 0 0.01 h 0.01 v 0.01 0 l 0.01,0.01 v 0 0.01 0 0.01 h 0.01 v 0.01 0.01 0 0.01 0.01 0.01 0 c 0,0.18 -0.16,0.18 -0.28,0.18 h -4.15 c -0.11,0 -0.28,0 -0.28,-0.17 0,-0.17 0.16,-0.17 0.28,-0.17 z"
         inkscape:connector-curvature="0" /><path
         id="path6973-9-7-0"
         style="font-style:normal;font-variant:normal;font-weight:normal;font-stretch:normal;letter-spacing:normal;word-spacing:normal;text-anchor:start;fill:#000000;fill-opacity:1;fill-rule:evenodd;stroke:#000000;stroke-width:0;stroke-linecap:butt;stroke-linejoin:miter;stroke-miterlimit:10.43299961;stroke-dasharray:none;stroke-dashoffset:0;stroke-opacity:1"
         word-spacing="normal"
         stroke-miterlimit="10.433"
         letter-spacing="normal"
         font-weight="normal"
         font-variant="normal"
         font-style="normal"
         font-stretch="normal"
         font-size-adjust="none"
         d="m 156.31,659.01 v 0.01 0.01 0.01 0.01 0 0.01 0.01 0.01 0 0.01 0 0.01 0.01 0 0.01 0 l -0.01,0.01 v 0 0.01 0.01 0.01 h -0.01 v 0.01 l -0.01,0.01 v 0 l -0.01,0.01 v 0 h -0.01 l -0.01,0.01 v 0 h -0.01 -0.01 -0.01 v 0 h -0.01 v 0.01 h -0.01 -0.01 v 0 h -0.01 -0.01 v 0 h -0.01 -0.01 -0.01 v 0 h -0.01 -0.01 -0.01 -0.01 c -0.44,-0.44 -1.08,-0.45 -1.36,-0.45 v -0.25 c 0.16,0 0.62,0 1.01,0.2 v -3.56 c 0,-0.23 0,-0.32 -0.7,-0.32 h -0.27 v -0.25 c 0.13,0 0.99,0.02 1.24,0.02 0.22,0 1.1,-0.02 1.25,-0.02 v 0.25 h -0.26 c -0.7,0 -0.7,0.09 -0.7,0.32 z"
         inkscape:connector-curvature="0" /></g>    <g
       id="g4160-3-5-3-81-2-4"
       transform="matrix(2.7350495,0,0,2.7358306,1452.3425,1606.9752)"
       style="fill:#ffffff">
      <path
         d="m 118.277,36.316 c 0,3.598 -7.05,6.516 -15.75,6.516 -8.699,0 -16.132,-2.918 -16.132,-6.516 m 31.906,0.012 c 0,8.809 -7.141,15.953 -15.949,15.953 -8.809,0 -15.954,-7.144 -15.954,-15.953 0,-8.808 7.145,-15.949 15.954,-15.949 8.808,0 15.949,7.141 15.949,15.949 z"
         style="fill:#ffffff;stroke:#000000;stroke-width:1;stroke-linecap:butt;stroke-linejoin:round;stroke-miterlimit:4;stroke-dasharray:none;stroke-opacity:1"
         id="path4162-6-5-0-0-9-9"
         inkscape:connector-curvature="0" />
    </g>
    <g
       id="g4160-3-5-3-8-4-1-2"
       transform="matrix(2.7350495,0,0,2.7358306,1452.3425,1786.9752)"
       style="fill:#ffffff">
      <path
         d="m 118.277,36.316 c 0,3.598 -7.05,6.516 -15.75,6.516 -8.699,0 -16.132,-2.918 -16.132,-6.516 m 31.906,0.012 c 0,8.809 -7.141,15.953 -15.949,15.953 -8.809,0 -15.954,-7.144 -15.954,-15.953 0,-8.808 7.145,-15.949 15.954,-15.949 8.808,0 15.949,7.141 15.949,15.949 z"
         style="fill:#ffffff;stroke:#000000;stroke-width:1;stroke-linecap:butt;stroke-linejoin:round;stroke-miterlimit:4;stroke-dasharray:none;stroke-opacity:1"
         id="path4162-6-5-0-4-4-2-0"
         inkscape:connector-curvature="0" />
    </g>
    <g
       id="g4160-3-5-36-9-6"
       transform="matrix(2.7350495,0,0,2.7358306,1228.6292,1606.9752)"
       style="fill:#ffffff">
      <path
         d="m 118.277,36.316 c 0,3.598 -7.05,6.516 -15.75,6.516 -8.699,0 -16.132,-2.918 -16.132,-6.516 m 31.906,0.012 c 0,8.809 -7.141,15.953 -15.949,15.953 -8.809,0 -15.954,-7.144 -15.954,-15.953 0,-8.808 7.145,-15.949 15.954,-15.949 8.808,0 15.949,7.141 15.949,15.949 z"
         style="fill:#ffffff;stroke:#000000;stroke-width:1;stroke-linecap:butt;stroke-linejoin:round;stroke-miterlimit:4;stroke-dasharray:none;stroke-opacity:1"
         id="path4162-6-5-8-2-8"
         inkscape:connector-curvature="0" />
    </g>
    <g
       id="g7269-0-0-9"
       transform="matrix(3.4318366,0,0,-3.4328167,978.83493,3964.7136)"
       xml:space="preserve"
       stroke-miterlimit="10.433"
       font-style="normal"
       font-variant="normal"
       font-weight="normal"
       font-stretch="normal"
       font-size-adjust="none"
       letter-spacing="normal"
       word-spacing="normal"
       ns0:text="$a_2^+$"
       ns0:preamble="/home/scott/.config/inkscape/extensions/default_packages.tex"
       style="font-style:normal;font-variant:normal;font-weight:normal;font-stretch:normal;letter-spacing:normal;word-spacing:normal;text-anchor:start;fill:#000000;fill-opacity:1;fill-rule:evenodd;stroke:#000000;stroke-linecap:butt;stroke-linejoin:miter;stroke-miterlimit:10.43299961;stroke-dasharray:none;stroke-dashoffset:0;stroke-opacity:1"><path
         inkscape:connector-curvature="0"
         d="m 152.43,661 -0.02,0.03 -0.02,0.04 -0.02,0.03 -0.02,0.03 -0.02,0.03 -0.02,0.03 -0.02,0.03 -0.02,0.03 -0.02,0.03 -0.03,0.03 -0.02,0.03 -0.02,0.02 -0.03,0.03 -0.03,0.02 -0.02,0.02 -0.03,0.03 -0.03,0.02 -0.03,0.02 -0.03,0.01 -0.03,0.02 -0.03,0.02 -0.04,0.01 -0.03,0.02 -0.03,0.01 -0.04,0.01 -0.03,0.01 -0.04,0.01 h -0.04 l -0.04,0.01 h -0.04 l -0.04,0.01 h -0.04 l 0.01,-0.22 c 0.65,0 0.79,-0.82 0.79,-0.88 0,-0.06 -0.02,-0.12 -0.03,-0.17 l -0.5,-1.95 c -0.05,-0.18 -0.05,-0.2 -0.2,-0.37 -0.44,-0.55 -0.85,-0.71 -1.13,-0.71 -0.49,0 -0.63,0.55 -0.63,0.94 0,0.5 0.31,1.72 0.54,2.18 0.31,0.59 0.76,0.96 1.16,0.96 l -0.01,0.22 c -1.17,0 -2.4,-1.47 -2.4,-2.92 0,-0.94 0.55,-1.6 1.32,-1.6 0.2,0 0.7,0.04 1.3,0.75 0.08,-0.42 0.43,-0.75 0.9,-0.75 0.35,0 0.58,0.23 0.74,0.55 0.17,0.36 0.3,0.97 0.3,0.99 0,0.1 -0.09,0.1 -0.12,0.1 -0.1,0 -0.11,-0.04 -0.14,-0.18 -0.17,-0.65 -0.35,-1.24 -0.76,-1.24 -0.26,0 -0.29,0.26 -0.29,0.46 0,0.22 0.02,0.3 0.13,0.74 0.11,0.42 0.13,0.52 0.22,0.89 l 0.35,1.4 c 0.07,0.28 0.07,0.3 0.07,0.34 0,0.17 -0.12,0.27 -0.29,0.27 -0.24,0 -0.38,-0.22 -0.41,-0.44 z"
         font-size-adjust="none"
         font-stretch="normal"
         font-style="normal"
         font-variant="normal"
         font-weight="normal"
         letter-spacing="normal"
         stroke-miterlimit="10.433"
         word-spacing="normal"
         style="font-style:normal;font-variant:normal;font-weight:normal;font-stretch:normal;letter-spacing:normal;word-spacing:normal;text-anchor:start;fill:#000000;fill-opacity:1;fill-rule:evenodd;stroke:#000000;stroke-width:0;stroke-linecap:butt;stroke-linejoin:miter;stroke-miterlimit:10.43299961;stroke-dasharray:none;stroke-dashoffset:0;stroke-opacity:1"
         id="path7271-2-2-2" /><path
         inkscape:connector-curvature="0"
         d="m 157.2,663.08 h 2.14 c 0.09,0 0.26,0 0.26,0.16 0,0.18 -0.16,0.18 -0.26,0.18 h -2.14 v 2.14 c 0,0.09 0,0.26 -0.16,0.26 -0.18,0 -0.18,-0.16 -0.18,-0.26 v -2.14 h -2.14 c -0.09,0 -0.26,0 -0.26,-0.17 0,-0.17 0.16,-0.17 0.26,-0.17 h 2.14 v -2.15 c 0,-0.09 0,-0.25 0.17,-0.25 0.17,0 0.17,0.16 0.17,0.25 z"
         font-size-adjust="none"
         font-stretch="normal"
         font-style="normal"
         font-variant="normal"
         font-weight="normal"
         letter-spacing="normal"
         stroke-miterlimit="10.433"
         word-spacing="normal"
         style="font-style:normal;font-variant:normal;font-weight:normal;font-stretch:normal;letter-spacing:normal;word-spacing:normal;text-anchor:start;fill:#000000;fill-opacity:1;fill-rule:evenodd;stroke:#000000;stroke-width:0;stroke-linecap:butt;stroke-linejoin:miter;stroke-miterlimit:10.43299961;stroke-dasharray:none;stroke-dashoffset:0;stroke-opacity:1"
         id="path7273-1-3-6" /><path
         inkscape:connector-curvature="0"
         d="m 157.5,655.85 h -0.24 c -0.02,-0.16 -0.09,-0.57 -0.18,-0.64 -0.06,-0.04 -0.59,-0.04 -0.69,-0.04 h -1.29 c 0.74,0.65 0.98,0.84 1.4,1.17 0.52,0.41 1,0.85 1,1.51 0,0.84 -0.74,1.36 -1.63,1.36 -0.87,0 -1.46,-0.61 -1.46,-1.25 0,-0.36 0.3,-0.39 0.37,-0.39 0.17,0 0.37,0.12 0.37,0.37 0,0.12 -0.05,0.37 -0.41,0.37 0.22,0.49 0.69,0.65 1.02,0.65 0.7,0 1.06,-0.55 1.06,-1.11 0,-0.61 -0.43,-1.09 -0.66,-1.34 l -1.68,-1.66 c -0.07,-0.06 -0.07,-0.08 -0.07,-0.27 h 2.88 z"
         font-size-adjust="none"
         font-stretch="normal"
         font-style="normal"
         font-variant="normal"
         font-weight="normal"
         letter-spacing="normal"
         stroke-miterlimit="10.433"
         word-spacing="normal"
         style="font-style:normal;font-variant:normal;font-weight:normal;font-stretch:normal;letter-spacing:normal;word-spacing:normal;text-anchor:start;fill:#000000;fill-opacity:1;fill-rule:evenodd;stroke:#000000;stroke-width:0;stroke-linecap:butt;stroke-linejoin:miter;stroke-miterlimit:10.43299961;stroke-dasharray:none;stroke-dashoffset:0;stroke-opacity:1"
         id="path7275-0-7-6" /></g>    <g
       id="g4160-3-5-6-5-5-4"
       transform="matrix(2.7350495,0,0,2.7358306,1228.6292,1786.9752)"
       style="fill:#ffffff">
      <path
         d="m 118.277,36.316 c 0,3.598 -7.05,6.516 -15.75,6.516 -8.699,0 -16.132,-2.918 -16.132,-6.516 m 31.906,0.012 c 0,8.809 -7.141,15.953 -15.949,15.953 -8.809,0 -15.954,-7.144 -15.954,-15.953 0,-8.808 7.145,-15.949 15.954,-15.949 8.808,0 15.949,7.141 15.949,15.949 z"
         style="fill:#ffffff;stroke:#000000;stroke-width:1;stroke-linecap:butt;stroke-linejoin:round;stroke-miterlimit:4;stroke-dasharray:none;stroke-opacity:1"
         id="path4162-6-5-9-11-9-9"
         inkscape:connector-curvature="0" />
    </g>
    <g
       style="font-style:normal;font-variant:normal;font-weight:normal;font-stretch:normal;letter-spacing:normal;word-spacing:normal;text-anchor:start;fill:#000000;fill-opacity:1;fill-rule:evenodd;stroke:#000000;stroke-linecap:butt;stroke-linejoin:miter;stroke-miterlimit:10.43299961;stroke-dasharray:none;stroke-dashoffset:0;stroke-opacity:1"
       ns0:preamble="/home/scott/.config/inkscape/extensions/default_packages.tex"
       ns0:text="$a_2^-$"
       word-spacing="normal"
       letter-spacing="normal"
       font-size-adjust="none"
       font-stretch="normal"
       font-weight="normal"
       font-variant="normal"
       font-style="normal"
       stroke-miterlimit="10.433"
       xml:space="preserve"
       transform="matrix(3.4849918,0,0,-3.4859871,970.90895,4175.6334)"
       id="g7573-0-2-5"><path
         id="path7575-8-2-0"
         style="font-style:normal;font-variant:normal;font-weight:normal;font-stretch:normal;letter-spacing:normal;word-spacing:normal;text-anchor:start;fill:#000000;fill-opacity:1;fill-rule:evenodd;stroke:#000000;stroke-width:0;stroke-linecap:butt;stroke-linejoin:miter;stroke-miterlimit:10.43299961;stroke-dasharray:none;stroke-dashoffset:0;stroke-opacity:1"
         word-spacing="normal"
         stroke-miterlimit="10.433"
         letter-spacing="normal"
         font-weight="normal"
         font-variant="normal"
         font-style="normal"
         font-stretch="normal"
         font-size-adjust="none"
         d="m 152.43,661 -0.02,0.03 -0.02,0.04 -0.02,0.03 -0.02,0.03 -0.02,0.03 -0.02,0.03 -0.02,0.03 -0.02,0.03 -0.02,0.03 -0.03,0.03 -0.02,0.03 -0.02,0.02 -0.03,0.03 -0.03,0.02 -0.02,0.02 -0.03,0.03 -0.03,0.02 -0.03,0.02 -0.03,0.01 -0.03,0.02 -0.03,0.02 -0.04,0.01 -0.03,0.02 -0.03,0.01 -0.04,0.01 -0.03,0.01 -0.04,0.01 h -0.04 l -0.04,0.01 h -0.04 l -0.04,0.01 h -0.04 l 0.01,-0.22 c 0.65,0 0.79,-0.82 0.79,-0.88 0,-0.06 -0.02,-0.12 -0.03,-0.17 l -0.5,-1.95 c -0.05,-0.18 -0.05,-0.2 -0.2,-0.37 -0.44,-0.55 -0.85,-0.71 -1.13,-0.71 -0.49,0 -0.63,0.55 -0.63,0.94 0,0.5 0.31,1.72 0.54,2.18 0.31,0.59 0.76,0.96 1.16,0.96 l -0.01,0.22 c -1.17,0 -2.4,-1.47 -2.4,-2.92 0,-0.94 0.55,-1.6 1.32,-1.6 0.2,0 0.7,0.04 1.3,0.75 0.08,-0.42 0.43,-0.75 0.9,-0.75 0.35,0 0.58,0.23 0.74,0.55 0.17,0.36 0.3,0.97 0.3,0.99 0,0.1 -0.09,0.1 -0.12,0.1 -0.1,0 -0.11,-0.04 -0.14,-0.18 -0.17,-0.65 -0.35,-1.24 -0.76,-1.24 -0.26,0 -0.29,0.26 -0.29,0.46 0,0.22 0.02,0.3 0.13,0.74 0.11,0.42 0.13,0.52 0.22,0.89 l 0.35,1.4 c 0.07,0.28 0.07,0.3 0.07,0.34 0,0.17 -0.12,0.27 -0.29,0.27 -0.24,0 -0.38,-0.22 -0.41,-0.44 z"
         inkscape:connector-curvature="0" /><path
         id="path7577-5-8-4"
         style="font-style:normal;font-variant:normal;font-weight:normal;font-stretch:normal;letter-spacing:normal;word-spacing:normal;text-anchor:start;fill:#000000;fill-opacity:1;fill-rule:evenodd;stroke:#000000;stroke-width:0;stroke-linecap:butt;stroke-linejoin:miter;stroke-miterlimit:10.43299961;stroke-dasharray:none;stroke-dashoffset:0;stroke-opacity:1"
         word-spacing="normal"
         stroke-miterlimit="10.433"
         letter-spacing="normal"
         font-weight="normal"
         font-variant="normal"
         font-style="normal"
         font-stretch="normal"
         font-size-adjust="none"
         d="m 159.16,663.08 h 0.01 0.02 0.01 0.01 0.02 0.01 0.01 0.02 0.01 0.01 0.01 l 0.01,0.01 h 0.01 0.01 l 0.01,0.01 h 0.01 l 0.01,0.01 h 0.01 l 0.01,0.01 h 0.01 l 0.01,0.01 0.01,0.01 v 0 0.01 h 0.01 v 0.01 0 l 0.01,0.01 v 0 0.01 0 0.01 h 0.01 v 0.01 0.01 0 0.01 0.01 0.01 0 c 0,0.18 -0.16,0.18 -0.28,0.18 h -4.15 c -0.11,0 -0.28,0 -0.28,-0.17 0,-0.17 0.16,-0.17 0.28,-0.17 z"
         inkscape:connector-curvature="0" /><path
         id="path7579-0-9-8"
         style="font-style:normal;font-variant:normal;font-weight:normal;font-stretch:normal;letter-spacing:normal;word-spacing:normal;text-anchor:start;fill:#000000;fill-opacity:1;fill-rule:evenodd;stroke:#000000;stroke-width:0;stroke-linecap:butt;stroke-linejoin:miter;stroke-miterlimit:10.43299961;stroke-dasharray:none;stroke-dashoffset:0;stroke-opacity:1"
         word-spacing="normal"
         stroke-miterlimit="10.433"
         letter-spacing="normal"
         font-weight="normal"
         font-variant="normal"
         font-style="normal"
         font-stretch="normal"
         font-size-adjust="none"
         d="m 157.5,655.85 h -0.24 c -0.02,-0.16 -0.09,-0.57 -0.18,-0.64 -0.06,-0.04 -0.59,-0.04 -0.69,-0.04 h -1.29 c 0.74,0.65 0.98,0.84 1.4,1.17 0.52,0.41 1,0.85 1,1.51 0,0.84 -0.74,1.36 -1.63,1.36 -0.87,0 -1.46,-0.61 -1.46,-1.25 0,-0.36 0.3,-0.39 0.37,-0.39 0.17,0 0.37,0.12 0.37,0.37 0,0.12 -0.05,0.37 -0.41,0.37 0.22,0.49 0.69,0.65 1.02,0.65 0.7,0 1.06,-0.55 1.06,-1.11 0,-0.61 -0.43,-1.09 -0.66,-1.34 l -1.68,-1.66 c -0.07,-0.06 -0.07,-0.08 -0.07,-0.27 h 2.88 z"
         inkscape:connector-curvature="0" /></g>    <g
       id="g5952-7-7"
       transform="matrix(3.431837,0,0,-3.431837,1202.5481,3962.4123)"
       xml:space="preserve"
       stroke-miterlimit="10.433"
       font-style="normal"
       font-variant="normal"
       font-weight="normal"
       font-stretch="normal"
       font-size-adjust="none"
       letter-spacing="normal"
       word-spacing="normal"
       ns0:text="$a_3^+$"
       ns0:preamble="/home/scott/.config/inkscape/extensions/default_packages.tex"
       style="font-style:normal;font-variant:normal;font-weight:normal;font-stretch:normal;letter-spacing:normal;word-spacing:normal;text-anchor:start;fill:#000000;fill-opacity:1;fill-rule:evenodd;stroke:#000000;stroke-linecap:butt;stroke-linejoin:miter;stroke-miterlimit:10.43299961;stroke-dasharray:none;stroke-dashoffset:0;stroke-opacity:1"><path
         inkscape:connector-curvature="0"
         d="m 152.43,661 -0.02,0.03 -0.02,0.04 -0.02,0.03 -0.02,0.03 -0.02,0.03 -0.02,0.03 -0.02,0.03 -0.02,0.03 -0.02,0.03 -0.03,0.03 -0.02,0.03 -0.02,0.02 -0.03,0.03 -0.03,0.02 -0.02,0.02 -0.03,0.03 -0.03,0.02 -0.03,0.02 -0.03,0.01 -0.03,0.02 -0.03,0.02 -0.04,0.01 -0.03,0.02 -0.03,0.01 -0.04,0.01 -0.03,0.01 -0.04,0.01 h -0.04 l -0.04,0.01 h -0.04 l -0.04,0.01 h -0.04 l 0.01,-0.22 c 0.65,0 0.79,-0.82 0.79,-0.88 0,-0.06 -0.02,-0.12 -0.03,-0.17 l -0.5,-1.95 c -0.05,-0.18 -0.05,-0.2 -0.2,-0.37 -0.44,-0.55 -0.85,-0.71 -1.13,-0.71 -0.49,0 -0.63,0.55 -0.63,0.94 0,0.5 0.31,1.72 0.54,2.18 0.31,0.59 0.76,0.96 1.16,0.96 l -0.01,0.22 c -1.17,0 -2.4,-1.47 -2.4,-2.92 0,-0.94 0.55,-1.6 1.32,-1.6 0.2,0 0.7,0.04 1.3,0.75 0.08,-0.42 0.43,-0.75 0.9,-0.75 0.35,0 0.58,0.23 0.74,0.55 0.17,0.36 0.3,0.97 0.3,0.99 0,0.1 -0.09,0.1 -0.12,0.1 -0.1,0 -0.11,-0.04 -0.14,-0.18 -0.17,-0.65 -0.35,-1.24 -0.76,-1.24 -0.26,0 -0.29,0.26 -0.29,0.46 0,0.22 0.02,0.3 0.13,0.74 0.11,0.42 0.13,0.52 0.22,0.89 l 0.35,1.4 c 0.07,0.28 0.07,0.3 0.07,0.34 0,0.17 -0.12,0.27 -0.29,0.27 -0.24,0 -0.38,-0.22 -0.41,-0.44 z"
         font-size-adjust="none"
         font-stretch="normal"
         font-style="normal"
         font-variant="normal"
         font-weight="normal"
         letter-spacing="normal"
         stroke-miterlimit="10.433"
         word-spacing="normal"
         style="font-style:normal;font-variant:normal;font-weight:normal;font-stretch:normal;letter-spacing:normal;word-spacing:normal;text-anchor:start;fill:#000000;fill-opacity:1;fill-rule:evenodd;stroke:#000000;stroke-width:0;stroke-linecap:butt;stroke-linejoin:miter;stroke-miterlimit:10.43299961;stroke-dasharray:none;stroke-dashoffset:0;stroke-opacity:1"
         id="path5954-3-1" /><path
         inkscape:connector-curvature="0"
         d="m 157.2,663.08 h 2.14 c 0.09,0 0.26,0 0.26,0.16 0,0.18 -0.16,0.18 -0.26,0.18 h -2.14 v 2.14 c 0,0.09 0,0.26 -0.16,0.26 -0.18,0 -0.18,-0.16 -0.18,-0.26 v -2.14 h -2.14 c -0.09,0 -0.26,0 -0.26,-0.17 0,-0.17 0.16,-0.17 0.26,-0.17 h 2.14 v -2.15 c 0,-0.09 0,-0.25 0.17,-0.25 0.17,0 0.17,0.16 0.17,0.25 z"
         font-size-adjust="none"
         font-stretch="normal"
         font-style="normal"
         font-variant="normal"
         font-weight="normal"
         letter-spacing="normal"
         stroke-miterlimit="10.433"
         word-spacing="normal"
         style="font-style:normal;font-variant:normal;font-weight:normal;font-stretch:normal;letter-spacing:normal;word-spacing:normal;text-anchor:start;fill:#000000;fill-opacity:1;fill-rule:evenodd;stroke:#000000;stroke-width:0;stroke-linecap:butt;stroke-linejoin:miter;stroke-miterlimit:10.43299961;stroke-dasharray:none;stroke-dashoffset:0;stroke-opacity:1"
         id="path5956-6-7" /><path
         inkscape:connector-curvature="0"
         d="m 155.88,656.91 h 0.05 l 0.05,-0.01 h 0.05 l 0.05,-0.01 0.04,-0.01 0.05,-0.01 0.04,-0.02 0.04,-0.01 0.05,-0.02 0.04,-0.02 0.04,-0.03 0.03,-0.02 0.04,-0.03 0.03,-0.03 0.04,-0.03 0.03,-0.03 0.03,-0.04 0.03,-0.04 0.03,-0.04 0.02,-0.04 0.02,-0.05 0.03,-0.04 0.02,-0.05 0.01,-0.06 0.02,-0.05 0.01,-0.06 0.02,-0.05 0.01,-0.06 v -0.07 l 0.01,-0.06 v -0.07 -0.07 c 0,-0.86 -0.5,-1.12 -0.9,-1.12 -0.28,0 -0.9,0.08 -1.19,0.49 0.33,0.01 0.41,0.24 0.41,0.39 0,0.22 -0.17,0.38 -0.39,0.38 -0.19,0 -0.39,-0.12 -0.39,-0.4 0,-0.66 0.73,-1.08 1.57,-1.08 0.97,0 1.64,0.65 1.64,1.34 0,0.55 -0.45,1.09 -1.21,1.25 0.73,0.27 0.99,0.79 0.99,1.22 0,0.55 -0.63,0.96 -1.41,0.96 -0.77,0 -1.36,-0.38 -1.36,-0.94 0,-0.23 0.15,-0.37 0.36,-0.37 0.22,0 0.36,0.16 0.36,0.36 0,0.2 -0.14,0.35 -0.36,0.36 0.25,0.31 0.73,0.39 0.98,0.39 0.32,0 0.76,-0.16 0.76,-0.76 0,-0.3 -0.1,-0.62 -0.28,-0.83 -0.23,-0.27 -0.43,-0.28 -0.78,-0.3 -0.17,-0.02 -0.18,-0.02 -0.22,-0.03 -0.01,0 -0.07,-0.01 -0.07,-0.09 0,-0.09 0.06,-0.09 0.18,-0.09 z"
         font-size-adjust="none"
         font-stretch="normal"
         font-style="normal"
         font-variant="normal"
         font-weight="normal"
         letter-spacing="normal"
         stroke-miterlimit="10.433"
         word-spacing="normal"
         style="font-style:normal;font-variant:normal;font-weight:normal;font-stretch:normal;letter-spacing:normal;word-spacing:normal;text-anchor:start;fill:#000000;fill-opacity:1;fill-rule:evenodd;stroke:#000000;stroke-width:0;stroke-linecap:butt;stroke-linejoin:miter;stroke-miterlimit:10.43299961;stroke-dasharray:none;stroke-dashoffset:0;stroke-opacity:1"
         id="path5958-1-2" /></g>    <g
       style="font-style:normal;font-variant:normal;font-weight:normal;font-stretch:normal;letter-spacing:normal;word-spacing:normal;text-anchor:start;fill:#000000;fill-opacity:1;fill-rule:evenodd;stroke:#000000;stroke-linecap:butt;stroke-linejoin:miter;stroke-miterlimit:10.43299961;stroke-dasharray:none;stroke-dashoffset:0;stroke-opacity:1"
       ns0:preamble="/home/scott/.config/inkscape/extensions/default_packages.tex"
       ns0:text="$a_3^-$"
       word-spacing="normal"
       letter-spacing="normal"
       font-size-adjust="none"
       font-stretch="normal"
       font-weight="normal"
       font-variant="normal"
       font-style="normal"
       stroke-miterlimit="10.433"
       xml:space="preserve"
       transform="matrix(3.4849922,0,0,-3.4849922,1194.6221,4173.3197)"
       id="g6344-2-7"><path
         id="path6346-9-2"
         style="font-style:normal;font-variant:normal;font-weight:normal;font-stretch:normal;letter-spacing:normal;word-spacing:normal;text-anchor:start;fill:#000000;fill-opacity:1;fill-rule:evenodd;stroke:#000000;stroke-width:0;stroke-linecap:butt;stroke-linejoin:miter;stroke-miterlimit:10.43299961;stroke-dasharray:none;stroke-dashoffset:0;stroke-opacity:1"
         word-spacing="normal"
         stroke-miterlimit="10.433"
         letter-spacing="normal"
         font-weight="normal"
         font-variant="normal"
         font-style="normal"
         font-stretch="normal"
         font-size-adjust="none"
         d="m 152.43,661 -0.02,0.03 -0.02,0.04 -0.02,0.03 -0.02,0.03 -0.02,0.03 -0.02,0.03 -0.02,0.03 -0.02,0.03 -0.02,0.03 -0.03,0.03 -0.02,0.03 -0.02,0.02 -0.03,0.03 -0.03,0.02 -0.02,0.02 -0.03,0.03 -0.03,0.02 -0.03,0.02 -0.03,0.01 -0.03,0.02 -0.03,0.02 -0.04,0.01 -0.03,0.02 -0.03,0.01 -0.04,0.01 -0.03,0.01 -0.04,0.01 h -0.04 l -0.04,0.01 h -0.04 l -0.04,0.01 h -0.04 l 0.01,-0.22 c 0.65,0 0.79,-0.82 0.79,-0.88 0,-0.06 -0.02,-0.12 -0.03,-0.17 l -0.5,-1.95 c -0.05,-0.18 -0.05,-0.2 -0.2,-0.37 -0.44,-0.55 -0.85,-0.71 -1.13,-0.71 -0.49,0 -0.63,0.55 -0.63,0.94 0,0.5 0.31,1.72 0.54,2.18 0.31,0.59 0.76,0.96 1.16,0.96 l -0.01,0.22 c -1.17,0 -2.4,-1.47 -2.4,-2.92 0,-0.94 0.55,-1.6 1.32,-1.6 0.2,0 0.7,0.04 1.3,0.75 0.08,-0.42 0.43,-0.75 0.9,-0.75 0.35,0 0.58,0.23 0.74,0.55 0.17,0.36 0.3,0.97 0.3,0.99 0,0.1 -0.09,0.1 -0.12,0.1 -0.1,0 -0.11,-0.04 -0.14,-0.18 -0.17,-0.65 -0.35,-1.24 -0.76,-1.24 -0.26,0 -0.29,0.26 -0.29,0.46 0,0.22 0.02,0.3 0.13,0.74 0.11,0.42 0.13,0.52 0.22,0.89 l 0.35,1.4 c 0.07,0.28 0.07,0.3 0.07,0.34 0,0.17 -0.12,0.27 -0.29,0.27 -0.24,0 -0.38,-0.22 -0.41,-0.44 z"
         inkscape:connector-curvature="0" /><path
         id="path6348-3-2"
         style="font-style:normal;font-variant:normal;font-weight:normal;font-stretch:normal;letter-spacing:normal;word-spacing:normal;text-anchor:start;fill:#000000;fill-opacity:1;fill-rule:evenodd;stroke:#000000;stroke-width:0;stroke-linecap:butt;stroke-linejoin:miter;stroke-miterlimit:10.43299961;stroke-dasharray:none;stroke-dashoffset:0;stroke-opacity:1"
         word-spacing="normal"
         stroke-miterlimit="10.433"
         letter-spacing="normal"
         font-weight="normal"
         font-variant="normal"
         font-style="normal"
         font-stretch="normal"
         font-size-adjust="none"
         d="m 159.16,663.08 h 0.01 0.02 0.01 0.01 0.02 0.01 0.01 0.02 0.01 0.01 0.01 l 0.01,0.01 h 0.01 0.01 l 0.01,0.01 h 0.01 l 0.01,0.01 h 0.01 l 0.01,0.01 h 0.01 l 0.01,0.01 0.01,0.01 v 0 0.01 h 0.01 v 0.01 0 l 0.01,0.01 v 0 0.01 0 0.01 h 0.01 v 0.01 0.01 0 0.01 0.01 0.01 0 c 0,0.18 -0.16,0.18 -0.28,0.18 h -4.15 c -0.11,0 -0.28,0 -0.28,-0.17 0,-0.17 0.16,-0.17 0.28,-0.17 z"
         inkscape:connector-curvature="0" /><path
         id="path6350-1-6"
         style="font-style:normal;font-variant:normal;font-weight:normal;font-stretch:normal;letter-spacing:normal;word-spacing:normal;text-anchor:start;fill:#000000;fill-opacity:1;fill-rule:evenodd;stroke:#000000;stroke-width:0;stroke-linecap:butt;stroke-linejoin:miter;stroke-miterlimit:10.43299961;stroke-dasharray:none;stroke-dashoffset:0;stroke-opacity:1"
         word-spacing="normal"
         stroke-miterlimit="10.433"
         letter-spacing="normal"
         font-weight="normal"
         font-variant="normal"
         font-style="normal"
         font-stretch="normal"
         font-size-adjust="none"
         d="m 155.88,656.91 h 0.05 l 0.05,-0.01 h 0.05 l 0.05,-0.01 0.04,-0.01 0.05,-0.01 0.04,-0.02 0.04,-0.01 0.05,-0.02 0.04,-0.02 0.04,-0.03 0.03,-0.02 0.04,-0.03 0.03,-0.03 0.04,-0.03 0.03,-0.03 0.03,-0.04 0.03,-0.04 0.03,-0.04 0.02,-0.04 0.02,-0.05 0.03,-0.04 0.02,-0.05 0.01,-0.06 0.02,-0.05 0.01,-0.06 0.02,-0.05 0.01,-0.06 v -0.07 l 0.01,-0.06 v -0.07 -0.07 c 0,-0.86 -0.5,-1.12 -0.9,-1.12 -0.28,0 -0.9,0.08 -1.19,0.49 0.33,0.01 0.41,0.24 0.41,0.39 0,0.22 -0.17,0.38 -0.39,0.38 -0.19,0 -0.39,-0.12 -0.39,-0.4 0,-0.66 0.73,-1.08 1.57,-1.08 0.97,0 1.64,0.65 1.64,1.34 0,0.55 -0.45,1.09 -1.21,1.25 0.73,0.27 0.99,0.79 0.99,1.22 0,0.55 -0.63,0.96 -1.41,0.96 -0.77,0 -1.36,-0.38 -1.36,-0.94 0,-0.23 0.15,-0.37 0.36,-0.37 0.22,0 0.36,0.16 0.36,0.36 0,0.2 -0.14,0.35 -0.36,0.36 0.25,0.31 0.73,0.39 0.98,0.39 0.32,0 0.76,-0.16 0.76,-0.76 0,-0.3 -0.1,-0.62 -0.28,-0.83 -0.23,-0.27 -0.43,-0.28 -0.78,-0.3 -0.17,-0.02 -0.18,-0.02 -0.22,-0.03 -0.01,0 -0.07,-0.01 -0.07,-0.09 0,-0.09 0.06,-0.09 0.18,-0.09 z"
         inkscape:connector-curvature="0" /></g>    <path
       inkscape:connector-curvature="0"
       id="path5668-3-1-9-6"
       style="fill:none;fill-opacity:1;stroke:#000000;stroke-width:2.43000007;stroke-linecap:butt;stroke-linejoin:round;stroke-miterlimit:4;stroke-dasharray:none;stroke-dashoffset:0;stroke-opacity:1"
       d="m 1395.0001,1884.8617 c 0,49.7056 -40.2944,90.0001 -90,90.0001 -49.7057,0 -90,-40.2945 -90,-90.0001 m 0,2e-4 v -180.0002 c 0,-49.7056 40.2943,-90 90,-90 49.7056,0 90,40.2944 90,90 v 180.0002" />
    <path
       id="path1458-1-6"
       style="opacity:1;vector-effect:none;fill:none;fill-opacity:1;stroke:#000000;stroke-width:2.43000007;stroke-linecap:butt;stroke-linejoin:round;stroke-miterlimit:4;stroke-dasharray:none;stroke-dashoffset:0;stroke-opacity:1"
       d="m 1507.5001,1952.3619 c -37.2792,0 -67.5,-30.2208 -67.5,-67.5 0,-37.2792 30.2208,-67.5 67.5,-67.5 h 225 c 37.2792,0 67.5,30.2208 67.5,67.5 0,37.2792 -30.2208,67.5 -67.5,67.5 z"
       inkscape:connector-curvature="0"
       sodipodi:nodetypes="csccscc" />
    <path
       id="path1494-1-7-7"
       style="opacity:1;vector-effect:none;fill:none;fill-opacity:1;stroke:#000000;stroke-width:2.43000007;stroke-linecap:butt;stroke-linejoin:round;stroke-miterlimit:4;stroke-dasharray:none;stroke-dashoffset:0;stroke-opacity:1"
       d="m 1822.5001,1884.8619 c 0,49.7056 -40.2944,90 -90,90 h -225 c -49.7056,0 -90,-40.2944 -90,-90 0,-49.7056 40.2944,-90 90,-90 h 45 c 49.7056,0 90,-40.2944 90,-90 0,-49.7056 40.2944,-90 90,-90 49.7056,0 90,40.2944 90,90 z"
       inkscape:connector-curvature="0"
       sodipodi:nodetypes="cccscccscc" />
  </g>
</svg>
